<svg width="294" height="587" viewBox="0 0 294 587" fill="none" xmlns="http://www.w3.org/2000/svg">
<path opacity="0.18" d="M404.824 30.8181C397.518 33.8896 390.342 37.2171 383.293 40.8704C300.886 83.453 243.214 163.383 152.989 189.933C128.561 197.123 102.34 199.101 82.603 214.831C68.3627 226.629 55.9698 240.142 45.7698 254.993C24.2027 285.768 9.88998 320.263 3.73319 356.307C-8.59583 426.115 8.65454 504.718 69.8383 552.536C115.822 588.51 184.26 590.325 241.855 580.599C274.895 575.037 306.55 564.194 339.257 557.05C396.439 544.611 455.922 543.65 513.555 554.235C551.567 561.215 588.298 573.245 626.336 580.622C653.66 585.95 682.111 588.906 709.999 585.625C736.759 582.483 757.393 570.895 781.769 561.541C828.137 543.694 875.069 520.936 904.623 482.566C927.357 452.497 937.86 416.185 934.331 379.855C930.485 343.582 914.133 309.334 887.603 281.985C875.838 269.699 860.459 258.856 854.718 243.219C848.976 227.582 848.079 209.339 846.285 193.307C842.389 158.147 837.723 121.987 818.858 91.0852C797.891 56.74 760.75 32.1445 720.226 18.2993C679.702 4.45416 635.897 0.498405 592.604 0.0330213C528.498 -0.548708 462.701 6.43204 404.824 30.8181Z" fill="#37B6FF"/>
</svg>
