<svg width="71" height="70" viewBox="0 0 71 70" fill="none" xmlns="http://www.w3.org/2000/svg">
<path d="M10.5597 61.595L5.01001 0.897461H65.9901L60.4344 61.5859L35.4629 68.3363L10.5597 61.595Z" fill="#CFEDFF"/>
<path d="M35.5 63.1777L55.6784 57.7222L60.426 5.86133H35.5V63.1777Z" fill="#CFEDFF"/>
<path d="M35.5 28.3721H25.398L24.7002 20.7486H35.5V13.3047H16.3572L16.5402 15.3017L18.4162 35.8166H35.5V28.3721ZM35.5 47.7057L35.4662 47.7149L26.9645 45.4755L26.4214 39.5391H18.7573L19.8267 51.2275L35.4651 55.4606L35.5 55.4514V47.7057Z" fill="#EBEBEB"/>
<path d="M35.4734 28.3721V35.8166H44.8737L43.9878 45.4712L35.4734 47.7122V55.4574L51.1239 51.2275L51.2387 49.9699L53.0326 30.3713L53.2184 28.3721H51.1616H35.4734ZM35.4734 13.3047V20.7486H53.9134L54.0665 19.0761L54.4149 15.3017L54.5974 13.3047H35.4734Z" fill="white"/>
</svg>
