<svg width="148" height="145" viewBox="0 0 148 145" fill="none" xmlns="http://www.w3.org/2000/svg">
<path d="M60.7969 76.4652C60.7969 76.4652 56.9998 78.6199 63.5037 79.3483C71.3824 80.2255 75.4096 80.0992 84.0907 78.4992C84.0907 78.4992 86.379 79.894 89.5656 81.1027C70.0989 89.2355 45.5078 80.6314 60.7969 76.4652ZM58.4162 65.8496C58.4162 65.8496 54.1566 68.9266 60.6651 69.5828C69.0826 70.4296 75.7276 70.4995 87.2346 68.3392C87.2346 68.3392 88.8221 69.9132 91.3231 70.7712C67.7911 77.4845 41.58 71.3 58.4162 65.8496V65.8496Z" fill="#CFEDFF"/>
<path d="M78.4691 47.8415C83.2687 53.2287 77.2111 58.0726 77.2111 58.0726C77.2111 58.0726 89.3899 51.9423 83.7971 44.2627C78.572 37.1041 74.568 33.549 96.2511 21.2861C96.2523 21.2861 62.2134 29.5734 78.4691 47.8415Z" fill="#CFEDFF"/>
<path d="M104.215 84.3168C104.215 84.3168 107.027 86.5775 101.119 88.3251C89.8846 91.6434 54.3554 92.6447 44.4868 88.4571C40.9417 86.9518 47.5936 84.8637 49.6853 84.425C51.8671 83.9639 53.1136 84.0485 53.1136 84.0485C49.1684 81.339 27.6125 89.3692 42.165 91.6727C81.8522 97.9451 114.508 88.8472 104.215 84.3168V84.3168ZM62.6249 54.8502C62.6249 54.8502 44.5538 59.0367 56.2262 60.5589C61.1564 61.2015 70.9776 61.0538 80.1328 60.3052C87.6126 59.6929 95.119 58.3839 95.119 58.3839C95.119 58.3839 92.4839 59.4866 90.5749 60.7562C72.2206 65.4636 36.7711 63.2705 46.9773 58.4583C55.6064 54.3868 62.6249 54.8502 62.6249 54.8502V54.8502ZM95.0438 72.5184C113.7 63.0676 105.073 53.9843 99.0525 55.2076C97.5806 55.5076 96.9192 55.7669 96.9192 55.7669C96.9192 55.7669 97.4685 54.928 98.5126 54.5683C110.424 50.4867 119.583 66.6114 94.6715 72.9976C94.6715 72.9976 94.9571 72.7451 95.0438 72.5184Z" fill="#CFEDFF"/>
<path d="M83.7983 1.47949C83.7983 1.47949 94.1294 11.5584 73.9979 27.0539C57.8543 39.487 70.3164 46.5746 73.9909 54.6758C64.5675 46.3841 57.6554 39.0845 62.292 32.2923C69.1012 22.3228 87.9654 17.4869 83.7983 1.47949V1.47949Z" fill="#CFEDFF"/>
<path d="M64.4595 98.1394C82.3629 99.2557 109.864 97.5182 110.515 89.2568C110.515 89.2568 109.264 92.388 95.7164 94.873C80.4331 97.6783 61.5805 97.3524 50.4019 95.5529C50.4019 95.5529 52.6912 97.402 64.4595 98.1394V98.1394Z" fill="#CFEDFF"/>
<path d="M109.689 112.957H109.143V112.659H110.612V112.957H110.068V114.442H109.688L109.689 112.957V112.957ZM112.62 113.031H112.613L112.072 114.442H111.822L111.284 113.031H111.279V114.442H110.918V112.659H111.446L111.945 113.921L112.444 112.659H112.969V114.442H112.62V113.031V113.031ZM61.5253 129.707C59.8371 131.135 58.0519 131.938 56.4482 131.938C54.1657 131.938 52.9274 130.6 52.9274 128.459C52.9274 126.142 54.2524 124.445 59.5619 124.445H61.5241V129.707H61.5253ZM66.1861 134.835V118.963C66.1861 114.905 63.8123 112.229 58.0958 112.229C54.7589 112.229 51.8336 113.034 49.4552 114.057L50.1397 116.868C52.0128 116.197 54.4351 115.575 56.8124 115.575C60.1077 115.575 61.5241 116.868 61.5241 119.545V121.551H59.8776C51.8752 121.551 48.2642 124.578 48.2642 129.131C48.2642 133.054 50.6438 135.283 55.1243 135.283C58.0033 135.283 60.1551 134.124 62.1635 132.427L62.5289 134.836H66.1861V134.835V134.835ZM81.74 134.835H75.9275L68.931 112.636H74.0081L78.351 126.277L79.3165 130.376C81.5087 124.447 83.0627 118.429 83.8397 112.637H88.7781C87.4565 119.944 85.0746 127.969 81.74 134.835V134.835ZM104.042 129.707C102.348 131.135 100.561 131.938 98.9635 131.938C96.6787 131.938 95.4415 130.6 95.4415 128.459C95.4415 126.142 96.7701 124.445 102.074 124.445H104.041V129.707H104.042ZM108.705 134.835V118.963C108.705 114.905 106.324 112.229 100.612 112.229C97.2719 112.229 94.3477 113.034 91.9693 114.057L92.655 116.868C94.5281 116.197 96.9539 115.575 99.3312 115.575C102.622 115.575 104.042 116.868 104.042 119.545V121.551H102.395C94.3905 121.551 90.7807 124.578 90.7807 129.131C90.7807 133.054 93.1579 135.283 97.6373 135.283C100.517 135.283 102.666 134.124 104.68 132.427L105.048 134.836H108.705V134.835V134.835ZM43.1536 138.608C41.8274 140.501 39.6791 142 37.3296 142.844L35.0298 140.2C36.8185 139.305 38.3505 137.86 39.0639 136.514C39.6791 135.316 39.9346 133.774 39.9346 130.086V104.737H44.888V129.738C44.888 134.671 44.4856 136.665 43.1536 138.608Z" fill="#CFEDFF"/>
</svg>
