<svg width="69" height="67" viewBox="0 0 69 67" fill="none" xmlns="http://www.w3.org/2000/svg">
<path d="M0.755859 0.736328H67.9516V66.2629H0.755859V0.736328Z" fill="#CFEDFF"/>
<path d="M62.4522 50.6359C61.96 47.6466 59.961 45.1356 54.0399 42.7943C51.9829 41.8725 49.6898 41.2125 49.0065 39.6924C48.7639 38.8078 48.7317 38.3095 48.8852 37.774C49.3259 36.0362 51.4531 35.4944 53.1391 35.9927C54.225 36.3476 55.253 37.1637 55.8729 38.4655C58.7726 36.6345 58.7667 36.6465 60.7914 35.3882C60.0501 34.2675 59.6545 33.7503 59.1693 33.2709C57.4253 31.3713 55.049 30.393 51.2486 30.4679L49.269 30.7175C47.372 31.185 45.5642 32.1559 44.504 33.4577C41.3231 36.9773 42.2303 43.1371 46.1009 45.6722C49.9142 48.4631 55.516 49.098 56.2315 51.7079C56.9277 54.903 53.8235 55.9373 50.7382 55.5698C48.4644 55.1087 47.1997 53.9817 45.8326 51.9325C43.3162 53.3525 43.3162 53.3525 40.7289 54.8035C41.3424 56.1116 41.9871 56.7036 43.0156 57.8368C47.883 62.6514 60.0635 62.4148 62.2482 55.1275C62.3368 54.8773 62.9251 53.2086 62.4522 50.6359V50.6359ZM37.2855 30.8536H31.0004L30.9746 46.6991C30.9746 50.069 31.1534 53.1584 30.5914 54.1053C29.6719 55.9676 27.2891 55.7368 26.2032 55.3756C25.098 54.8459 24.536 54.0927 23.8849 53.028C23.7061 52.7223 23.5719 52.4857 23.5269 52.4674L18.4167 55.5191C19.2665 57.2197 20.5182 58.6958 22.1216 59.6547C24.5167 61.0565 27.7357 61.4862 31.1024 60.7325C33.2935 60.1101 35.184 58.8209 36.1738 56.8585C37.6049 54.2858 37.2978 51.1719 37.2849 47.7277C37.3171 42.1086 37.2855 36.4905 37.2855 30.8536V30.8536Z" fill="white"/>
</svg>
