<svg width="47" height="47" viewBox="0 0 47 47" fill="none" xmlns="http://www.w3.org/2000/svg">
<path d="M42.5938 1.10173H4.40625C3.5398 1.09291 2.70524 1.42818 2.08569 2.03396C1.46615 2.63974 1.11222 3.46655 1.10156 4.33298V42.6747C1.11414 43.5398 1.46892 44.3648 2.08826 44.969C2.7076 45.5732 3.54106 45.9074 4.40625 45.8986H42.5938C43.4603 45.9055 44.2942 45.5691 44.9135 44.9629C45.5327 44.3568 45.8868 43.5301 45.8984 42.6637V4.32197C45.883 3.45808 45.5272 2.63521 44.9084 2.03221C44.2896 1.42921 43.4577 1.09482 42.5938 1.10173V1.10173Z" fill="#37B6FF"/>
<path d="M7.73297 17.8936H14.3827V39.2896H7.73297V17.8936ZM11.0597 7.24512C11.8224 7.24512 12.568 7.47133 13.2021 7.89514C13.8362 8.31894 14.3303 8.9213 14.622 9.62601C14.9137 10.3307 14.9899 11.1061 14.8408 11.8541C14.6917 12.6021 14.3242 13.2891 13.7846 13.8281C13.2451 14.3672 12.5577 14.7341 11.8096 14.8824C11.0615 15.0308 10.2862 14.9539 9.58172 14.6615C8.87729 14.3691 8.27541 13.8744 7.8522 13.2399C7.429 12.6054 7.2035 11.8596 7.20423 11.0969C7.2052 10.075 7.61183 9.09531 8.33476 8.37306C9.0577 7.65081 10.0378 7.24512 11.0597 7.24512ZM18.554 17.8936H24.9284V20.8311H25.0165C25.9051 19.1493 28.0715 17.3758 31.3064 17.3758C38.0406 17.3611 39.2891 21.7931 39.2891 27.5396V39.2896H32.6393V28.8798C32.6393 26.4013 32.5952 23.2104 29.1841 23.2104C25.7729 23.2104 25.1927 25.9129 25.1927 28.7182V39.2896H18.554V17.8936Z" fill="white"/>
</svg>
