<svg width="164" height="164" viewBox="0 0 164 164" fill="none" xmlns="http://www.w3.org/2000/svg">
<path fill-rule="evenodd" clip-rule="evenodd" d="M66.4122 29.4924C71.2246 29.4924 76.037 29.5668 80.8429 29.4412C82.1178 29.4079 84.4048 30.4623 84.3023 27.8127C84.2241 25.6564 82.2241 26.4367 81.012 26.4174C75.5834 26.3316 70.1368 26.1253 64.7299 26.4648C60.8823 26.7044 59.7484 25.2438 60.2314 21.7153C60.398 20.4981 60.2379 19.2373 60.2635 17.9971C60.4326 9.73813 62.4288 6.92707 70.4392 4.88988C79.2644 2.6477 88.2959 2.72201 97.0969 4.65413C105.009 6.39151 108.295 12.5466 107.895 18.2405C107.408 25.1887 107.785 32.1972 107.779 39.18C107.767 47.9604 103.23 52.6203 94.378 52.742C87.0877 52.8419 79.7885 52.9214 72.502 52.7189C63.8177 52.4755 57.4473 59.6889 57.4037 67.8633C57.4037 68.4834 57.5101 69.1241 57.3871 69.7224C56.7618 72.7244 59.2603 77.5765 56.0776 78.4682C51.2345 79.8289 45.5637 79.8289 41.292 75.5073C39.8442 74.0466 38.6245 72.4105 37.9813 70.5193C34.5488 60.4423 34.0068 50.2372 37.2381 40.0025C39.2523 33.6142 44.7309 29.6411 51.5177 29.527C56.4812 29.4438 61.4461 29.5104 66.4096 29.5104L66.4122 29.4924V29.4924ZM75.2554 15.2449C75.0478 12.8067 73.7371 11.0271 71.0324 10.9528C68.074 10.8759 66.5455 12.6645 66.5416 15.5755C66.539 18.2738 68.0086 20.0022 70.6941 20.0804C73.6449 20.1662 75.0735 18.3379 75.2554 15.2449V15.2449Z" fill="#CFEDFF"/>
<path fill-rule="evenodd" clip-rule="evenodd" d="M103.556 78.8921C98.1232 78.8921 92.6882 78.8447 87.2557 78.9306C86.0321 78.9459 83.9795 78.1721 83.9155 80.2643C83.8437 82.6372 86.0462 82.0197 87.4453 82.0337C92.8778 82.1017 98.3154 82.1593 103.747 82.0081C106.537 81.9312 107.676 82.4655 107.885 85.7558C108.829 100.65 102.365 101.938 90.4434 104.648C83.6041 106.202 76.2715 105.378 69.527 102.357C63.9498 99.8623 60.5275 96.2671 60.9593 89.5355C61.3873 82.8909 61.459 76.1605 60.9478 69.5223C60.3328 61.5107 65.3168 55.6182 75.0095 55.6157C81.5311 55.6144 88.0962 55.1172 94.5614 55.7117C103.806 56.5599 111.054 48.547 111.371 39.2297C111.384 38.921 111.305 38.5891 111.384 38.3021C112.199 35.4385 109.301 31.1822 113.178 29.7357C119.037 27.5512 125.645 29.8472 128.638 34.2931C132.411 39.8909 132.921 46.4778 133.531 52.9097C134.19 59.8425 132.246 66.3692 129.333 72.623C127.355 76.8639 124.029 78.9139 119.395 78.9203C114.116 78.9242 108.838 78.9203 103.558 78.9203C103.556 78.9101 103.556 78.9011 103.556 78.8921V78.8921ZM102.141 92.7296C101.561 90.0826 100.367 88.276 97.2917 88.2004C94.0937 88.1235 93.2686 90.5156 93.2853 92.6515C93.3032 94.9218 93.9361 97.715 97.3981 97.4536C100.276 97.2332 101.679 95.451 102.141 92.7296V92.7296Z" fill="#CFEDFF"/>
<path fill-rule="evenodd" clip-rule="evenodd" d="M18.1027 147.152C18.1027 150.46 18.2526 153.559 18.0323 156.63C17.9375 157.955 19.3981 160.448 16.619 160.445C14.1693 160.445 13.5402 158.495 13.6184 156.139C13.7683 151.642 13.6619 147.136 13.6619 142.635V132.387C13.6619 126.212 15.3186 124.121 21.2251 122.842C26.7166 121.648 31.0318 123.497 33.251 128.304C35.4701 133.112 35.6418 138.067 33.4214 142.959C31.233 147.779 27.2022 149.578 22.0387 148.149C20.8626 147.829 19.6748 147.551 18.1027 147.152V147.152ZM18.1027 135.047C18.1027 136.751 18.3334 138.488 18.0553 140.146C17.4121 143.979 19.8593 144.923 22.7447 145.605C25.5981 146.278 27.5545 145.065 28.6987 142.551C30.6218 138.336 30.9447 133.989 29.4841 129.531C28.1875 125.57 25.1932 125.106 21.6979 125.598C18.2462 126.089 17.7786 128.436 18.0797 131.338C18.2078 132.561 18.1027 133.811 18.1027 135.047V135.047ZM55.2423 146.947C52.8784 147.562 50.8259 148.218 48.7246 148.613C44.1249 149.473 40.7194 146.947 39.5214 142.342C38.0351 136.643 39.2933 130.966 39.3318 125.28C39.3484 122.688 41.7469 123.699 43.4061 122.31C43.4061 128.396 43.4292 133.649 43.3985 138.898C43.3818 141.535 44.0634 143.703 46.5567 145.093C49.3089 146.628 51.5664 145.166 53.9624 144.181C55.6792 143.475 55.4653 142.034 55.4678 140.663C55.4806 135.702 55.4666 130.746 55.4832 125.785C55.4858 124.561 55.3589 123.066 57.1655 123.126C58.776 123.179 59.4769 124.136 59.45 125.891C59.3334 134.1 59.5653 142.321 59.2321 150.518C58.9797 156.717 54.6068 160.503 48.3159 160.781C47.3742 160.821 46.3876 160.908 46.0353 159.739C45.4984 157.94 46.9552 158.28 47.9123 157.974C54.8323 155.773 55.7369 154.458 55.2423 146.947V146.947ZM84.4856 125.647C86.3165 124.782 87.3684 123.99 88.5254 123.776C95.0175 122.575 99.9925 123.033 99.9797 131.777C99.9708 136.281 99.9823 140.786 99.9708 145.288C99.9682 146.549 100.049 147.776 98.1693 147.885C96.1872 148.003 95.7516 146.869 95.7606 145.315C95.7836 140.975 95.9015 136.636 95.8977 132.297C95.8951 128.928 95.2071 125.945 90.9213 125.955C87.1621 125.962 84.4997 128.768 84.4805 132.64C84.4589 136.831 84.4602 141.022 84.4843 145.214C84.4881 146.703 84.5202 148.008 82.3677 147.885C80.4291 147.77 80.6675 146.463 80.6675 145.26C80.6546 134.241 80.7085 123.211 80.6149 112.184C80.5983 110.252 81.3606 109.053 83.0749 108.971C85.4939 108.86 84.3856 110.975 84.4215 112.036C84.5791 116.355 84.4856 120.684 84.4856 125.647V125.647ZM104.973 135.526C104.728 126.923 108.809 122.329 116.197 122.596C119.904 122.732 122.686 124.377 124.481 127.58C127.652 133.246 127.223 138.914 123.792 144.219C121.434 147.863 117.808 149.582 113.388 148.644C109.029 147.721 105.616 143.797 104.998 139.223C104.834 138.012 104.973 136.758 104.973 135.526ZM122.039 135.727C121.844 134.226 121.879 132.132 121.254 130.264C120.399 127.702 118.841 125.639 115.662 125.498C112.455 125.359 110.855 127.234 109.785 129.829C108.105 133.902 108.214 137.991 110.034 141.991C111.202 144.568 113.006 146.454 116.132 145.931C119.211 145.417 121.028 143.4 121.657 140.405C121.943 139.048 121.897 137.627 122.039 135.729V135.727ZM131.017 136.874C131.017 135.321 130.987 133.771 131.022 132.226C131.094 129.247 130.144 125.946 134.161 124.424C138.761 122.687 143.319 121.385 147.95 124.074C149.682 125.081 150.32 126.911 150.338 128.853C150.385 134.274 150.314 139.698 150.387 145.119C150.412 147.01 149.915 147.956 147.79 147.904C145.46 147.849 145.951 146.261 145.966 144.992C146.021 140.661 146.323 136.335 146.241 132.01C146.133 126.565 143.145 124.345 138.055 125.681C135.943 126.237 134.623 127.262 134.727 129.876C134.934 134.978 134.775 140.098 134.794 145.209C134.799 146.69 134.821 148.002 132.684 147.877C130.726 147.765 131.046 146.41 131.031 145.236C130.995 142.448 131.021 139.658 131.017 136.874V136.874ZM75.1952 124.8C74.8749 125.179 74.6059 125.773 74.324 125.778C69.2451 125.849 70.6545 129.64 70.5238 132.453C70.3995 135.073 70.5238 137.706 70.4866 140.333C70.4482 142.945 70.675 145.371 73.8525 146.065C74.7635 146.262 75.1786 146.787 74.989 147.697C74.7801 148.701 73.9793 148.662 73.1862 148.651C69.5347 148.587 66.8274 146.006 66.7198 142.226C66.6096 138.364 66.7595 134.494 66.6685 130.636C66.6211 128.804 67.5731 126.465 64.6185 125.739C64.2944 125.661 64.179 124.742 63.9676 124.218C67.9088 122.981 66.2739 119.582 66.8146 117.003C67.0708 115.782 68.2304 115.448 69.3258 115.344C70.4341 115.239 70.4431 116.136 70.479 116.885C70.625 119.858 69.0862 123.836 74.5585 123.62C74.7417 123.613 74.9556 124.34 75.1952 124.798V124.8Z" fill="#CFEDFF"/>
</svg>
