<svg width="62" height="61" viewBox="0 0 62 61" fill="none" xmlns="http://www.w3.org/2000/svg">
<path d="M61.1456 1.11615C61.1456 0.0970565 61.1456 0 60.175 0H1.21321C0.242641 0 0 0.0970565 0 1.06762V60.0294C0 61 0.145585 61 1.06762 61H60.175C60.9515 61 61.1456 60.8059 61.1456 60.0294C61.0971 50.2267 61.1456 40.3755 61.1456 30.5728V1.11615ZM28.0008 45.1313L23.2936 34.5521L18.3437 45.1313H12.9085L19.9451 30.9125L13.3938 15.8687L18.9745 15.9173L23.0994 25.7685L28.1464 15.8687H33.3874L26.3023 30.136L33.3389 45.1313H28.0008ZM49.1591 16.4025V43.8695C49.1591 44.5975 49.0621 45.0342 48.3341 45.0827C44.9372 45.5195 41.5402 46.0048 38.1917 45.0342C34.5521 44.0151 32.4654 41.1519 32.3198 37.2212C32.1257 32.3683 33.9698 29.0199 37.5609 27.467C39.7932 26.4964 42.074 26.4479 44.646 26.6905V15.9173H49.1591V16.4025ZM39.6961 41.3461C41.2975 41.7828 42.899 41.6372 44.5489 41.3461V31.6404C44.5489 31.4948 44.3548 31.2037 44.2092 31.1551C42.4137 30.864 40.5696 30.864 38.8711 31.786C37.1241 32.7566 36.2021 34.7947 36.3962 37.1726C36.5418 39.3564 37.7064 40.7637 39.6961 41.3461V41.3461Z" fill="#CFEDFF"/>
</svg>
