<svg width="128" height="146" viewBox="0 0 128 146" fill="none" xmlns="http://www.w3.org/2000/svg">
<path d="M122.941 32.5923L70.1895 1.96217C66.8627 0.0672985 62.531 0.0672985 59.1779 1.96217L5.86288 32.5923C2.42961 34.5673 0 38.2793 0 42.2497V103.429C0 107.399 2.49301 111.112 5.92628 113.098L20.0123 121.098C26.7448 124.414 29.1242 124.414 32.1878 124.414C42.1563 124.414 47.8505 118.387 47.8505 107.873V47.4737C47.8505 46.6208 47.4067 45.3515 46.5693 45.3515H39.8427C38.991 45.3515 37.0841 46.6208 37.0841 47.4725V107.871C37.0841 112.532 32.8685 117.17 24.9899 113.231L10.435 104.841C9.92777 104.566 9.57009 104.012 9.57009 103.429V42.2497C9.57009 41.6731 10.234 41.0941 10.7448 40.7986L63.8875 10.2211C64.384 9.93999 65.1137 9.93999 65.609 10.2211L118.103 40.7914C118.606 41.0941 118.429 41.6551 118.429 42.2497V103.429C118.429 104.012 118.648 104.581 118.151 104.862L65.4128 135.457C64.9606 135.729 64.3995 135.729 63.9043 135.457L50.3782 127.384C49.9702 127.147 49.4858 127.062 49.0946 127.281C45.3311 129.414 44.6373 129.697 41.1071 130.921C40.2387 131.224 38.9575 131.749 41.5976 133.228L59.2999 143.7C60.9899 144.677 62.9072 145.191 64.8589 145.191C66.8232 145.191 68.7468 144.681 70.4419 143.7L122.94 113.098C126.373 111.098 128 107.399 128 103.429V42.2497C128 38.2793 126.373 34.5769 122.941 32.5923V32.5923ZM81.2381 93.7341C67.2108 93.7341 64.1208 89.8642 63.0908 82.8888C62.9712 82.1376 62.3336 81.2392 61.5692 81.2392H54.7134C53.8653 81.2392 53.1834 82.268 53.1834 83.1125C53.1834 92.0438 58.039 102.865 81.2393 102.865C98.0336 102.865 107.662 96.3395 107.662 84.7909C107.662 73.3403 99.9261 70.3353 83.639 68.1797C67.1761 66.0037 65.5037 64.9043 65.5037 61.0476C65.5037 57.868 66.9201 53.6272 79.11 53.6272C90.0019 53.6272 94.0166 55.9647 95.6686 63.3061C95.8098 63.9964 96.4402 64.4916 97.152 64.4916H104.035C104.459 64.4916 104.863 64.3206 105.16 64.0179C105.447 63.6925 105.599 63.2846 105.561 62.8468C104.495 50.2048 96.0957 44.3132 79.1088 44.3132C63.9988 44.3132 54.985 50.694 54.985 61.3897C54.985 72.991 63.9533 76.197 78.458 77.6313C95.8098 79.3324 97.1592 81.8684 97.1592 85.2813C97.1592 91.2088 92.4005 93.7341 81.2381 93.7341Z" fill="#83CD29"/>
</svg>
