<svg width="164" height="164" viewBox="0 0 164 164" fill="none" xmlns="http://www.w3.org/2000/svg">
<path fill-rule="evenodd" clip-rule="evenodd" d="M66.4122 29.4905C71.2246 29.4905 76.037 29.5648 80.8429 29.4392C82.1178 29.4059 84.4048 30.4604 84.3023 27.8108C84.2241 25.6544 82.2241 26.4347 81.012 26.4155C75.5834 26.3296 70.1368 26.1234 64.7299 26.4629C60.8823 26.7025 59.7484 25.2419 60.2314 21.7133C60.398 20.4961 60.2379 19.2354 60.2635 17.9951C60.4326 9.73618 62.4288 6.92512 70.4392 4.88793C79.2644 2.64574 88.2959 2.72005 97.0969 4.65218C105.009 6.38955 108.295 12.5447 107.895 18.2386C107.408 25.1868 107.785 32.1952 107.779 39.178C107.767 47.9584 103.23 52.6183 94.378 52.7401C87.0877 52.84 79.7885 52.9194 72.502 52.717C63.8177 52.4736 57.4473 59.687 57.4037 67.8614C57.4037 68.4815 57.5101 69.1221 57.3871 69.7205C56.7618 72.7224 59.2603 77.5745 56.0776 78.4663C51.2345 79.827 45.5637 79.827 41.292 75.5053C39.8442 74.0447 38.6245 72.4085 37.9813 70.5174C34.5488 60.4404 34.0068 50.2352 37.2381 40.0006C39.2523 33.6123 44.7309 29.6391 51.5177 29.5251C56.4812 29.4418 61.4461 29.5084 66.4096 29.5084L66.4122 29.4905V29.4905ZM75.2554 15.243C75.0478 12.8048 73.7371 11.0251 71.0324 10.9508C68.074 10.8739 66.5455 12.6626 66.5416 15.5736C66.539 18.2719 68.0086 20.0003 70.6941 20.0784C73.6449 20.1643 75.0735 18.3359 75.2554 15.243V15.243Z" fill="#386F9F"/>
<path fill-rule="evenodd" clip-rule="evenodd" d="M103.556 78.8892C98.1233 78.8892 92.6882 78.8418 87.2557 78.9276C86.0321 78.943 83.9795 78.1691 83.9155 80.2614C83.8437 82.6343 86.0462 82.0167 87.4453 82.0308C92.8778 82.0987 98.3154 82.1564 103.747 82.0052C106.537 81.9283 107.676 82.4626 107.885 85.7529C108.829 100.647 102.365 101.935 90.4434 104.645C83.6041 106.199 76.2715 105.375 69.527 102.354C63.9498 99.8594 60.5275 96.2642 60.9593 89.5325C61.3873 82.888 61.459 76.1576 60.9478 69.5194C60.3328 61.5078 65.3168 55.6153 75.0095 55.6127C81.5311 55.6114 88.0962 55.1143 94.5614 55.7088C103.806 56.557 111.054 48.5441 111.371 39.2268C111.384 38.918 111.305 38.5862 111.384 38.2992C112.199 35.4356 109.301 31.1793 113.178 29.7328C119.037 27.5482 125.645 29.8442 128.638 34.2902C132.411 39.8879 132.921 46.4749 133.531 52.9067C134.19 59.8396 132.246 66.3663 129.333 72.62C127.355 76.861 124.029 78.911 119.395 78.9174C114.116 78.9212 108.838 78.9174 103.558 78.9174C103.556 78.9071 103.556 78.8982 103.556 78.8892V78.8892ZM102.141 92.7267C101.561 90.0796 100.367 88.2731 97.2917 88.1975C94.0937 88.1206 93.2686 90.5127 93.2853 92.6485C93.3032 94.9189 93.9361 97.712 97.3981 97.4507C100.276 97.2303 101.679 95.4481 102.141 92.7267V92.7267Z" fill="#FFCF46"/>
<path fill-rule="evenodd" clip-rule="evenodd" d="M18.1027 147.15C18.1027 150.459 18.2526 153.557 18.0323 156.628C17.9375 157.953 19.3981 160.446 16.619 160.443C14.1693 160.443 13.5402 158.493 13.6184 156.137C13.7683 151.64 13.6619 147.134 13.6619 142.633V132.385C13.6619 126.21 15.3186 124.119 21.2251 122.84C26.7166 121.646 31.0318 123.495 33.251 128.302C35.4701 133.11 35.6418 138.065 33.4214 142.957C31.233 147.777 27.2022 149.576 22.0387 148.147C20.8626 147.827 19.6748 147.549 18.1027 147.15V147.15ZM18.1027 135.045C18.1027 136.749 18.3334 138.487 18.0553 140.144C17.4121 143.977 19.8593 144.921 22.7447 145.603C25.5981 146.277 27.5545 145.063 28.6987 142.549C30.6218 138.334 30.9447 133.987 29.4841 129.529C28.1875 125.568 25.1932 125.104 21.6979 125.596C18.2462 126.087 17.7786 128.434 18.0797 131.336C18.2078 132.559 18.1027 133.809 18.1027 135.045V135.045ZM55.2423 146.945C52.8784 147.56 50.8259 148.216 48.7246 148.611C44.1249 149.471 40.7194 146.945 39.5214 142.341C38.0351 136.642 39.2933 130.964 39.3318 125.278C39.3484 122.686 41.7469 123.697 43.4061 122.308C43.4061 128.394 43.4292 133.647 43.3985 138.897C43.3818 141.533 44.0634 143.701 46.5567 145.091C49.3089 146.626 51.5664 145.164 53.9624 144.179C55.6792 143.473 55.4653 142.032 55.4678 140.661C55.4806 135.7 55.4666 130.744 55.4832 125.783C55.4858 124.559 55.3589 123.064 57.1655 123.124C58.776 123.177 59.4769 124.134 59.45 125.889C59.3334 134.098 59.5653 142.319 59.2321 150.516C58.9797 156.715 54.6068 160.501 48.3159 160.779C47.3742 160.819 46.3876 160.906 46.0353 159.737C45.4984 157.938 46.9552 158.278 47.9123 157.972C54.8323 155.771 55.7369 154.456 55.2423 146.945V146.945ZM84.4856 125.645C86.3165 124.78 87.3684 123.988 88.5254 123.774C95.0175 122.573 99.9925 123.031 99.9797 131.775C99.9708 136.279 99.9823 140.784 99.9708 145.286C99.9682 146.547 100.049 147.774 98.1693 147.883C96.1872 148.001 95.7516 146.867 95.7606 145.313C95.7836 140.973 95.9015 136.634 95.8977 132.296C95.8951 128.926 95.2071 125.943 90.9213 125.953C87.1621 125.96 84.4997 128.766 84.4805 132.638C84.4589 136.829 84.4602 141.02 84.4843 145.212C84.4881 146.701 84.5202 148.006 82.3677 147.883C80.4291 147.768 80.6675 146.461 80.6675 145.258C80.6546 134.239 80.7085 123.209 80.6149 112.182C80.5983 110.25 81.3606 109.051 83.0749 108.969C85.4939 108.858 84.3856 110.973 84.4215 112.034C84.5791 116.353 84.4856 120.682 84.4856 125.645V125.645ZM104.973 135.524C104.728 126.921 108.809 122.327 116.197 122.594C119.904 122.73 122.686 124.375 124.481 127.578C127.652 133.244 127.223 138.912 123.792 144.218C121.434 147.861 117.808 149.58 113.388 148.642C109.029 147.719 105.616 143.795 104.998 139.221C104.834 138.01 104.973 136.756 104.973 135.524ZM122.039 135.725C121.844 134.224 121.879 132.13 121.254 130.262C120.399 127.7 118.841 125.637 115.662 125.496C112.455 125.358 110.855 127.232 109.785 129.827C108.105 133.9 108.214 137.989 110.034 141.989C111.202 144.566 113.006 146.452 116.132 145.929C119.211 145.416 121.028 143.398 121.657 140.403C121.943 139.046 121.897 137.626 122.039 135.727V135.725ZM131.017 136.872C131.017 135.319 130.987 133.769 131.022 132.224C131.094 129.245 130.144 125.944 134.161 124.422C138.761 122.685 143.319 121.383 147.95 124.072C149.682 125.08 150.32 126.909 150.338 128.852C150.385 134.272 150.314 139.696 150.387 145.117C150.412 147.008 149.915 147.954 147.79 147.902C145.46 147.847 145.951 146.259 145.966 144.99C146.021 140.66 146.323 136.333 146.241 132.009C146.133 126.563 143.145 124.343 138.055 125.679C135.943 126.235 134.623 127.26 134.727 129.874C134.934 134.976 134.775 140.096 134.794 145.207C134.799 146.688 134.821 148 132.684 147.876C130.726 147.763 131.046 146.408 131.031 145.234C130.995 142.446 131.021 139.656 131.017 136.872V136.872ZM75.1952 124.798C74.8749 125.177 74.6059 125.771 74.324 125.777C69.2451 125.847 70.6545 129.638 70.5238 132.451C70.3995 135.071 70.5238 137.704 70.4866 140.332C70.4482 142.943 70.675 145.369 73.8525 146.063C74.7635 146.26 75.1786 146.785 74.989 147.695C74.7801 148.699 73.9793 148.66 73.1862 148.649C69.5347 148.585 66.8274 146.004 66.7198 142.224C66.6096 138.362 66.7595 134.492 66.6685 130.634C66.6211 128.802 67.5731 126.463 64.6185 125.737C64.2944 125.659 64.179 124.74 63.9676 124.216C67.9088 122.98 66.2739 119.58 66.8146 117.001C67.0708 115.78 68.2304 115.446 69.3258 115.342C70.4341 115.237 70.4431 116.134 70.479 116.883C70.625 119.856 69.0862 123.834 74.5585 123.618C74.7417 123.611 74.9556 124.338 75.1952 124.796V124.798Z" fill="#386F9F"/>
</svg>
