<svg width="162" height="809" viewBox="0 0 162 809" fill="none" xmlns="http://www.w3.org/2000/svg">
<path opacity="0.24" d="M-192.244 588.145C-171.999 626.592 -161.101 669.16 -143.153 708.709C-125.206 748.259 -97.617 786.473 -56.7541 802.842C-45.5419 807.37 -33.1907 810.079 -21.0752 808.589C6.41547 805.203 26.4837 781.713 40.1308 758.03C69.9582 706.329 82.6039 646.56 110.507 593.814C122.544 571.079 137.369 549.718 147.443 526.092C172.007 468.471 165.115 398.834 129.554 347.036C115.259 326.178 96.742 308.106 85.0388 285.758C66.7968 250.929 67.1306 209.774 68.3087 170.553C69.4869 131.333 70.7633 90.4285 54.0529 54.8069C37.3425 19.1852 -3.55972 -8.79352 -41.6932 2.56439C-65.5315 9.64612 -82.9292 30.1368 -94.4163 51.9239C-105.903 73.711 -112.815 97.5878 -124.204 119.414C-157.036 182.24 -224.467 224.092 -249.876 290.15C-270.415 343.186 -259.557 401.426 -241.177 453.475C-233.323 475.495 -234.737 497.224 -227.628 519.262C-219.734 543.797 -204.32 565.449 -192.244 588.145Z" fill="#37B6FF"/>
</svg>
