<svg width="56" height="56" viewBox="0 0 56 56" fill="none" xmlns="http://www.w3.org/2000/svg">
<path fill-rule="evenodd" clip-rule="evenodd" d="M19.4136 27.9716V42.9249L24.6923 42.9131C30.1556 42.8991 30.1162 42.9008 30.9164 42.7744C34.9684 42.1387 37.3335 39.348 37.5421 34.9596C37.7403 30.7947 35.6653 27.794 32.1129 27.1054C31.9847 27.08 32.0254 27.0441 32.2634 26.9754C34.6372 26.2938 36.3526 23.5526 36.3526 20.4455C36.3526 16.8039 34.4132 14.0832 31.2498 13.2852C30.1836 13.017 30.2877 13.0205 24.4587 13.0205H19.4144V27.972L19.4136 27.9716ZM29.0505 16.9666C31.3031 17.3477 32.4039 18.6225 32.4739 20.9346C32.5456 23.3544 31.4414 24.9267 29.2815 25.4823C28.5741 25.6634 28.1209 25.6892 25.5099 25.6892H23.2866V21.3196C23.2866 18.9165 23.2954 16.9413 23.3037 16.9294C23.3326 16.8936 28.8248 16.9294 29.051 16.9666H29.0505ZM29.4933 29.4144C32.1611 29.8095 33.4753 31.2414 33.5899 33.8816C33.7111 36.6881 32.368 38.4652 29.7978 38.8956C29.2233 38.9932 28.9447 39.0002 26.1286 39.0002L23.2866 39.0019V29.3431L26.2209 29.3532C28.8082 29.3637 29.1958 29.3707 29.4933 29.4144" fill="#F6F1FB"/>
<path fill-rule="evenodd" clip-rule="evenodd" d="M36.6207 0.254617C36.5301 0.392863 36.4361 0.548608 36.4089 0.598044C36.3818 0.64748 36.2943 0.779163 36.2156 0.890285C36.1368 1.00141 36.0721 1.10728 36.0721 1.12653C36.0721 1.1449 36.0327 1.2114 35.9846 1.27484C35.8533 1.44895 35.7234 1.65589 35.7234 1.69176C35.7234 1.71057 35.7028 1.7412 35.681 1.76176C35.6569 1.78407 35.5182 1.991 35.3716 2.22506C35.226 2.45911 35.0877 2.66604 35.0654 2.68792C35.0418 2.70848 35.023 2.73954 35.023 2.75791C35.023 2.79423 34.8655 3.04665 34.8213 3.08122C34.806 3.09303 34.746 3.19409 34.6861 3.30652C34.6262 3.41939 34.5697 3.51345 34.5614 3.51345C34.5531 3.51345 34.4967 3.59395 34.4402 3.68932C34.3821 3.78557 34.2609 3.98025 34.1716 4.12025C33.9651 4.44311 33.9888 4.40549 33.8676 4.60586C33.8127 4.69501 33.7547 4.78213 33.6935 4.86704C33.6541 4.91647 33.6235 4.97116 33.6235 4.98822C33.6217 5.00572 33.543 5.12996 33.4471 5.2669C33.3513 5.40383 33.273 5.53026 33.273 5.54689C33.273 5.56614 33.2389 5.62389 33.196 5.68032C33.0731 5.83957 32.9226 6.07712 32.9226 6.113C32.9226 6.13181 32.9156 6.14537 32.9051 6.14537C32.895 6.14537 32.8097 6.27355 32.7126 6.42711C32.6164 6.58286 32.4851 6.78804 32.4217 6.88341C32.3569 6.97966 32.2576 7.13803 32.1999 7.23909C32.1468 7.33131 32.0891 7.42082 32.0271 7.50727C31.9777 7.5742 31.9338 7.64501 31.8958 7.71901C31.8597 7.78873 31.8184 7.8557 31.7724 7.91938C31.7401 7.95875 31.6683 8.06812 31.6119 8.15824C31.4273 8.46755 31.2326 8.76329 31.2033 8.78735C31.1862 8.80091 31.1727 8.82497 31.1727 8.84029C31.1727 8.87616 31.034 9.0984 30.911 9.25896C30.8629 9.32371 30.8222 9.38889 30.8222 9.40596C30.8222 9.42302 30.7487 9.54245 30.6582 9.67063C30.5895 9.76592 30.5257 9.86463 30.467 9.96638C30.4324 10.0416 29.8943 10.8877 29.8549 10.9288C29.8215 10.9749 29.7924 11.024 29.7679 11.0754C29.716 11.1724 29.6572 11.2655 29.592 11.3541C29.5286 11.4416 29.4498 11.5658 29.4175 11.631C29.3679 11.7225 29.312 11.8104 29.2499 11.8939C29.1922 11.9744 29.1423 12.0479 29.1423 12.058C29.1423 12.0667 28.2931 12.0685 27.2541 12.0615L25.3641 12.0479L25.3073 12.1315C25.2749 12.1779 25.2307 12.2444 25.2067 12.2802L25.1642 12.3437L22.9134 12.3725C21.5633 12.3914 20.6065 12.4154 20.5207 12.4338L20.1721 12.5112C19.9415 12.5624 19.564 12.7313 19.4511 12.8358C19.41 12.8717 19.3417 12.9264 19.2971 12.9588C19.1623 13.0507 18.783 13.6115 18.783 13.7174C18.783 13.7379 18.759 13.8167 18.7284 13.8919C18.6977 13.9689 18.6461 14.1483 18.6137 14.2936C18.4562 14.9992 18.458 14.9769 18.4562 19.1965V22.9562L18.2244 23.2843V29.3129L18.0874 29.5268C18.0122 29.6449 17.9334 29.7591 17.9129 29.7814C17.891 29.8033 17.8735 29.8344 17.8735 29.8497C17.8735 29.8803 17.7576 30.0597 17.6071 30.2666C17.5611 30.3301 17.5235 30.3966 17.5235 30.4136C17.5235 30.4324 17.4859 30.4994 17.4395 30.5624C17.286 30.7724 17.1727 30.9487 17.1727 30.9793C17.1727 30.9968 17.1613 31.0222 17.1438 31.034C17.1132 31.058 16.9097 31.3726 16.7369 31.6596C16.6896 31.7404 16.6377 31.8186 16.5816 31.8936C16.5281 31.968 16.4801 32.0462 16.4381 32.1277C16.39 32.2152 16.32 32.3259 16.2806 32.374C16.2256 32.4486 16.1766 32.5275 16.1341 32.6098C16.1017 32.6767 16.0627 32.7401 16.0177 32.7992C15.9595 32.8592 15.7736 33.1702 15.7736 33.2061C15.7736 33.2236 15.7648 33.2367 15.753 33.2367C15.7425 33.2367 15.6708 33.336 15.5955 33.4572C15.5207 33.5771 15.4503 33.6759 15.442 33.6759C15.4315 33.6759 15.4231 33.6913 15.4231 33.7083C15.4231 33.7459 15.2215 34.0671 15.1344 34.1721C15.1003 34.211 15.0732 34.2569 15.0732 34.274C15.0732 34.2911 14.9957 34.4179 14.8982 34.5544C14.8028 34.6914 14.724 34.8178 14.724 34.8344C14.724 34.8537 14.6952 34.9044 14.6593 34.9525C14.6064 35.0225 14.5364 35.1288 14.3552 35.4176C14.3447 35.4329 14.2747 35.544 14.1977 35.6617C14.1208 35.7794 14.0424 35.9063 14.0236 35.9404C13.9654 36.048 13.8031 36.2943 13.7826 36.3044C13.7721 36.3114 13.7174 36.4067 13.6596 36.5179C13.5997 36.6272 13.5398 36.7279 13.5245 36.7419C13.4886 36.7694 13.3232 37.0258 13.3232 37.0529C13.3232 37.0647 13.2628 37.1623 13.1876 37.2699C13.1145 37.3775 12.9758 37.5893 12.88 37.7433C12.7864 37.8955 12.6959 38.032 12.6788 38.0443C12.6613 38.0561 12.6324 38.109 12.6119 38.1602C12.593 38.2131 12.523 38.3277 12.4583 38.4166C12.3931 38.504 12.3131 38.63 12.2802 38.6935C12.2334 38.7809 12.1803 38.8648 12.1214 38.9446C12.0611 39.0285 12.0057 39.1158 11.9556 39.2062C11.9198 39.2762 11.8668 39.3615 11.841 39.3943C11.7435 39.5392 11.649 39.6861 11.5575 39.8349C11.4276 40.0436 11.2994 40.24 11.2723 40.2706C11.2465 40.3012 11.2224 40.3406 11.2224 40.3599C11.2224 40.3769 11.1437 40.5034 11.0483 40.6381C10.9525 40.775 10.8737 40.9015 10.8737 40.9203C10.8737 40.9373 10.8396 40.9973 10.7972 41.0515C10.6703 41.2178 10.5237 41.4496 10.5237 41.4842C10.5224 41.4946 10.519 41.5047 10.5138 41.5138C10.5085 41.5229 10.5015 41.5308 10.4931 41.5371C10.4638 41.5612 10.2827 41.8394 10.0845 42.1658C10.037 42.2474 9.98498 42.3262 9.92876 42.4021C9.89813 42.4392 9.8347 42.542 9.78876 42.6295C9.74282 42.717 9.66758 42.8343 9.62295 42.8907C9.56733 42.9684 9.5155 43.0487 9.46765 43.1313C9.42652 43.2066 9.33071 43.3571 9.25765 43.4665C9.18459 43.5758 9.12378 43.6817 9.12378 43.7027C9.12378 43.7237 9.11372 43.7416 9.10366 43.7416C9.09316 43.7416 9.02141 43.8392 8.94616 43.9604C8.87091 44.0798 8.80092 44.1791 8.79085 44.1791C8.7821 44.1791 8.77335 44.1927 8.77335 44.2097C8.77335 44.2456 8.54805 44.6048 8.4728 44.6884C8.44568 44.719 8.42337 44.7584 8.42337 44.7772C8.42337 44.7947 8.34462 44.9207 8.24881 45.0572C8.153 45.1937 8.07469 45.3205 8.07469 45.3393C8.07294 45.3568 8.04406 45.4093 8.00644 45.4557C7.93294 45.5498 7.40665 46.3753 7.34846 46.4912C7.32659 46.5306 7.24565 46.6553 7.16734 46.7669C7.08859 46.8775 7.02385 46.9817 7.02385 47.0005C7.02385 47.018 6.98447 47.0862 6.93504 47.1492C6.8051 47.322 6.67342 47.5303 6.67342 47.5679C6.67342 47.5854 6.65461 47.6173 6.63055 47.6379C6.60867 47.6584 6.50761 47.8072 6.40699 47.9678C6.19481 48.3099 6.19131 48.3134 6.19481 48.1611C6.19656 48.0977 6.18956 48.0517 6.1795 48.0583C6.14012 48.0889 6.16594 49.4119 6.20531 49.3966C6.23418 49.3848 6.23593 49.3878 6.21012 49.4101C6.17775 49.4395 6.1795 49.506 6.21887 49.8853C6.23068 50.0034 6.27137 50.2681 6.29412 50.3827C6.29893 50.4063 6.30287 50.4627 6.30287 50.5091C6.30287 50.5533 6.31949 50.5979 6.33831 50.608C6.35887 50.6167 6.36412 50.632 6.35055 50.6421C6.33831 50.6526 6.33306 50.6968 6.34006 50.7397C6.34705 50.7843 6.36237 50.8132 6.37243 50.8049C6.38468 50.7961 6.38818 50.8079 6.37943 50.8302C6.36587 50.8783 6.47524 51.297 6.52817 51.3994C6.54699 51.4353 6.5553 51.4641 6.54699 51.4641C6.53999 51.4641 6.55705 51.5276 6.58811 51.6041C6.61698 51.6798 6.65636 51.7993 6.67342 51.8675C6.69048 51.9362 6.71454 51.9909 6.72636 51.9909C6.73642 51.9909 6.74167 52.0009 6.73511 52.0127C6.72986 52.0267 6.77098 52.1344 6.82698 52.2556C6.88385 52.375 6.9521 52.5342 6.97922 52.6055C7.00635 52.6769 7.06978 52.8059 7.11922 52.8912C7.35196 53.2845 7.4049 53.3663 7.42546 53.3663C7.43727 53.3663 7.44077 53.3781 7.43421 53.3921C7.42721 53.4075 7.47314 53.4893 7.53789 53.575C7.60308 53.6621 7.68183 53.7749 7.7142 53.8279C7.89182 54.1166 8.63161 54.8516 8.99603 55.0975C9.27603 55.2873 9.59233 55.4785 9.66933 55.5061C9.7087 55.5192 9.86576 55.5848 10.0176 55.6496C10.1681 55.7143 10.4209 55.8049 10.5767 55.8478L10.8619 55.9265H45.1381L45.4303 55.846C45.6586 55.7787 45.8828 55.6984 46.1019 55.6054C46.444 55.4597 46.5752 55.3845 47.0381 55.0787C47.4795 54.7847 48.1528 54.0619 48.5627 53.4398C48.6585 53.2928 49.0002 52.686 49.0002 52.6624C49.0002 52.6484 49.0501 52.5355 49.1113 52.4096C49.2618 52.0946 49.4294 51.6199 49.5781 51.0848C49.6516 50.8202 49.667 50.7449 49.7623 50.104L49.8258 49.6941L49.8275 47.2227C49.831 44.4766 49.8446 44.0562 49.9916 42.0297C50.0856 40.7287 50.125 40.387 50.3416 38.8851C50.4496 38.1296 50.7642 36.5949 50.9265 36.0274C50.986 35.8209 51.063 35.5388 51.1006 35.4005C51.1365 35.2636 51.1999 35.0588 51.2388 34.9477C51.28 34.8366 51.3452 34.652 51.3841 34.5391C51.6291 33.8282 51.9585 33.0954 52.2779 32.5551C52.5859 32.0371 52.6423 31.9518 52.9122 31.6119C53.4932 30.8804 54.1595 30.3607 54.8687 30.0837C55.2208 29.9455 55.5371 29.8519 55.7795 29.8103L56 29.7744V26.1674L55.7795 26.1315C55.419 26.072 54.7851 25.8533 54.4876 25.6853C54.4366 25.6548 54.384 25.6271 54.3301 25.6021C54.3236 25.6021 54.2453 25.5488 54.1547 25.4858C54.0641 25.4206 53.9801 25.3676 53.9683 25.3676C53.946 25.3676 53.6249 25.0907 53.3646 24.8448C53.1633 24.655 52.6764 24.0504 52.5377 23.8176C52.5028 23.7581 52.4663 23.6994 52.4284 23.6418C52.3977 23.6111 52.1309 23.1378 52.0031 22.8849C51.8133 22.5174 51.5481 21.8813 51.3845 21.4031C51.3367 21.2667 51.2882 21.1305 51.2388 20.9945C51.1995 20.8834 51.1365 20.68 51.1006 20.5417C51.063 20.4048 50.986 20.1213 50.9265 19.9144C50.7642 19.3487 50.4496 17.8144 50.342 17.0589C50.125 15.5618 50.0891 15.2337 49.9916 13.9129C49.8446 11.9101 49.831 11.4656 49.8275 8.73485C49.8258 6.31993 49.824 6.2718 49.7728 5.92706C49.7462 5.75186 49.7211 5.57642 49.6976 5.40077C49.6411 4.97509 49.3353 3.99775 49.1113 3.53445C49.0501 3.40758 49.0002 3.29383 49.0002 3.28158C49.0002 3.25577 48.659 2.64898 48.5627 2.50373C48.1594 1.89038 47.4537 1.12828 47.0503 0.87191C46.9873 0.832536 46.8299 0.730165 46.7034 0.644417C46.5752 0.559107 46.4387 0.48036 46.3994 0.466798C46.36 0.454986 46.1959 0.384988 46.0336 0.31324C45.8432 0.229922 45.648 0.157904 45.4491 0.0975595L45.1622 0.0157495L40.9737 0.00874973L36.7834 0L36.6211 0.255055L36.6207 0.254617ZM29.669 13.0209C30.4241 13.0703 31.2855 13.2278 31.7689 13.4055C32.8285 13.7948 33.5036 14.1964 34.2009 14.8562C36.5542 17.0812 37.0822 21.3572 35.3769 24.3562C34.6179 25.6909 33.4012 26.7247 32.2734 26.9964C31.9934 27.0633 31.9964 27.0664 32.451 27.1587C36.1355 27.9125 38.1794 31.7392 37.4033 36.4264C36.8171 39.9591 34.4092 42.3036 30.8546 42.8024C30.0378 42.9187 29.8221 42.9222 24.5417 42.9222H19.3911V12.9916H24.3076C27.2125 12.9916 29.407 13.0034 29.6686 13.0205L29.669 13.0209ZM23.3097 21.3025V25.6643L25.8012 25.652C28.4979 25.6398 28.4213 25.6433 29.207 25.4691C31.3586 24.9923 32.5057 23.4116 32.451 20.995C32.4029 18.951 31.5555 17.7003 29.8549 17.1635C29.2206 16.9635 28.833 16.943 25.7894 16.943L23.3097 16.9412V21.3025V21.3025ZM23.3097 34.1607V38.9748L26.3721 38.9647C29.7062 38.9542 29.5645 38.9595 30.2684 38.7819C32.4129 38.2416 33.5084 36.7668 33.5701 34.3335C33.6366 31.7099 32.4864 30.1004 30.1708 29.5706C29.2993 29.3706 28.8584 29.3483 25.8012 29.3483L23.3097 29.3466V34.1602V34.1607ZM5.62564 38.6685C5.62564 38.6992 5.6357 38.7438 5.6497 38.7674C5.66676 38.8002 5.66851 38.788 5.65626 38.7232C5.63745 38.6156 5.62389 38.5933 5.62564 38.6685ZM5.97957 41.6063C5.97957 41.6627 5.98438 41.685 5.99138 41.6574C5.99653 41.6234 5.99653 41.5887 5.99138 41.5546C5.98438 41.5258 5.97957 41.5498 5.97957 41.6063ZM6.00669 41.9532C6.01544 42.0079 6.02025 42.1032 6.02025 42.1649C6.02025 42.2284 6.03075 42.2778 6.04081 42.2778C6.06138 42.2778 6.03075 41.9003 6.00669 41.8727C5.99794 41.8626 5.99794 41.8985 6.00669 41.9532V41.9532ZM6.12962 43.6738C6.12087 43.6843 6.11431 43.725 6.11431 43.7661C6.11431 43.8584 6.14012 43.8313 6.14844 43.7285C6.15544 43.6484 6.15369 43.6432 6.12962 43.6738ZM6.13837 44.2776C6.13837 44.3371 6.14712 44.3847 6.15894 44.3847C6.169 44.3847 6.17425 44.3436 6.169 44.2929C6.15719 44.1607 6.13837 44.1507 6.13837 44.2771V44.2776ZM6.19962 45.3402C6.17775 45.3691 6.18081 45.5021 6.20487 45.4837C6.21712 45.475 6.22543 45.4356 6.22543 45.3949C6.22543 45.3144 6.22368 45.3109 6.19962 45.3402V45.3402ZM6.19962 45.5485C6.18431 45.5843 6.18781 45.8818 6.20487 45.8613C6.21712 45.8459 6.22675 45.5266 6.21537 45.5266C6.21187 45.5266 6.20662 45.5366 6.19962 45.5485ZM6.19962 45.9264C6.19087 45.9365 6.18431 45.9776 6.18431 46.0183C6.18431 46.1093 6.21187 46.08 6.22018 45.9811C6.22718 45.9024 6.22543 45.8954 6.19962 45.9264ZM6.18431 46.234C6.18431 46.3005 6.19306 46.3451 6.20181 46.3329C6.22543 46.3022 6.22718 46.1111 6.20312 46.1111C6.19306 46.1111 6.18431 46.1657 6.18431 46.2336V46.234ZM6.18431 46.4663C6.18431 46.5175 6.19131 46.5499 6.19962 46.5398C6.22718 46.5057 6.23243 46.4086 6.20662 46.3893C6.19481 46.3792 6.18475 46.4116 6.18475 46.4663H6.18431ZM6.18475 46.986C6.18475 47.1378 6.19131 47.2525 6.19962 47.242C6.22368 47.2113 6.22893 46.8045 6.20662 46.755C6.19306 46.7279 6.18606 46.815 6.18475 46.9856V46.986ZM6.18475 47.4283C6.18475 47.543 6.21843 47.543 6.22193 47.4283C6.22368 47.3789 6.21537 47.3395 6.20487 47.3395C6.19306 47.3395 6.18431 47.3789 6.18431 47.4283H6.18475ZM6.18431 47.637C6.18431 47.7446 6.19962 47.7394 6.21712 47.6248C6.22368 47.5806 6.21843 47.5447 6.20662 47.5447C6.19481 47.5447 6.18475 47.5871 6.18475 47.6366L6.18431 47.637ZM6.19656 47.8404C6.20837 47.9629 6.23068 47.9857 6.23068 47.8728C6.23068 47.8234 6.22018 47.7753 6.20837 47.7652C6.19656 47.7547 6.19087 47.7858 6.19656 47.8404Z" fill="#CFEDFF"/>
<path fill-rule="evenodd" clip-rule="evenodd" d="M10.7801 0.0601388C10.1597 0.193135 9.53414 0.467001 9.06078 0.81524C8.96891 0.882176 8.88666 0.938174 8.87791 0.938174C8.86085 0.938174 8.35511 1.37741 8.29168 1.44916C7.86119 1.93127 7.77545 2.03364 7.5812 2.31232C7.44777 2.507 7.08378 3.11729 7.04266 3.21967C7.00194 3.3132 6.95979 3.4061 6.91622 3.49834C6.64104 4.07583 6.39343 4.89305 6.28887 5.55584C6.17468 6.28207 6.17643 6.24138 6.17293 8.91049C6.16943 11.3849 6.15543 11.944 6.07887 13.036C6.07187 13.1318 6.04475 13.5076 6.01762 13.8698C5.99138 14.2321 5.966 14.6066 5.959 14.7037C5.94369 14.9859 5.81901 16.0266 5.72713 16.6347C5.68841 16.8809 5.65341 17.1277 5.62214 17.375C5.59151 17.6278 5.2704 19.2137 5.17634 19.5742C5.03984 20.104 4.79354 20.9396 4.69117 21.2284C4.65904 21.3156 4.62841 21.4034 4.59929 21.4917C4.27118 22.5802 3.3599 24.1455 2.64898 24.8446C2.27493 25.2104 1.44239 25.8071 1.3024 25.8071C1.28358 25.8071 1.20484 25.8342 1.12959 25.8666C0.890722 25.9707 0.465048 26.0971 0.227493 26.1334L0 26.1689L0.00524984 27.9687L0.0122496 29.7681L0.268617 29.8175C1.41352 30.0363 2.54661 30.78 3.20634 31.742C3.24571 31.7998 3.28508 31.8527 3.2934 31.8562C3.31527 31.8702 3.63507 32.3672 3.74795 32.5654C3.92907 32.8817 4.17362 33.3738 4.28299 33.6473C4.34424 33.7995 4.41249 33.9583 4.43305 33.9995C4.5153 34.153 4.92741 35.3889 4.90466 35.416C4.8981 35.4248 4.90291 35.4313 4.91516 35.4313C4.92872 35.4313 4.93922 35.4488 4.94053 35.469C4.94228 35.4895 5.00047 35.717 5.07047 35.9765C5.18509 36.3934 5.24677 36.6414 5.26209 36.7355L5.31852 36.9984C5.37671 37.2583 5.37496 37.2465 5.42439 37.5094C5.44496 37.614 5.47252 37.7386 5.48433 37.7881C5.53376 37.9933 5.64314 38.6184 5.6602 38.8118C5.6672 38.8748 5.67726 38.9483 5.68426 38.9724C5.69082 38.9964 5.70132 39.0682 5.70788 39.1329C5.71445 39.1977 5.73545 39.3416 5.75251 39.4545C5.81069 39.8268 5.92313 40.7376 5.94063 40.9616C5.95944 41.2298 5.96425 41.2862 5.98306 41.4743C5.99006 41.5544 6.00188 41.6979 6.00887 41.792C6.01587 41.886 6.02594 41.9731 6.03294 41.9871C6.03775 41.9989 6.04475 42.1218 6.04825 42.2605C6.05 42.3987 6.06137 42.5116 6.07362 42.5116C6.08587 42.5116 6.08893 42.5304 6.08237 42.5527C6.07581 42.5751 6.08237 42.6092 6.09768 42.6293C6.11825 42.6586 6.11825 42.6621 6.09593 42.6468C6.06006 42.6206 6.05656 42.698 6.09068 42.7763C6.10643 42.8122 6.10643 42.8362 6.09068 42.848C6.07537 42.8603 6.07537 42.8874 6.08587 42.9167C6.09768 42.9439 6.10293 43.0414 6.099 43.1355C6.09593 43.2273 6.099 43.2973 6.10775 43.2908C6.11825 43.2838 6.1235 43.3695 6.12175 43.4807C6.12 43.5918 6.12481 43.6771 6.13356 43.6701C6.14231 43.6653 6.15106 43.7795 6.15237 43.9265C6.15368 44.0735 6.16243 44.4121 6.17118 44.6767C6.17818 44.9436 6.18474 45.203 6.18474 45.256C6.18649 45.3089 6.19524 45.3448 6.20531 45.3365C6.21581 45.3295 6.22412 45.3553 6.22412 45.3947C6.22412 45.4353 6.21537 45.4747 6.20356 45.4835C6.19724 45.4894 6.19216 45.4965 6.18863 45.5044C6.1851 45.5122 6.18318 45.5208 6.18299 45.5294C6.18299 45.5447 6.19524 45.5482 6.21056 45.5382C6.22587 45.5246 6.23112 45.5294 6.22062 45.55C6.19699 45.5981 6.18824 45.7875 6.21056 45.7705C6.23943 45.7486 6.23243 45.8317 6.20356 45.8698C6.18299 45.8951 6.18299 45.914 6.20531 45.9463C6.22587 45.9791 6.22718 46.0063 6.20706 46.0509C6.19349 46.0833 6.19174 46.1104 6.20181 46.1104C6.22587 46.1104 6.22587 46.2867 6.20006 46.3361C6.18999 46.3549 6.19349 46.379 6.20531 46.3891C6.23112 46.4079 6.22718 46.4849 6.19831 46.5431C6.18824 46.5649 6.19349 46.5789 6.21056 46.5789C6.23112 46.5807 6.23243 46.5877 6.21712 46.6008C6.20399 46.6131 6.19699 46.6555 6.20181 46.6971C6.21581 46.8095 6.21406 47.2006 6.19831 47.2745C6.19174 47.3104 6.19524 47.3393 6.20706 47.3393C6.23418 47.3393 6.22412 47.4946 6.19524 47.5222C6.17949 47.5357 6.18124 47.544 6.19831 47.544C6.22412 47.544 6.22062 47.6674 6.19349 47.7234C6.18824 47.7356 6.19349 47.7527 6.20706 47.7628C6.21887 47.7733 6.22893 47.8245 6.22893 47.8756C6.22893 47.9478 6.22412 47.9579 6.20531 47.9255C6.18999 47.8949 6.18474 47.9321 6.19174 48.0568C6.19699 48.1613 6.18999 48.2484 6.17424 48.2742C6.15412 48.3083 6.15587 48.3101 6.18649 48.2873C6.20706 48.2742 6.30637 48.1307 6.40699 47.968C6.5063 47.8074 6.60692 47.6587 6.63098 47.6385C6.65504 47.6184 6.67342 47.5852 6.67342 47.5685C6.67342 47.5305 6.8051 47.3222 6.93503 47.1494C6.98316 47.0864 7.02384 47.0182 7.02384 47.0007C7.02384 46.9823 7.08728 46.8782 7.16559 46.7666C7.2439 46.6551 7.32658 46.5308 7.34671 46.4914C7.40664 46.3755 7.93294 45.55 8.00644 45.4559C8.04406 45.41 8.07337 45.357 8.07337 45.34C8.07337 45.3212 8.15212 45.1947 8.24924 45.0578C8.34505 44.9213 8.42336 44.7949 8.42336 44.7778C8.42336 44.7586 8.44567 44.7196 8.47324 44.6886C8.54848 44.605 8.77379 44.2463 8.77379 44.2104C8.77379 44.1929 8.78079 44.1798 8.79129 44.1798C8.80179 44.1798 8.87135 44.0804 8.9466 43.961C9.02184 43.8394 9.09184 43.7423 9.10409 43.7423C9.11415 43.7423 9.12247 43.723 9.12247 43.7029C9.12247 43.6828 9.18371 43.576 9.25765 43.4667C9.33115 43.3573 9.42477 43.2072 9.46764 43.132C9.50877 43.0567 9.57876 42.9491 9.62339 42.8909C9.66757 42.8345 9.74151 42.7164 9.78876 42.6293C9.83004 42.5503 9.87682 42.4743 9.92875 42.4018C9.98376 42.3254 10.0357 42.2469 10.0845 42.1664C10.2827 41.8401 10.4638 41.5614 10.4931 41.5373C10.5014 41.5311 10.5084 41.5232 10.5137 41.5142C10.5189 41.5052 10.5224 41.4952 10.5237 41.4848C10.5237 41.4498 10.6707 41.218 10.7972 41.0517C10.8383 40.9975 10.8724 40.938 10.8724 40.9205C10.8724 40.9017 10.9512 40.7752 11.0483 40.6383C11.1445 40.5036 11.2228 40.3771 11.2228 40.3601C11.2228 40.3413 11.2447 40.3019 11.2723 40.2713C11.2998 40.2406 11.428 40.0438 11.5575 39.8355C11.6874 39.6268 11.8139 39.4287 11.8414 39.3945C11.8836 39.3343 11.9219 39.2715 11.9561 39.2064C11.9937 39.1347 12.0667 39.0183 12.1214 38.9448C12.1761 38.8713 12.2466 38.7589 12.2807 38.6937C12.3131 38.6307 12.3936 38.5042 12.4583 38.4168C12.523 38.3279 12.5935 38.2138 12.6123 38.1604C12.6324 38.1092 12.6617 38.0563 12.6788 38.0445C12.6959 38.0322 12.7864 37.8957 12.88 37.7435C12.9745 37.5899 13.1128 37.3777 13.188 37.2701C13.2615 37.1625 13.3232 37.0654 13.3232 37.0531C13.3232 37.026 13.4886 36.7696 13.5245 36.7425C13.5402 36.7285 13.5997 36.6279 13.6579 36.5185C13.7161 36.4074 13.7725 36.3116 13.7826 36.3046C13.8014 36.2945 13.9654 36.0482 14.0236 35.9406C14.1323 35.7651 14.2429 35.5909 14.3552 35.4178C14.5364 35.129 14.6064 35.0232 14.6593 34.9527C14.6934 34.905 14.7245 34.8539 14.7245 34.8346C14.7245 34.818 14.8032 34.6916 14.8986 34.5546C14.994 34.4177 15.0732 34.2917 15.0732 34.2746C15.0732 34.2576 15.1003 34.2112 15.1344 34.1718C15.2219 34.0677 15.4231 33.7466 15.4231 33.709C15.4231 33.6915 15.4319 33.6762 15.4406 33.6762C15.4507 33.6762 15.5207 33.5773 15.596 33.4574C15.6712 33.3362 15.7412 33.2373 15.7534 33.2373C15.7635 33.2373 15.7736 33.2233 15.7736 33.2067C15.7736 33.1704 15.9599 32.8594 16.0181 32.7999C16.04 32.7758 16.0916 32.6918 16.1341 32.61C16.1767 32.5275 16.2259 32.4485 16.2811 32.3738C16.3204 32.3265 16.3904 32.2154 16.4385 32.1279C16.4805 32.0464 16.5285 31.9682 16.582 31.8938C16.6127 31.8545 16.6827 31.7486 16.7374 31.6598C16.908 31.3728 17.1136 31.0582 17.1442 31.0342C17.1605 31.0203 17.1709 31.0007 17.1731 30.9795C17.1731 30.9489 17.2842 30.773 17.4382 30.5626C17.4841 30.4996 17.5235 30.4326 17.5235 30.4138C17.5235 30.3968 17.5611 30.3303 17.6075 30.2668C17.7576 30.0603 17.8722 29.881 17.8722 29.8499C17.8722 29.8346 17.891 29.804 17.9116 29.7816C17.9334 29.7598 18.0122 29.6452 18.0874 29.527L18.2226 29.3135V23.2845L18.3407 23.1205L18.4567 22.9564V19.1967C18.4567 14.9771 18.4567 14.9994 18.6142 14.2938C18.6439 14.1576 18.682 14.0235 18.7284 13.8921C18.7572 13.8169 18.783 13.7381 18.783 13.718C18.783 13.6117 19.1623 13.0513 19.2958 12.959C19.3417 12.9266 19.4104 12.8719 19.4498 12.8361C19.564 12.7319 19.9398 12.5626 20.1707 12.5114L20.5207 12.4344C20.6047 12.4156 21.5633 12.3916 22.9138 12.3732L25.1642 12.3439L25.2071 12.2804C25.229 12.2446 25.2753 12.1781 25.306 12.1317L25.3641 12.0486L27.2523 12.0617C28.2936 12.0687 29.1423 12.067 29.1423 12.0586C29.1423 12.0481 29.1904 11.9746 29.2503 11.8946C29.3085 11.8141 29.3838 11.696 29.4161 11.6312C29.4694 11.5356 29.5282 11.4432 29.592 11.3543C29.6572 11.2672 29.7355 11.1408 29.7679 11.076C29.8007 11.0109 29.8396 10.9461 29.8554 10.929C29.8948 10.8879 30.4311 10.0418 30.4652 9.96658C30.4805 9.93245 30.568 9.80077 30.6586 9.67128C30.7492 9.54309 30.8227 9.42322 30.8227 9.40616C30.8227 9.3891 30.862 9.32435 30.9115 9.25916C31.034 9.09861 31.1727 8.87636 31.1727 8.84049C31.1727 8.82518 31.1867 8.80112 31.202 8.78799C31.2326 8.76349 31.4255 8.46819 31.6119 8.15888C31.6666 8.06833 31.7388 7.95895 31.7711 7.91958C31.8035 7.87846 31.8599 7.7879 31.8958 7.71965C31.9332 7.6452 31.9772 7.5742 32.0271 7.50747C32.0629 7.45935 32.1417 7.3386 32.1999 7.23929C32.2563 7.13867 32.3574 6.97942 32.4204 6.88361C32.4851 6.78824 32.6172 6.58306 32.7126 6.42731C32.8084 6.27376 32.8955 6.14557 32.9055 6.14557C32.9143 6.14557 32.923 6.13201 32.923 6.1132C32.923 6.07733 33.0731 5.83977 33.196 5.68053C33.2371 5.62453 33.273 5.56634 33.273 5.54753C33.273 5.53003 33.3518 5.40403 33.4476 5.26754C33.5434 5.13104 33.6217 5.00548 33.6217 4.98842C33.6217 4.97136 33.6541 4.91667 33.6917 4.86724C33.7311 4.8178 33.8098 4.69968 33.8663 4.60562C33.9888 4.40569 33.9651 4.44375 34.1721 4.12045C34.2609 3.98045 34.3821 3.78533 34.4389 3.68996C34.4967 3.59372 34.5514 3.51366 34.5614 3.51366C34.5702 3.51366 34.6266 3.4196 34.6865 3.30716C34.7443 3.19429 34.806 3.09323 34.8213 3.08142C34.8642 3.0473 35.023 2.79443 35.023 2.75855C35.023 2.73974 35.0418 2.70868 35.0641 2.68856C35.0882 2.66624 35.2264 2.45931 35.3716 2.22526C35.5169 1.9912 35.6551 1.78427 35.6792 1.76196C35.7033 1.74184 35.7221 1.71077 35.7221 1.69196C35.7221 1.65609 35.852 1.4496 35.985 1.27504C36.0331 1.21204 36.0725 1.1451 36.0725 1.12629C36.0725 1.10748 36.1372 1.00161 36.216 0.890488C36.2803 0.801781 36.3402 0.709942 36.3954 0.615309C36.4159 0.575935 36.4859 0.463501 36.5507 0.367692C36.6159 0.270132 36.6929 0.148949 36.7213 0.0960127L36.7764 0.00195312L23.8994 0.00370307C11.6275 0.00720296 11.0124 0.0102654 10.7797 0.0601388" fill="#CFEDFF"/>
<path fill-rule="evenodd" clip-rule="evenodd" d="M19.3999 27.9562C19.3999 36.1797 19.4034 39.5396 19.4069 35.4224C19.4104 31.3052 19.41 24.5775 19.4069 20.4708C19.4034 16.3659 19.3999 19.7341 19.3999 27.9558V27.9562ZM29.6721 13.0401C29.701 13.0471 29.7491 13.0471 29.778 13.0401C29.8068 13.0331 29.7832 13.0283 29.7255 13.0283C29.6668 13.0283 29.6432 13.0331 29.6721 13.0401ZM34.9289 15.7215C34.9289 15.7267 34.963 15.7696 35.0042 15.8155L35.0812 15.9026L35.0112 15.8068C34.9477 15.718 34.9289 15.6974 34.9289 15.7215ZM23.3014 16.9333C23.2913 16.9534 25.1078 16.9534 27.5328 16.9333C28.0385 16.9281 27.2965 16.9228 25.8834 16.9176C24.4686 16.9141 23.3067 16.9211 23.3014 16.9329V16.9333ZM28.7971 16.9604C28.8212 16.9692 28.857 16.9692 28.8794 16.9604C28.9012 16.9534 28.8842 16.9469 28.8382 16.9469C28.7936 16.9469 28.7748 16.9534 28.7971 16.96V16.9604ZM31.6154 18.3018C31.6854 18.3893 31.7466 18.4623 31.7536 18.4623C31.7606 18.4623 31.7073 18.3893 31.639 18.3018C31.5967 18.2448 31.5505 18.1907 31.5008 18.1399C31.4938 18.1399 31.545 18.213 31.6154 18.3018ZM36.3595 20.4656C36.3595 20.5627 36.3626 20.5986 36.3696 20.5456C36.3748 20.4931 36.3748 20.4144 36.3678 20.3698C36.3626 20.3269 36.3591 20.3698 36.3591 20.4656H36.3595ZM32.4611 20.8313C32.4611 20.9048 32.4663 20.9337 32.4716 20.8978C32.4767 20.8542 32.4767 20.8102 32.4716 20.7666C32.4663 20.7303 32.4611 20.7591 32.4611 20.8313V20.8313ZM36.3337 21.0654C36.3337 21.1218 36.3389 21.1454 36.3437 21.1166C36.3506 21.0828 36.3506 21.048 36.3437 21.0142C36.3389 20.9866 36.3337 21.0089 36.3337 21.0654V21.0654ZM32.4611 21.446C32.4611 21.5182 32.4663 21.5488 32.4716 21.5116C32.4767 21.4677 32.4767 21.4234 32.4716 21.3795C32.4663 21.3436 32.4611 21.3747 32.4611 21.4464V21.446ZM34.5186 25.5203L34.4503 25.6161L34.5256 25.5286C34.5973 25.4486 34.6131 25.4249 34.5938 25.4249C34.5903 25.4249 34.5562 25.4674 34.5186 25.5203ZM28.4707 25.6209C28.4977 25.6278 28.526 25.6278 28.553 25.6209C28.5749 25.6126 28.5565 25.6078 28.5119 25.6078C28.4672 25.6078 28.4489 25.6126 28.4707 25.6209V25.6209ZM28.1803 25.6502C28.2148 25.6571 28.2503 25.6571 28.2848 25.6502C28.3137 25.6437 28.2896 25.6384 28.2319 25.6384C28.1741 25.6384 28.1514 25.6437 28.1803 25.6502V25.6502ZM24.4362 25.6809C25.075 25.6861 26.1162 25.6861 26.7466 25.6809C27.377 25.6778 26.8542 25.6721 25.5846 25.6721C24.3133 25.6721 23.7971 25.6778 24.4362 25.6809ZM35.9203 29.3164C36.0091 29.4288 36.0878 29.5211 36.0944 29.5211C36.0996 29.5211 36.0331 29.4288 35.9439 29.3159C35.8551 29.2031 35.7768 29.1108 35.7698 29.1108C35.7628 29.1108 35.831 29.2031 35.9203 29.3164V29.3164ZM28.693 29.3671C28.7354 29.3741 28.7989 29.3741 28.833 29.3671C28.8689 29.3606 28.8347 29.3553 28.7577 29.3553C28.679 29.3553 28.6519 29.3606 28.693 29.3671ZM29.1252 29.3947C29.1471 29.4034 29.1834 29.4034 29.2057 29.3947C29.2276 29.3877 29.2105 29.3811 29.1646 29.3811C29.12 29.3811 29.1012 29.3877 29.1252 29.3942V29.3947ZM32.6426 30.9994C32.7244 31.1035 32.7979 31.1888 32.8045 31.1888C32.8097 31.1888 32.748 31.1035 32.6645 30.9994C32.6149 30.9323 32.5613 30.8683 32.5039 30.8078C32.4969 30.8078 32.5586 30.8935 32.6422 30.9994H32.6426ZM33.5836 34.1436C33.5836 34.3282 33.5871 34.4052 33.5924 34.3112C33.5975 34.1995 33.5975 34.0877 33.5924 33.976C33.5871 33.8842 33.5836 33.959 33.5836 34.1436V34.1436ZM37.5486 34.0701C37.5486 34.1677 37.5538 34.2035 37.5586 34.1506C37.5639 34.0977 37.5639 34.0194 37.5586 33.9747C37.5538 33.9319 37.5486 33.9747 37.5486 34.0701ZM37.5486 34.8309C37.5486 34.928 37.5538 34.9639 37.5586 34.9109C37.5639 34.8585 37.5639 34.7797 37.5586 34.7351C37.5538 34.6922 37.5486 34.7351 37.5486 34.8309ZM32.6286 37.3701L32.514 37.5223L32.6356 37.3788C32.7039 37.2983 32.7581 37.2283 32.7581 37.2248C32.7581 37.2029 32.7362 37.2266 32.6286 37.3701V37.3701ZM36.8582 38.2844C36.8364 38.3408 36.8241 38.3868 36.8294 38.3868C36.8464 38.3868 36.9164 38.2074 36.9059 38.1943C36.9011 38.1868 36.8788 38.228 36.8578 38.2844H36.8582ZM28.8912 38.9918C28.927 38.9988 28.983 38.9988 29.0194 38.9918C29.0557 38.9848 29.0259 38.98 28.9559 38.98C28.8842 38.98 28.8553 38.9853 28.8912 38.9918V38.9918ZM35.8262 40.0908L35.7339 40.2137L35.8332 40.0995C35.9251 39.9915 35.9426 39.9661 35.9251 39.9661C35.922 39.9661 35.8756 40.0225 35.8262 40.0908ZM30.0807 42.8833C30.1075 42.8901 30.1357 42.8901 30.1625 42.8833C30.1848 42.8745 30.166 42.8697 30.1218 42.8697C30.0772 42.8697 30.0584 42.8745 30.0807 42.8828V42.8833ZM29.3816 42.9139C29.4568 42.9191 29.5715 42.9191 29.638 42.9139C29.7062 42.9069 29.645 42.9021 29.5032 42.9021C29.3632 42.9021 29.3081 42.9069 29.3816 42.9139" fill="#CFEDFF"/>
<path fill-rule="evenodd" clip-rule="evenodd" d="M21.8795 13.0138C23.2432 13.0173 25.4752 13.0173 26.8389 13.0138C28.2008 13.0103 27.0865 13.0068 24.3592 13.0068C21.6319 13.0068 20.5159 13.0103 21.8795 13.0138ZM34.8007 15.5381C34.8641 15.6182 34.9201 15.6834 34.9276 15.6834C34.9341 15.6834 34.886 15.6182 34.8226 15.5381C34.7591 15.4581 34.7031 15.3911 34.6966 15.3911C34.6913 15.3911 34.7373 15.4576 34.8007 15.5381V15.5381ZM28.5188 16.963C28.567 16.97 28.6457 16.97 28.6929 16.963C28.7411 16.9565 28.7017 16.9512 28.6059 16.9512C28.5101 16.9512 28.4694 16.9565 28.5188 16.963ZM23.2979 21.316C23.2979 23.7134 23.2996 24.689 23.3031 23.4859C23.3065 22.0329 23.3065 20.5799 23.3031 19.1268C23.2996 17.9325 23.2979 18.9182 23.2979 21.316ZM36.3577 20.7298C36.3577 20.7945 36.363 20.8168 36.3678 20.781C36.3746 20.7425 36.3746 20.7031 36.3678 20.6646C36.363 20.6357 36.3577 20.6663 36.3577 20.7298ZM32.4632 21.1397C32.4632 21.2526 32.468 21.2955 32.4733 21.2338C32.4775 21.166 32.4775 21.0981 32.4733 21.0303C32.4667 20.9778 32.4632 21.0268 32.4632 21.1397ZM31.5454 24.0945C31.4889 24.168 31.4478 24.2257 31.4548 24.2257C31.4601 24.2257 31.513 24.168 31.5694 24.0945C31.6259 24.0227 31.6665 23.9632 31.66 23.9632C31.6181 24.0037 31.5798 24.0476 31.5454 24.0945V24.0945ZM23.2979 34.1742V38.9865L26.068 38.9878H28.8382L26.0733 38.9791L23.3097 38.9725L23.3031 34.1672L23.2979 29.3618V34.1742V34.1742ZM28.5066 29.3688C28.5377 29.3751 28.5698 29.3745 28.6006 29.3671C28.6225 29.3601 28.5989 29.3553 28.5477 29.3553C28.4965 29.3553 28.4777 29.3601 28.5066 29.3684V29.3688ZM35.6499 40.3117L35.5694 40.421L35.6582 40.3204C35.7387 40.2264 35.7557 40.2023 35.7387 40.2023C35.7059 40.236 35.6761 40.2726 35.6499 40.3117" fill="#CFEDFF"/>
</svg>
