<svg width="52" height="52" viewBox="0 0 52 52" fill="none" xmlns="http://www.w3.org/2000/svg">
<path d="M46.8813 12.4717L27.2594 1.17793C26.9344 0.974805 26.4875 0.893555 26 0.893555C25.5125 0.893555 25.0656 1.01543 24.7406 1.17793L5.24062 12.5123C4.55 12.9186 4.0625 13.9342 4.0625 14.7061V37.3342C4.0625 37.7811 4.14375 38.3092 4.46875 38.7561L47.8563 13.5686C47.6125 13.0811 47.2469 12.7154 46.8813 12.4717V12.4717Z" fill="#CFEDFF"/>
<path d="M4.34692 38.7158C4.55005 39.0408 4.83442 39.3252 5.1188 39.4877L24.7 50.8221C25.025 51.0252 25.4719 51.1064 25.9594 51.1064C26.4469 51.1064 26.8938 50.9846 27.2188 50.8221L46.7188 39.4877C47.4094 39.0814 47.8969 38.0658 47.8969 37.2939V14.6658C47.8969 14.3002 47.8563 13.8939 47.6532 13.5283L4.34692 38.7158V38.7158Z" fill="#CFEDFF"/>
<path d="M34.6531 30.9156C32.9469 33.9219 29.6969 35.9531 26 35.9531C20.5156 35.9531 16.0469 31.4844 16.0469 26C16.0469 20.5156 20.5156 16.0469 26 16.0469C29.6969 16.0469 32.9469 18.0781 34.6531 21.125L39.9344 18.0781C37.1719 13.2438 31.9719 9.95312 26 9.95312C17.1438 9.95312 9.95312 17.1438 9.95312 26C9.95312 34.8562 17.1438 42.0469 26 42.0469C31.9313 42.0469 37.1313 38.7969 39.8938 34.0031L34.6531 30.9156V30.9156Z" fill="white"/>
</svg>
