<svg width="365" height="288" viewBox="0 0 365 288" fill="none" xmlns="http://www.w3.org/2000/svg">
<path d="M309.209 61.6732H98.5956C87.3966 61.6732 78.3131 70.7426 78.2956 81.9415L78.0773 221.584C78.0597 232.808 87.1534 241.916 98.3772 241.916H357.623C360.327 241.916 362.375 239.476 361.907 236.813L334.915 83.2547C332.721 70.7746 321.88 61.6732 309.209 61.6732Z" fill="#4F4F4F" stroke="#4F4F4F" stroke-width="5.8"/>
<path d="M268.672 3.67324H94.6716C89.8667 3.67324 85.9716 7.56837 85.9716 12.3732V41.3733C85.9716 46.1781 89.8667 50.0733 94.6716 50.0733H268.672C273.476 50.0733 277.372 46.1781 277.372 41.3733V12.3732C277.372 7.56836 273.476 3.67324 268.672 3.67324Z" fill="#4F4F4F" stroke="#4F4F4F" stroke-width="5.8"/>
<path d="M225.95 61.6732H46.15C34.9386 61.6732 25.85 70.7619 25.85 81.9733V157.373C25.85 168.585 34.9386 177.673 46.15 177.673H225.95C237.161 177.673 246.25 168.585 246.25 157.373V81.9732C246.25 70.7619 237.161 61.6732 225.95 61.6732Z" fill="white" stroke="#4F4F4F" stroke-width="5.8"/>
<path d="M214.35 3.67324H40.35C35.5451 3.67324 31.65 7.56837 31.65 12.3732V41.3733C31.65 46.1781 35.5451 50.0733 40.35 50.0733H214.35C219.155 50.0733 223.05 46.1781 223.05 41.3733V12.3732C223.05 7.56836 219.155 3.67324 214.35 3.67324Z" fill="white" stroke="#4F4F4F" stroke-width="5.8"/>
<path d="M196.95 26.8736C196.95 25.272 198.248 23.9736 199.85 23.9736H211.45C213.052 23.9736 214.35 25.272 214.35 26.8736V38.4737C214.35 40.0753 213.052 41.3736 211.45 41.3736H199.85C198.248 41.3736 196.95 40.0753 196.95 38.4736V26.8736Z" fill="#4F4F4F"/>
<path d="M40.35 32.6734C40.35 31.0718 41.6483 29.7734 43.25 29.7734H49.05C50.6516 29.7734 51.95 31.0718 51.95 32.6734V38.4735C51.95 40.0751 50.6516 41.3735 49.05 41.3735H43.25C41.6483 41.3735 40.35 40.0751 40.35 38.4735V32.6734Z" fill="#4F4F4F"/>
<path d="M57.3639 50.0736H52.6716L54.77 54.2705L56.8685 58.4675C57.851 60.4325 59.8593 61.6737 62.0562 61.6737H63.1639C66.3671 61.6737 68.9639 59.0769 68.9639 55.8737V52.9736V50.0736H66.0639H57.3639Z" fill="#4F4F4F" stroke="#4F4F4F" stroke-width="5.8"/>
<path d="M51.9501 50.0736H47.2578L49.3562 54.2705L51.4547 58.4675C52.4372 60.4325 54.4455 61.6737 56.6424 61.6737H57.7501C60.9533 61.6737 63.5501 59.0769 63.5501 55.8737V52.9736V50.0736H60.6501H51.9501Z" fill="white" stroke="#4F4F4F" stroke-width="5.8"/>
<path d="M202.75 50.0736H198.058L200.156 54.2705L202.255 58.4675C203.237 60.4325 205.246 61.6737 207.442 61.6737H208.55C211.753 61.6737 214.35 59.0769 214.35 55.8737V52.9736V50.0736H211.45H202.75Z" fill="#4F4F4F" stroke="#4F4F4F" stroke-width="5.8"/>
<path d="M197.336 50.0736H192.644L194.742 54.2705L196.841 58.4675C197.823 60.4325 199.832 61.6737 202.029 61.6737H203.136C206.339 61.6737 208.936 59.0769 208.936 55.8737V52.9736V50.0736H206.036H197.336Z" fill="white" stroke="#4F4F4F" stroke-width="5.8"/>
<path d="M260.75 50.0736H265.442L263.344 54.2705L261.063 58.8321C260.192 60.5736 258.412 61.6737 256.465 61.6737C253.626 61.6737 251.325 59.3722 251.325 56.5333V52.9736V50.0736H254.225H260.75Z" fill="#4F4F4F" stroke="#4F4F4F" stroke-width="5.8"/>
<path d="M57.7501 32.6734C57.7501 31.0718 59.0484 29.7734 60.6501 29.7734H101.25C102.852 29.7734 104.15 31.0718 104.15 32.6734V38.4735C104.15 40.0751 102.852 41.3735 101.25 41.3735H60.6501C59.0484 41.3735 57.7501 40.0751 57.7501 38.4735V32.6734Z" fill="#4F4F4F"/>
<path d="M144.75 73.2729H46.15C41.3451 73.2729 37.45 77.168 37.45 81.9729V157.373C37.45 162.178 41.3451 166.073 46.15 166.073H144.75C149.555 166.073 153.45 162.178 153.45 157.373V81.9729C153.45 77.168 149.555 73.2729 144.75 73.2729Z" fill="white" fill-opacity="0.7" stroke="#4F4F4F" stroke-width="5.8"/>
<line x1="191.422" y1="157.373" x2="226.947" y2="157.373" stroke="#4F4F4F" stroke-width="5.8" stroke-linecap="round"/>
<line x1="170.85" y1="131.274" x2="228.85" y2="131.274" stroke="#4F4F4F" stroke-width="5.8" stroke-linecap="round"/>
<line x1="170.85" y1="119.674" x2="228.85" y2="119.674" stroke="#4F4F4F" stroke-width="5.8" stroke-linecap="round"/>
<line x1="170.85" y1="108.074" x2="228.85" y2="108.074" stroke="#4F4F4F" stroke-width="5.8" stroke-linecap="round"/>
<line x1="170.85" y1="96.473" x2="228.85" y2="96.473" stroke="#4F4F4F" stroke-width="5.8" stroke-linecap="round"/>
<line x1="170.85" y1="84.8734" x2="228.85" y2="84.8734" stroke="#4F4F4F" stroke-width="5.8" stroke-linecap="round"/>
<line x1="260.652" y1="73.6041" x2="260.652" y2="90.6731" stroke="white" stroke-width="5.8" stroke-linecap="round"/>
<line x1="272.252" y1="73.6041" x2="272.252" y2="90.6731" stroke="white" stroke-width="5.8" stroke-linecap="round"/>
<line x1="283.852" y1="73.6041" x2="283.852" y2="90.6731" stroke="white" stroke-width="5.8" stroke-linecap="round"/>
<line x1="295.452" y1="73.6041" x2="295.452" y2="90.6731" stroke="white" stroke-width="5.8" stroke-linecap="round"/>
<line x1="318.79" y1="73.6041" x2="318.79" y2="90.6731" stroke="white" stroke-width="5.8" stroke-linecap="round"/>
<line x1="307.052" y1="73.6041" x2="307.052" y2="90.6731" stroke="white" stroke-width="5.8" stroke-linecap="round"/>
<line x1="246.112" y1="38.4732" x2="246.112" y2="44.2733" stroke="white" stroke-width="5.8" stroke-linecap="round"/>
<line x1="269.45" y1="38.4732" x2="269.45" y2="44.2733" stroke="white" stroke-width="5.8" stroke-linecap="round"/>
<line x1="257.712" y1="38.4732" x2="257.712" y2="44.2733" stroke="white" stroke-width="5.8" stroke-linecap="round"/>
<rect x="212.447" y="151.573" width="17.4" height="11.6" rx="3.625" fill="#4F4F4F"/>
<path d="M77.6468 177.226H253.071L254.95 197.605H83.5176L77.6468 177.226Z" fill="#4F4F4F"/>
<path d="M80.9498 177.888H78.0498V180.788V204.882C78.0498 205.124 77.9286 205.351 77.7269 205.485L46.1555 226.533C44.3313 227.749 43.25 229.803 43.25 231.974C43.25 235.574 46.1787 238.551 49.8264 238.522L62.8858 238.419C66.4451 238.391 69.3158 235.498 69.3158 231.938C69.3158 231.711 69.4296 231.498 69.6191 231.372L101.21 210.311C103.025 209.101 104.116 207.063 104.116 204.882V180.788V177.888H101.216H80.9498Z" fill="white" stroke="#4F4F4F" stroke-width="5.8"/>
<path d="M151.857 201.189C151.936 198.044 154.509 195.536 157.655 195.536H217.557C219.414 195.536 221.158 196.425 222.249 197.927L230.642 209.478C231.362 210.469 231.75 211.663 231.75 212.887V236.136C231.75 239.339 229.153 241.936 225.95 241.936H156.773C153.512 241.936 150.892 239.249 150.975 235.989L151.857 201.189Z" fill="#4F4F4F" stroke="#4F4F4F" stroke-width="5.8"/>
<path d="M5.07008 228.768L3.59393 236.8C3.10275 239.472 5.15493 241.936 7.87227 241.936H155.64C157.733 241.936 159.53 240.445 159.915 238.388L161.666 229.051C161.974 227.41 162.974 225.981 164.41 225.13L196.143 206.326C201.218 203.318 199.085 195.536 193.186 195.536H68.3854C61.4214 195.536 54.5835 197.394 48.5767 200.917L7.83991 224.813C6.38583 225.666 5.3748 227.11 5.07008 228.768Z" fill="white" stroke="#4F4F4F" stroke-width="5.8"/>
<line x1="8.69651" y1="227.437" x2="137.047" y2="227.437" stroke="#4F4F4F" stroke-width="5.8" stroke-linecap="round"/>
<path d="M219.856 208.834L188.313 229.485C186.485 230.681 185.384 232.718 185.384 234.902C185.384 238.478 188.283 241.377 191.859 241.377L204.975 241.377C208.551 241.377 211.45 238.478 211.45 234.902C211.45 234.674 211.565 234.462 211.755 234.338L243.299 213.687C245.14 212.481 246.25 210.429 246.25 208.228V185.439C246.25 183.037 244.302 181.089 241.9 181.089H224.534C222.132 181.089 220.184 183.037 220.184 185.439V208.228C220.184 208.472 220.061 208.7 219.856 208.834Z" fill="white" stroke="#4F4F4F" stroke-width="5.8"/>
<path d="M142.847 73.2729H63.55C58.7451 73.2729 54.85 77.168 54.85 81.9729V157.373C54.85 162.178 58.7451 166.073 63.55 166.073H142.847C147.652 166.073 151.547 162.178 151.547 157.373V81.9729C151.547 77.168 147.652 73.2729 142.847 73.2729Z" fill="#4F4F4F" stroke="#4F4F4F" stroke-width="5.8"/>
<path d="M104.868 142.147H114.042C113.228 143.861 111.478 145.047 109.455 145.047C107.432 145.047 105.682 143.861 104.868 142.147Z" stroke="white" stroke-width="4.35" stroke-linecap="round"/>
<rect x="128.305" y="128.371" width="8.7" height="17.4" rx="4.35" fill="white"/>
<path d="M132.882 130.517H136.217C137.402 130.517 138.363 129.556 138.363 128.371V128.371" stroke="white" stroke-width="4.35" stroke-linecap="round"/>
<rect width="8.7" height="17.4" rx="4.35" transform="matrix(-1 0 0 1 87.7049 128.371)" fill="white"/>
<path d="M83.1277 130.517H79.7931C78.6077 130.517 77.6467 129.556 77.6467 128.371V128.371" stroke="white" stroke-width="4.35" stroke-linecap="round"/>
<path d="M195.515 269.926H283.95C296.763 269.926 307.15 259.539 307.15 246.726V220.245" stroke="#4F4F4F" stroke-width="5.8" stroke-linecap="round" stroke-linejoin="round"/>
<path d="M235.125 262.778L238.92 278.497C239.65 281.519 237.36 284.427 234.252 284.427H162.672V273.451L223.684 255.427H225.788C230.225 255.427 234.084 258.465 235.125 262.778Z" fill="#4F4F4F" stroke="#4F4F4F" stroke-width="5.8" stroke-linecap="round" stroke-linejoin="round"/>
<path d="M156.017 275.863V280.825C156.017 282.814 157.63 284.427 159.619 284.427H191.082C193.071 284.427 194.684 282.814 194.684 280.825V275.863C194.684 272.225 196.74 268.899 199.994 267.272L223.684 255.427H187.285C185.794 255.427 184.323 255.774 182.989 256.441L161.327 267.272C158.073 268.899 156.017 272.225 156.017 275.863Z" fill="white" stroke="#4F4F4F" stroke-width="5.8" stroke-linecap="round" stroke-linejoin="round"/>
<path d="M160.125 272.214H182.347" stroke="#4F4F4F" stroke-width="5.8" stroke-linecap="round"/>
<path d="M134.6 271.759L144.556 271.759" stroke="#4F4F4F" stroke-width="5.8" stroke-linecap="round"/>
<path d="M141.335 254.426L148.375 261.466" stroke="#4F4F4F" stroke-width="5.8" stroke-linecap="round"/>
</svg>
