<svg width="67" height="67" viewBox="0 0 67 67" fill="none" xmlns="http://www.w3.org/2000/svg">
<path d="M9.84785 59.7366L4.58521 0.708008H62.4146L57.1467 59.7277L33.4648 66.2932L9.84785 59.7366V59.7366Z" fill="#CFEDFF"/>
<path d="M33.5005 61.275L52.6368 55.9695L57.1389 5.53418H33.5005V61.275Z" fill="#CFEDFF"/>
<path d="M33.5005 26.9197H43.0804L43.7421 19.5063H33.5005V12.2666H51.6543L51.4806 14.2091L49.7009 34.1594H33.5005V26.9197Z" fill="white"/>
<path d="M33.5434 45.7219L33.5114 45.7313L25.4489 43.5543L24.9334 37.7803H17.667L18.6809 49.1478L33.5104 53.2636L33.5434 53.2541V45.7219V45.7219Z" fill="#EBEBEB"/>
<path d="M42.4649 33.8535L41.5929 43.5486L33.5183 45.7282V53.2605L48.3599 49.1473L48.4687 47.924L49.7281 33.8535H42.4649Z" fill="white"/>
<path d="M33.5252 12.2666V19.5063H16.0382L15.8932 17.8794L15.5634 14.2091L15.3901 12.2666H33.5252V12.2666ZM33.5006 26.9208V34.1604H25.5396L25.3946 32.5336L25.0643 28.8632L24.8916 26.9208H33.5006V26.9208Z" fill="#EBEBEB"/>
</svg>
