<svg width="54" height="39" viewBox="0 0 54 39" fill="none" xmlns="http://www.w3.org/2000/svg">
<path d="M49.4 0.542969H3.8C2.79218 0.542969 1.82563 0.943325 1.11299 1.65596C0.400356 2.3686 0 3.33515 0 4.34297V34.743C0 35.7508 0.400356 36.7173 1.11299 37.43C1.82563 38.1426 2.79218 38.543 3.8 38.543H49.4C50.4078 38.543 51.3744 38.1426 52.087 37.43C52.7996 36.7173 53.2 35.7508 53.2 34.743V4.34297C53.2 3.33515 52.7996 2.3686 52.087 1.65596C51.3744 0.943325 50.4078 0.542969 49.4 0.542969ZM45.22 4.34297L26.6 17.225L7.98 4.34297H45.22ZM3.8 34.743V6.07197L25.517 21.101C25.8351 21.3216 26.2129 21.4398 26.6 21.4398C26.9871 21.4398 27.3649 21.3216 27.683 21.101L49.4 6.07197V34.743H3.8Z" fill="#37B6FF"/>
</svg>
