<svg width="80" height="58" viewBox="0 0 80 58" fill="none" xmlns="http://www.w3.org/2000/svg">
<path d="M73.75 0.875H6.25C4.75816 0.875 3.32742 1.46763 2.27252 2.52252C1.21763 3.57742 0.625 5.00816 0.625 6.5V51.5C0.625 52.9918 1.21763 54.4226 2.27252 55.4775C3.32742 56.5324 4.75816 57.125 6.25 57.125H73.75C75.2418 57.125 76.6726 56.5324 77.7275 55.4775C78.7824 54.4226 79.375 52.9918 79.375 51.5V6.5C79.375 5.00816 78.7824 3.57742 77.7275 2.52252C76.6726 1.46763 75.2418 0.875 73.75 0.875ZM67.5625 6.5L40 25.5687L12.4375 6.5H67.5625ZM6.25 51.5V9.05937L38.3969 31.3062C38.8677 31.6329 39.427 31.8079 40 31.8079C40.573 31.8079 41.1323 31.6329 41.6031 31.3062L73.75 9.05937V51.5H6.25Z" fill="black"/>
</svg>
