<svg width="76" height="76" viewBox="0 0 76 76" fill="none" xmlns="http://www.w3.org/2000/svg">
<path d="M76 58.8883C73.2355 59.5913 71.5255 58.9191 69.9912 56.6154L59.0805 41.5199L57.5035 39.4299L44.7616 56.6652C43.3058 58.7386 41.7786 59.6411 39.0616 58.9072L55.3779 37.005L40.1874 17.2213C42.7999 16.713 44.6049 16.9719 46.208 19.3113L57.5249 34.5944L68.9249 19.3944C70.3855 17.321 71.9554 16.5325 74.5774 17.2973L68.6874 25.1063L60.7074 35.4969C59.7574 36.6844 59.888 37.4966 60.762 38.6438L76 58.8883ZM0.019 36.6393L1.35375 30.0748C4.9875 17.0835 19.8788 11.6851 30.1483 19.7126C36.1499 24.4341 37.6414 31.1126 37.3445 38.5939H3.515C3.00675 52.0601 12.6991 60.1874 25.0563 56.0406C29.3906 54.5848 31.9437 51.1909 33.2215 46.9444C33.8699 44.8164 34.9434 44.4839 36.9431 45.0919C35.9219 50.4024 33.6181 54.8389 28.7494 57.6153C21.4747 61.7715 11.0912 60.4272 5.62875 54.6512C2.375 51.3001 1.03075 47.0536 0.4275 42.5126C0.3325 41.7621 0.1425 41.0473 0 40.3276C0.0126667 39.099 0.019 37.8703 0.019 36.6416V36.6393ZM3.57675 35.7368H34.1478C33.9483 25.9993 27.8849 19.0833 19.5985 19.0239C10.5022 18.9526 3.971 25.7048 3.57675 35.7368V35.7368Z" fill="#CFEDFF"/>
</svg>
