<svg width="50" height="50" viewBox="0 0 50 50" fill="none" xmlns="http://www.w3.org/2000/svg">
<path fill-rule="evenodd" clip-rule="evenodd" d="M25 1.99414C11.9738 1.99414 1.41089 12.5547 1.41089 25.5832C1.41089 36.0059 8.16987 44.8477 17.5425 47.9672C18.721 48.1859 19.1539 47.4555 19.1539 46.8324C19.1539 46.2699 19.132 44.4117 19.1218 42.4406C12.5593 43.8676 11.1746 39.6574 11.1746 39.6574C10.1015 36.9309 8.55542 36.2059 8.55542 36.2059C6.4148 34.7418 8.71675 34.7723 8.71675 34.7723C11.0851 34.9383 12.3328 37.2031 12.3328 37.2031C14.4367 40.8086 17.8511 39.7664 19.1972 39.1641C19.4089 37.6395 20.0203 36.5984 20.6949 36.0094C15.4554 35.4137 9.94722 33.3906 9.94722 24.352C9.94722 21.7766 10.8691 19.6723 12.3781 18.0199C12.1328 17.4262 11.3253 15.027 12.6062 11.7777C12.6062 11.7777 14.5867 11.1437 19.0945 14.1957C20.9765 13.6727 22.9949 13.4098 25 13.4008C27.0039 13.4098 29.0234 13.6719 30.9089 14.1949C35.4113 11.143 37.3894 11.777 37.3894 11.777C38.6734 15.0258 37.866 17.4254 37.621 18.0191C39.1335 19.6715 40.0488 21.7758 40.0488 24.3512C40.0488 33.4113 34.5304 35.4059 29.2777 35.9902C30.1242 36.7223 30.8781 38.1582 30.8781 40.3586C30.8781 43.5148 30.8507 46.0551 30.8507 46.832C30.8507 47.4598 31.2757 48.1953 32.471 47.9637C41.8382 44.841 48.5894 36.002 48.5894 25.5832C48.589 12.5555 38.0273 1.99453 25 1.99453V1.99414Z" fill="#37B6FF"/>
<path d="M10.3452 35.8632C10.2933 35.9804 10.1089 36.0155 9.94095 35.9354C9.76907 35.8589 9.67337 35.6991 9.72884 35.5815C9.77962 35.4604 9.96438 35.4272 10.1351 35.5081C10.307 35.5851 10.4046 35.7464 10.3449 35.8636L10.3452 35.8632ZM11.3007 36.9292C11.1886 37.0335 10.9687 36.9851 10.8195 36.8198C10.6648 36.6558 10.6359 36.4358 10.7503 36.33C10.8667 36.2261 11.08 36.2753 11.2347 36.4393C11.3886 36.6058 11.4191 36.8237 11.3011 36.9296L11.3007 36.9292ZM12.2312 38.2874C12.0866 38.3882 11.8499 38.294 11.7038 38.0843C11.5593 37.8741 11.5593 37.6222 11.7077 37.5218C11.8534 37.421 12.0866 37.512 12.2351 37.7198C12.3788 37.9327 12.3788 38.1847 12.2312 38.287V38.2874ZM13.505 39.6003C13.3761 39.7429 13.1003 39.7046 12.8988 39.5104C12.6929 39.3202 12.6355 39.0495 12.7648 38.9073C12.896 38.7644 13.173 38.8042 13.3757 38.9972C13.5816 39.187 13.6437 39.4581 13.5058 39.5999L13.505 39.6003ZM15.2628 40.3624C15.2054 40.5472 14.9406 40.6311 14.673 40.5522C14.4062 40.4714 14.2316 40.2554 14.2863 40.0686C14.3409 39.8823 14.6077 39.7952 14.8769 39.8792C15.1437 39.9597 15.3183 40.1745 15.2628 40.3624ZM17.1937 40.5034C17.2003 40.6979 16.9738 40.8589 16.6937 40.8628C16.4113 40.8694 16.1827 40.7116 16.18 40.5202C16.18 40.3237 16.4019 40.1647 16.6839 40.1593C16.964 40.1542 17.1941 40.3104 17.1941 40.503L17.1937 40.5034ZM18.9898 40.1979C19.0234 40.3874 18.8284 40.5823 18.5499 40.6343C18.2765 40.6851 18.0226 40.5671 17.9874 40.3792C17.9538 40.1847 18.1523 39.9897 18.4257 39.9393C18.7046 39.8913 18.9546 40.0058 18.9898 40.1983V40.1979Z" fill="#37B6FF"/>
</svg>
