<svg width="49" height="50" viewBox="0 0 49 50" fill="none" xmlns="http://www.w3.org/2000/svg">
<rect x="3.03772" y="3.43848" width="42.528" height="42.528" rx="9.11314" fill="url(#paint0_radial_208_187)"/>
<rect x="3.03772" y="3.43848" width="42.528" height="42.528" rx="9.11314" fill="url(#paint1_radial_208_187)"/>
<rect x="3.03772" y="3.43848" width="42.528" height="42.528" rx="9.11314" fill="url(#paint2_radial_208_187)"/>
<path d="M34.9337 16.3485C34.9337 17.6068 33.9137 18.6268 32.6554 18.6268C31.3972 18.6268 30.3772 17.6068 30.3772 16.3485C30.3772 15.0903 31.3972 14.0702 32.6554 14.0702C33.9137 14.0702 34.9337 15.0903 34.9337 16.3485Z" fill="white"/>
<path fill-rule="evenodd" clip-rule="evenodd" d="M24.3017 32.2965C28.4959 32.2965 31.896 28.8964 31.896 24.7022C31.896 20.508 28.4959 17.108 24.3017 17.108C20.1075 17.108 16.7074 20.508 16.7074 24.7022C16.7074 28.8964 20.1075 32.2965 24.3017 32.2965ZM24.3017 29.2588C26.8183 29.2588 28.8583 27.2188 28.8583 24.7022C28.8583 22.1857 26.8183 20.1457 24.3017 20.1457C21.7852 20.1457 19.7452 22.1857 19.7452 24.7022C19.7452 27.2188 21.7852 29.2588 24.3017 29.2588Z" fill="white"/>
<path fill-rule="evenodd" clip-rule="evenodd" d="M9.11316 24.0947C9.11316 18.9909 9.11316 16.4389 10.1064 14.4895C10.9801 12.7748 12.3743 11.3807 14.089 10.5069C16.0384 9.51367 18.5903 9.51367 23.6942 9.51367H24.9093C30.0131 9.51367 32.565 9.51367 34.5144 10.5069C36.2292 11.3807 37.6233 12.7748 38.497 14.4895C39.4903 16.4389 39.4903 18.9909 39.4903 24.0947V25.3098C39.4903 30.4136 39.4903 32.9655 38.497 34.9149C37.6233 36.6297 36.2292 38.0238 34.5144 38.8975C32.565 39.8908 30.0131 39.8908 24.9093 39.8908H23.6942C18.5903 39.8908 16.0384 39.8908 14.089 38.8975C12.3743 38.0238 10.9801 36.6297 10.1064 34.9149C9.11316 32.9655 9.11316 30.4136 9.11316 25.3098V24.0947ZM23.6942 12.5514H24.9093C27.5113 12.5514 29.2802 12.5537 30.6474 12.6655C31.9792 12.7743 32.6602 12.9715 33.1353 13.2136C34.2785 13.796 35.2079 14.7255 35.7904 15.8686C36.0325 16.3437 36.2297 17.0248 36.3385 18.3566C36.4502 19.7238 36.4526 21.4927 36.4526 24.0947V25.3098C36.4526 27.9118 36.4502 29.6807 36.3385 31.0479C36.2297 32.3797 36.0325 33.0608 35.7904 33.5359C35.2079 34.679 34.2785 35.6084 33.1353 36.1909C32.6602 36.433 31.9792 36.6302 30.6474 36.739C29.2802 36.8507 27.5113 36.8531 24.9093 36.8531H23.6942C21.0921 36.8531 19.3233 36.8507 17.9561 36.739C16.6243 36.6302 15.9432 36.433 15.4681 36.1909C14.3249 35.6084 13.3955 34.679 12.8131 33.5359C12.571 33.0608 12.3738 32.3797 12.2649 31.0479C12.1532 29.6807 12.1509 27.9118 12.1509 25.3098V24.0947C12.1509 21.4927 12.1532 19.7238 12.2649 18.3566C12.3738 17.0248 12.571 16.3437 12.8131 15.8686C13.3955 14.7255 14.3249 13.796 15.4681 13.2136C15.9432 12.9715 16.6243 12.7743 17.9561 12.6655C19.3233 12.5537 21.0921 12.5514 23.6942 12.5514Z" fill="white"/>
<defs>
<radialGradient id="paint0_radial_208_187" cx="0" cy="0" r="1" gradientUnits="userSpaceOnUse" gradientTransform="translate(18.2263 35.3345) rotate(-55.3758) scale(38.7606)">
<stop stop-color="#B13589"/>
<stop offset="0.79309" stop-color="#C62F94"/>
<stop offset="1" stop-color="#8A3AC8"/>
</radialGradient>
<radialGradient id="paint1_radial_208_187" cx="0" cy="0" r="1" gradientUnits="userSpaceOnUse" gradientTransform="translate(16.7074 47.4853) rotate(-65.1363) scale(34.3174)">
<stop stop-color="#E0E8B7"/>
<stop offset="0.444662" stop-color="#FB8A2E"/>
<stop offset="0.71474" stop-color="#E2425C"/>
<stop offset="1" stop-color="#E2425C" stop-opacity="0"/>
</radialGradient>
<radialGradient id="paint2_radial_208_187" cx="0" cy="0" r="1" gradientUnits="userSpaceOnUse" gradientTransform="translate(0.759437 4.95733) rotate(-8.1301) scale(59.0697 12.6344)">
<stop offset="0.156701" stop-color="#406ADC"/>
<stop offset="0.467799" stop-color="#6A45BE"/>
<stop offset="1" stop-color="#6A45BE" stop-opacity="0"/>
</radialGradient>
</defs>
</svg>
