<svg width="49" height="50" viewBox="0 0 49 50" fill="none" xmlns="http://www.w3.org/2000/svg">
<rect x="3.03778" y="3.98145" width="42.528" height="42.528" rx="9.11314" fill="#37B6FF"/>
<path d="M34.9337 16.8915C34.9337 18.1498 33.9137 19.1698 32.6554 19.1698C31.3972 19.1698 30.3772 18.1498 30.3772 16.8915C30.3772 15.6332 31.3972 14.6132 32.6554 14.6132C33.9137 14.6132 34.9337 15.6332 34.9337 16.8915Z" fill="white"/>
<path fill-rule="evenodd" clip-rule="evenodd" d="M24.3017 32.8395C28.4959 32.8395 31.896 29.4394 31.896 25.2452C31.896 21.051 28.4959 17.6509 24.3017 17.6509C20.1075 17.6509 16.7074 21.051 16.7074 25.2452C16.7074 29.4394 20.1075 32.8395 24.3017 32.8395ZM24.3017 29.8018C26.8183 29.8018 28.8583 27.7617 28.8583 25.2452C28.8583 22.7287 26.8183 20.6886 24.3017 20.6886C21.7852 20.6886 19.7452 22.7287 19.7452 25.2452C19.7452 27.7617 21.7852 29.8018 24.3017 29.8018Z" fill="white"/>
<path fill-rule="evenodd" clip-rule="evenodd" d="M9.11316 24.6377C9.11316 19.5338 9.11316 16.9819 10.1064 15.0325C10.9801 13.3178 12.3743 11.9236 14.089 11.0499C16.0384 10.0566 18.5903 10.0566 23.6942 10.0566H24.9093C30.0131 10.0566 32.565 10.0566 34.5144 11.0499C36.2292 11.9236 37.6233 13.3178 38.497 15.0325C39.4903 16.9819 39.4903 19.5338 39.4903 24.6377V25.8528C39.4903 30.9566 39.4903 33.5085 38.497 35.4579C37.6233 37.1727 36.2292 38.5668 34.5144 39.4405C32.565 40.4338 30.0131 40.4338 24.9093 40.4338H23.6942C18.5903 40.4338 16.0384 40.4338 14.089 39.4405C12.3743 38.5668 10.9801 37.1727 10.1064 35.4579C9.11316 33.5085 9.11316 30.9566 9.11316 25.8528V24.6377ZM23.6942 13.0944H24.9093C27.5113 13.0944 29.2802 13.0967 30.6474 13.2084C31.9792 13.3172 32.6602 13.5145 33.1353 13.7565C34.2785 14.339 35.2079 15.2684 35.7904 16.4116C36.0325 16.8867 36.2297 17.5678 36.3385 18.8995C36.4502 20.2668 36.4526 22.0356 36.4526 24.6377V25.8528C36.4526 28.4548 36.4502 30.2236 36.3385 31.5909C36.2297 32.9227 36.0325 33.6037 35.7904 34.0788C35.2079 35.222 34.2785 36.1514 33.1353 36.7339C32.6602 36.976 31.9792 37.1732 30.6474 37.282C29.2802 37.3937 27.5113 37.3961 24.9093 37.3961H23.6942C21.0921 37.3961 19.3233 37.3937 17.9561 37.282C16.6243 37.1732 15.9432 36.976 15.4681 36.7339C14.3249 36.1514 13.3955 35.222 12.8131 34.0788C12.571 33.6037 12.3738 32.9227 12.2649 31.5909C12.1532 30.2236 12.1509 28.4548 12.1509 25.8528V24.6377C12.1509 22.0356 12.1532 20.2668 12.2649 18.8995C12.3738 17.5678 12.571 16.8867 12.8131 16.4116C13.3955 15.2684 14.3249 14.339 15.4681 13.7565C15.9432 13.5145 16.6243 13.3172 17.9561 13.2084C19.3233 13.0967 21.0921 13.0944 23.6942 13.0944Z" fill="white"/>
</svg>
