<svg width="71" height="71" viewBox="0 0 71 71" fill="none" xmlns="http://www.w3.org/2000/svg">
<path d="M3.07861 35.9044C3.07971 37.778 3.63629 39.6091 4.67798 41.1664C5.71967 42.7237 7.1997 43.9371 8.93095 44.6534C10.6622 45.3696 12.5669 45.5564 14.4044 45.1902C16.2418 44.824 17.9294 43.9213 19.2538 42.5961C20.5782 41.2709 21.48 39.5828 21.8451 37.7451C22.2102 35.9075 22.0223 34.0029 21.305 32.272C20.5878 30.5412 19.3735 29.0619 17.8156 28.0211C16.2577 26.9803 14.4262 26.4248 12.5527 26.4248C10.0404 26.4292 7.63234 27.4295 5.85641 29.2065C4.08047 30.9835 3.08155 33.3921 3.07861 35.9044V35.9044Z" fill="#CFEDFF"/>
<path d="M59.6179 2.62402C54.4094 2.62402 51.2976 6.81746 51.2976 13.8454V57C51.2976 64.0224 54.3983 68.2214 59.6179 68.2214C64.8375 68.2214 67.9382 64.0279 67.9382 57V13.8675C67.9216 6.82301 64.8153 2.62402 59.6179 2.62402ZM45.0684 3.53926H11.0273C8.89873 3.63478 6.88904 4.54756 5.41658 6.08758C3.94411 7.6276 3.12234 9.67619 3.12234 11.8069C3.12234 13.9376 3.94411 15.9862 5.41658 17.5262C6.88904 19.0662 8.89873 19.979 11.0273 20.0745V20.1355H28.45V35.8886C28.45 40.104 26.7781 44.1474 23.801 47.1317C20.8239 50.1161 16.7847 51.7979 12.5693 51.8082H12.1422L12.0978 51.8636C11.8648 51.8636 11.6263 51.8248 11.3823 51.8248C10.2763 51.7962 9.17585 51.9893 8.14573 52.3928C7.11561 52.7962 6.1767 53.4018 5.38437 54.1739C4.59203 54.946 3.96231 55.869 3.53234 56.8883C3.10238 57.9076 2.88086 59.0028 2.88086 60.1091C2.88086 61.2154 3.10238 62.3105 3.53234 63.3298C3.96231 64.3492 4.59203 65.2721 5.38437 66.0442C6.1767 66.8163 7.11561 67.4219 8.14573 67.8254C9.17585 68.2288 10.2763 68.4219 11.3823 68.3933C11.6319 68.3933 11.8815 68.3933 12.1256 68.3545V68.3822H12.5582C21.1729 68.3764 29.4336 64.9539 35.5282 58.8655C41.6228 52.7771 45.0538 44.52 45.0684 35.9053V35.6057V30.2863V30.2253V3.53926Z" fill="#CFEDFF"/>
</svg>
