<svg width="94" height="94" viewBox="0 0 94 94" fill="none" xmlns="http://www.w3.org/2000/svg">
<path d="M4.88223 49.4613C4.88223 52.3327 4.61565 53.2676 3.93048 53.9557C3.16967 54.5505 2.18047 54.8773 1.15308 54.8773L1.42039 56.5179C3.00958 56.5348 4.5525 56.0501 5.75761 55.1549C6.40606 54.4719 6.88781 53.6862 7.17495 52.8402C7.46038 52.0026 7.54761 51.1101 7.42978 50.2331V39.368H4.88223V49.4613ZM23.8901 48.1673C23.8901 49.3981 23.8901 50.4968 24.0024 51.4492H21.7391L21.5871 49.4958C21.1134 50.1861 20.4363 50.7575 19.6248 51.1482C18.7954 51.5451 17.885 51.7432 16.9656 51.7268C14.7596 51.7268 12.1342 50.6943 12.1342 46.4775V39.4694H14.6847V46.0332C14.6847 48.3135 15.502 49.8395 17.8028 49.8395C18.2735 49.8457 18.7415 49.7691 19.1857 49.6133C19.614 49.4639 20.0109 49.2363 20.3562 48.9421C20.6827 48.6633 20.9474 48.3194 21.1332 47.9323C21.3124 47.5603 21.4029 47.1518 21.3976 46.739V39.3864H23.9444V48.1012L23.8901 48.1673ZM28.7215 43.3741C28.7215 41.8473 28.7215 40.5996 28.6062 39.4694H30.8901L31.0017 41.5205C31.5121 40.7773 32.2436 40.1692 33.1219 39.7595C34.0175 39.3453 34.9985 39.1495 35.9845 39.1881C39.3722 39.1881 41.9197 41.6351 41.9197 45.2761C41.9197 49.5759 38.8588 51.71 35.5483 51.71C34.7087 51.7439 33.8723 51.588 33.1013 51.2539C32.3471 50.9234 31.7016 50.4307 31.2309 49.8219V56.3857H28.7215V43.3741ZM31.2309 46.5723C31.2367 46.8704 31.2771 47.1686 31.3462 47.4587C31.5613 48.1872 32.0512 48.8327 32.74 49.2946C33.4289 49.7565 34.2778 50.0033 35.1495 50.0033C37.8322 50.0033 39.4096 48.1159 39.4096 45.3767C39.4096 42.9804 37.9262 40.9293 35.2442 40.9293C34.1831 41.0042 33.1902 41.4089 32.4507 42.0713C31.7134 42.7337 31.2771 43.6032 31.2316 44.5212L31.2309 46.5723ZM46.4611 39.4576L49.5249 46.5297C49.8504 47.3337 50.1477 48.1489 50.4164 48.9737C50.6837 48.2533 50.9672 47.3323 51.3124 46.4805L54.0883 39.4576H56.771L52.9669 47.9896C51.0649 52.0918 49.9031 54.2083 48.1531 55.4876C47.2726 56.1852 46.1967 56.6699 45.0349 56.899L44.407 55.0631C45.2051 54.8388 45.9582 54.4778 46.6329 53.9961C47.5597 53.3425 48.297 52.5104 48.7817 51.5668C48.884 51.4065 48.955 51.2283 48.991 51.0417C48.9677 50.8419 48.9095 50.6478 48.8192 50.4681L43.647 39.4231H46.4229L46.4611 39.4576ZM63.5353 36.0156V39.4606H67.1866V41.1019H63.5353V47.5673C63.5353 49.0449 64.031 49.8968 65.4373 49.8968C65.9356 49.9035 66.433 49.8534 66.92 49.7477L67.0346 51.3912C66.3004 51.6081 65.5364 51.707 64.7712 51.6842C64.2651 51.7124 63.7581 51.6451 63.2768 51.486C62.8116 51.334 62.3821 51.0892 62.0144 50.7663C61.2404 49.8711 60.8871 48.7585 61.0252 47.6481V41.0843H58.8566V39.4437H61.0619V36.5231L63.5353 36.0156ZM71.8829 45.8379C71.8315 46.3945 71.9197 46.9541 72.1436 47.4755C72.3769 48.0133 72.7304 48.4904 73.1769 48.8701C73.6359 49.266 74.1867 49.57 74.7947 49.7624C75.3999 49.957 76.0505 50.0319 76.6938 49.9886C77.9895 50.0166 79.2792 49.8047 80.4979 49.3636L80.9363 51.0042C79.4413 51.5323 77.8625 51.7831 76.2774 51.7445C75.3448 51.7988 74.4129 51.6784 73.5412 51.3942C72.6895 51.1192 71.902 50.6753 71.2257 50.0892C70.5721 49.5156 70.0668 48.8268 69.751 48.0697C69.437 47.3237 69.3128 46.5114 69.3897 45.7057C69.3897 42.094 71.8829 39.2403 75.9536 39.2403C80.5177 39.2403 81.6597 42.6852 81.6597 44.8854C81.6817 45.224 81.6817 45.5625 81.6597 45.901H71.8249L71.8829 45.8379ZM79.3383 44.1973C79.4125 43.7571 79.3761 43.3054 79.2326 42.8828C79.0815 42.4474 78.8319 42.0529 78.5033 41.7298C78.1567 41.3852 77.7427 41.1157 77.2872 40.9381C76.8143 40.7505 76.3103 40.6534 75.8016 40.6517C74.7573 40.7178 73.7762 41.1159 73.0557 41.7731C72.3331 42.4267 71.9226 43.2903 71.9028 44.1966L79.3383 44.1973ZM85.5254 43.1875C85.5254 41.779 85.5254 40.5621 85.4116 39.4466H87.6955V41.793H87.8093C88.048 41.0703 88.5437 40.427 89.2237 39.957C89.9067 39.487 90.7417 39.2116 91.6134 39.1683C91.8513 39.1426 92.0951 39.1426 92.336 39.1683V41.2194C92.0452 41.1907 91.7522 41.1907 91.4614 41.2194C90.5977 41.248 89.7745 41.5462 89.1496 42.0595C88.5209 42.5736 88.1339 43.2676 88.0561 44.0078C87.9848 44.3456 87.9474 44.6849 87.9415 45.0257V51.4089H85.4314V43.2044L85.5254 43.1875Z" fill="#CFEDFF"/>
<path d="M80.6095 5.34698C80.656 6.45091 80.3777 7.54423 79.809 8.49157C79.2419 9.43423 78.4084 10.1878 77.4135 10.6572C76.4203 11.1235 75.3103 11.2821 74.2263 11.1126C73.1405 10.9433 72.1298 10.4542 71.3233 9.70769C70.5135 8.95664 69.9432 7.98331 69.684 6.90964C69.4249 5.83596 69.4883 4.70967 69.8663 3.67187C70.2402 2.63609 70.9119 1.73394 71.797 1.07879C72.6801 0.42681 73.7377 0.0532261 74.8344 0.0058671C75.562 -0.0247941 76.2884 0.0889502 76.9719 0.340535C77.6553 0.592121 78.2821 0.976565 78.8161 1.47168C79.9004 2.47574 80.5439 3.86761 80.6065 5.34404L80.6095 5.34698Z" fill="#CFEDFF"/>
<path d="M48.2911 71.0796C33.5316 71.0796 20.6426 65.6716 13.9473 57.6647C16.43 64.8338 21.0744 71.0567 27.241 75.4763C33.3817 79.8758 40.7458 82.2423 48.2999 82.2435C55.8535 82.2408 63.217 79.8744 69.3581 75.4763C75.5236 71.057 80.1662 64.8338 82.6459 57.6647C75.9388 65.6716 63.0498 71.0796 48.2911 71.0796ZM48.2852 19.0072C63.0447 19.0072 75.9359 24.4174 82.629 32.4206C80.1462 25.2518 75.5017 19.0292 69.3353 14.6098C63.1955 10.2104 55.8327 7.84273 48.2793 7.83887C40.726 7.84273 33.3632 10.2104 27.2233 14.6098C21.0561 19.028 16.4118 25.2511 13.9312 32.4206C20.6375 24.4321 33.5257 19.0072 48.2852 19.0072Z" fill="#CFEDFF"/>
<path d="M28.0268 86.6435C28.0873 88.0353 27.7371 89.4141 27.0199 90.6084C26.3073 91.7968 25.2568 92.7461 24.0025 93.3351C22.7482 93.9242 21.3469 94.1264 19.9773 93.916C18.6077 93.7044 17.3334 93.0857 16.3201 92.1403C15.3025 91.1932 14.5853 89.9683 14.2572 88.6175C13.9334 87.2615 14.0133 85.8404 14.4871 84.5292C14.9623 83.2225 15.8125 82.085 16.9311 81.259C18.234 80.3016 19.8298 79.8283 21.444 79.9205C23.0582 80.0127 24.5898 80.6647 25.7752 81.7643C27.1391 83.0318 27.9482 84.7861 28.0268 86.6464V86.6435Z" fill="#CFEDFF"/>
<path d="M15.6313 17.1983C14.82 17.2336 14.0168 17.0249 13.3253 16.5991C12.6292 16.1724 12.0751 15.549 11.7329 14.8077C11.3907 14.0664 11.2759 13.2403 11.4028 12.4337C11.5246 11.6251 11.8843 10.8709 12.436 10.2673C12.9828 9.66636 13.6956 9.2411 14.4842 9.04531C15.2722 8.84847 16.1014 8.89559 16.8621 9.18044C17.6255 9.46168 18.287 9.96536 18.7612 10.6264C19.3212 11.3999 19.5977 12.3427 19.5444 13.2961C19.491 14.2496 19.111 15.1556 18.4682 15.8618C18.1065 16.261 17.6693 16.5846 17.1819 16.814C16.6945 17.0434 16.1665 17.174 15.6283 17.1983H15.6313Z" fill="#CFEDFF"/>
</svg>
