<svg width="40" height="40" viewBox="0 0 40 40" fill="none" xmlns="http://www.w3.org/2000/svg">
<path d="M34.0816 34.0824H28.1549V24.8007C28.1549 22.5874 28.1153 19.7382 25.0724 19.7382C21.9855 19.7382 21.5131 22.1498 21.5131 24.6396V34.0818H15.5866V14.9949H21.2761V17.6034H21.3558C21.9252 16.6298 22.748 15.8289 23.7365 15.2859C24.7251 14.7429 25.8425 14.4783 26.9695 14.5201C32.9766 14.5201 34.0841 18.4713 34.0841 23.6117L34.0816 34.0824ZM8.89907 12.386C6.99954 12.3863 5.45938 10.8467 5.45907 8.94713C5.45876 7.0476 6.99829 5.50744 8.89782 5.50713C10.7974 5.50666 12.3375 7.04635 12.3378 8.94588C12.338 9.85807 11.9758 10.733 11.3309 11.3781C10.686 12.0233 9.81126 12.3858 8.89907 12.386ZM11.8625 34.0826H5.92954V14.9949H11.8624V34.0824L11.8625 34.0826ZM37.0363 0.00291123H2.95141C1.34048 -0.0152138 0.0193823 1.27525 -0.000305176 2.88619V37.1132C0.0187573 38.7249 1.33969 40.0167 2.95126 39.9998H37.0363C38.6513 40.0198 39.9774 38.7281 39.9997 37.1132V2.88354C39.9767 1.26947 38.6505 -0.0208388 37.0363 0.000254983" fill="#009EE6"/>
</svg>
