<svg width="59" height="59" viewBox="0 0 59 59" fill="none" xmlns="http://www.w3.org/2000/svg">
<path d="M3.6875 32.3579L18.3817 26.421C19.8733 24.4495 21.5534 22.6278 23.3981 20.9819C24.6131 20.3371 26.8999 20.6865 31.0865 15.4885C35.141 10.4182 36.432 6.08398 38.3316 6.08398C41.3369 6.08398 43.5494 12.5749 46.9059 22.4026C49.2975 29.9087 52.104 37.2763 55.3125 44.4713C51.8085 41.207 48.8234 37.6872 45.4116 37.7785C42.2403 37.8527 38.7187 41.614 34.8653 46.4451C31.8047 50.316 27.7484 52.9719 26.1642 52.9157C26.1642 52.9157 22.0697 41.3365 18.6417 39.4563C17.9301 39.1652 17.1598 39.0467 16.3936 39.1106C15.6274 39.1744 14.8873 39.4188 14.2337 39.8237L3.6875 32.3394V32.3579Z" fill="#ABD4F5"/>
<path d="M36.5063 7.41113C35.271 9.07143 33.7776 12.1141 31.0857 15.4886C26.8995 20.6866 24.6326 20.3377 23.3973 20.9821C21.5442 22.6193 19.8635 24.4418 18.3813 26.4211L24.4657 30.8646C29.6291 23.8214 32.3948 16.1892 34.552 11.2466C35.0925 9.91487 35.746 8.63186 36.5054 7.41159L36.5063 7.41113Z" fill="url(#paint0_linear_278_157)"/>
<path d="M38.35 6.08491C34.3306 6.08491 31.5834 27.2516 16.7412 39.0705C20.9081 38.3883 24.5218 48.7304 26.1812 52.9166C33.5562 51.6615 39.4571 37.5582 45.4115 37.7794C48.8234 37.9071 51.8084 41.2074 55.3125 44.4722C47.3106 27.6568 43.5678 6.08398 38.35 6.08398V6.08491Z" fill="url(#paint1_linear_278_157)"/>
<defs>
<linearGradient id="paint0_linear_278_157" x1="30.9806" y1="28.3368" x2="27.6803" y2="17.6799" gradientUnits="userSpaceOnUse">
<stop stop-color="#83CAF4"/>
</linearGradient>
<linearGradient id="paint1_linear_278_157" x1="54.7778" y1="35.0004" x2="21.5903" y2="26.8511" gradientUnits="userSpaceOnUse">
<stop offset="0.081" stop-color="#CFEDFF"/>
<stop offset="0.189" stop-color="#CFEDFF"/>
<stop offset="0.313" stop-color="#CFEDFF"/>
<stop offset="0.421" stop-color="#CFEDFF"/>
<stop offset="0.5" stop-color="#CFEDFF"/>
<stop offset="0.58" stop-color="#CFEDFF"/>
<stop offset="0.696" stop-color="#CFEDFF"/>
<stop offset="0.833" stop-color="#CFEDFF"/>
<stop offset="0.916" stop-color="#CFEDFF"/>
</linearGradient>
</defs>
</svg>
