<svg width="117" height="115" viewBox="0 0 117 115" fill="none" xmlns="http://www.w3.org/2000/svg">
<path fill-rule="evenodd" clip-rule="evenodd" d="M79.7603 89.2584C79.9147 88.9687 80.0628 88.7129 80.1889 88.4482C80.2685 88.2788 80.391 88.2449 80.5637 88.2494C81.5993 88.2779 82.635 88.3091 83.6715 88.3189C84.5518 88.3278 85.4338 88.3118 86.315 88.302C87.3077 88.2904 88.3003 88.2396 89.2921 88.2672C90.6129 88.3047 91.8999 88.5569 93.0946 89.13C94.5214 89.8155 95.601 90.8593 96.3368 92.2346C96.7994 93.1067 97.0881 94.0564 97.1878 95.0334C97.345 96.4667 97.2417 97.8671 96.7755 99.2379C96.1978 100.937 95.101 102.237 93.5772 103.212C92.4045 103.961 91.1184 104.404 89.74 104.657C88.2811 104.926 86.8177 104.839 85.3543 104.844C83.7492 104.85 82.145 104.816 80.5399 104.798C80.2593 104.796 80.2191 104.744 80.2932 104.483L80.3617 104.242C80.518 103.762 80.6021 103.741 81.1012 103.661C81.4549 103.606 81.7933 103.481 82.0948 103.293C82.263 103.184 82.3324 102.9 82.3982 102.682C82.4549 102.491 82.4576 102.282 82.4595 102.08C82.4823 99.0276 82.5061 95.9756 82.5189 92.9245C82.5224 92.1528 82.5026 91.3812 82.4595 90.6106C82.4284 90.0713 82.1332 89.7023 81.475 89.5748C80.9632 89.4759 80.4476 89.3992 79.933 89.311L79.7603 89.2584V89.2584ZM94.4547 96.6504C94.3853 96.0425 94.3514 95.4292 94.2399 94.8302C93.973 93.3925 93.3277 92.1401 92.1942 91.1588C90.3615 89.573 88.155 89.3288 85.8424 89.5178C85.3159 89.5606 85.2026 89.7362 85.1944 90.2638C85.1816 91.0126 85.1688 91.7613 85.1678 92.51C85.1642 94.8846 85.1642 97.2592 85.1678 99.6337C85.1688 100.309 85.1761 100.985 85.1962 101.659C85.2181 102.349 85.475 102.933 86.1678 103.2C87.2601 103.622 88.4091 103.672 89.5553 103.499C91.3862 103.226 92.6668 102.186 93.526 100.627C94.2061 99.3895 94.398 98.0391 94.4547 96.6504V96.6504ZM98.9053 104.736C98.8834 104.366 99.0387 104.06 99.2307 103.779C99.2828 103.704 99.462 103.707 99.5854 103.683L100.633 103.481C101.003 103.404 101.198 103.162 101.25 102.808C101.285 102.574 101.318 102.338 101.32 102.102C101.345 100.233 101.363 98.3636 101.374 96.4944C101.383 94.6225 101.376 92.7507 101.376 90.8789L101.368 90.5214C101.33 89.9198 101.032 89.6078 100.42 89.5196L99.0918 89.3226C98.9281 89.3012 98.8687 89.2245 98.9281 89.0828C99.0305 88.8412 99.1283 88.5908 99.2727 88.3733C99.3267 88.2931 99.5086 88.2619 99.6311 88.2645C100.265 88.2735 100.9 88.3198 101.534 88.3189L107.056 88.2868C108.12 88.2859 109.147 88.4669 110.102 88.9634C111.152 89.5089 111.74 90.353 111.908 91.5028C112.083 92.7106 111.708 93.7285 110.803 94.537C110.431 94.8703 109.949 95.0878 109.518 95.3588L109.377 95.4444C109.777 95.5879 110.158 95.7118 110.529 95.8597C111.615 96.2938 112.479 96.9721 112.936 98.0551C113.297 98.9099 113.297 99.8013 113.083 100.687C112.751 102.074 111.814 102.997 110.595 103.695C109.452 104.35 108.214 104.731 106.896 104.796C105.68 104.855 104.459 104.833 103.241 104.846L102.535 104.85C101.361 104.824 100.186 104.795 99.0122 104.764L98.9053 104.736V104.736ZM103.966 99.3084H103.978C103.978 99.8949 103.97 100.481 103.981 101.068C103.988 101.448 103.975 101.838 104.059 102.203C104.185 102.75 104.441 103.243 105.07 103.4C105.91 103.615 106.789 103.653 107.646 103.51C108.721 103.327 109.58 102.802 110.05 101.802C110.4 101.06 110.452 100.273 110.332 99.4688C110.173 98.4099 109.596 97.6415 108.637 97.1379C108.008 96.8072 107.338 96.6049 106.623 96.5782C105.822 96.5487 105.02 96.547 104.22 96.5229C103.995 96.5167 103.964 96.6281 103.965 96.8081C103.969 97.6406 103.966 98.4741 103.966 99.3084V99.3084ZM105.671 95.3196C106.109 95.2982 106.604 95.2919 107.097 95.2438C108.04 95.152 108.705 94.6894 109.051 93.8096C109.228 93.3631 109.22 92.9031 109.225 92.4387C109.239 91.2292 108.515 90.238 107.337 89.828C106.427 89.5115 105.489 89.5062 104.546 89.5312C104.164 89.541 103.993 89.7041 103.987 90.0793L103.931 94.972C103.928 95.1663 104.014 95.25 104.208 95.2563L105.671 95.3196V95.3196Z" fill="#CFEDFF"/>
<path fill-rule="evenodd" clip-rule="evenodd" d="M9.63707 103.794L9.57035 104.635C8.94879 104.635 8.37567 104.631 7.80255 104.637C6.72304 104.648 5.64354 104.665 4.56311 104.68L4.45891 104.686C4.30443 104.668 4.02382 104.668 4.0165 104.624C3.9708 104.373 3.98543 104.11 3.99731 103.851C3.99822 103.822 4.10334 103.784 4.16458 103.77L5.00461 103.587C5.52836 103.454 5.713 103.234 5.73768 102.707C5.76602 102.112 5.79436 101.517 5.7971 100.922C5.80532 99.4585 5.79618 97.9967 5.80258 96.5331C5.8035 96.1908 5.68193 95.9359 5.35469 95.7968C4.96584 95.6285 4.57427 95.4663 4.18012 95.3101C3.99365 95.237 3.75143 95.1969 3.77336 94.9527C3.7953 94.704 4.03021 94.6389 4.25142 94.5899C5.16731 94.3858 6.08411 94.187 6.99726 93.9695C7.29159 93.8991 7.57312 93.7806 7.92504 93.6611C7.94332 93.8465 7.97714 94.023 7.97348 94.1995L7.91955 95.0383C7.91864 95.1327 7.96891 95.2593 8.04112 95.3119C8.085 95.3449 8.23216 95.2852 8.30529 95.2299C9.0859 94.6505 9.91221 94.1505 10.8546 93.859C12.3144 93.4071 13.5675 93.826 14.445 95.0534C14.754 95.4857 14.7549 95.4857 15.1836 95.1836C15.9194 94.6621 16.6891 94.2022 17.5501 93.8991C19.4404 93.2333 21.2566 94.0783 21.9139 95.935C22.1533 96.6088 22.2447 97.305 22.2429 98.0163L22.2255 102.739C22.2246 103.128 22.3572 103.35 22.7374 103.471C23.1643 103.608 23.6067 103.701 24.0875 103.824L23.976 104.636C23.4294 104.636 22.9266 104.633 22.4239 104.637C21.1954 104.648 19.9669 104.654 18.7393 104.682C18.5254 104.687 18.4697 104.635 18.4587 104.44C18.423 103.815 18.4176 103.816 19.0208 103.675L19.2238 103.625C19.8133 103.468 20.0099 103.291 20.0144 102.708C20.0281 101.034 20.0638 99.356 19.977 97.6856C19.8865 95.9528 18.4761 95.0302 16.754 95.4741C16.1982 95.6226 15.6747 95.8684 15.2092 96.1997C15.0492 96.3111 15.0191 96.4395 15.0319 96.6347C15.0803 97.3727 15.1105 98.1116 15.1169 98.8506C15.1278 100.144 15.1114 101.437 15.1169 102.731C15.1187 103.256 15.3024 103.456 15.8335 103.577L16.6223 103.755L16.7686 103.787C16.7796 104.033 16.7896 104.279 16.7777 104.525C16.7704 104.679 16.6479 104.692 16.5108 104.69C15.7439 104.671 14.9761 104.646 14.2092 104.648C13.276 104.65 12.3436 104.676 11.4113 104.692H11.1919C11.1919 104.43 11.1791 104.181 11.201 103.932C11.2056 103.872 11.3135 103.789 11.3875 103.77L12.3071 103.58C12.6974 103.486 12.8838 103.291 12.9058 102.904C13.01 101.113 13.0849 99.3203 12.9122 97.5296C12.8701 97.1759 12.7694 96.8312 12.6142 96.509C12.1434 95.4946 11.084 95.0712 9.86193 95.3761C9.2815 95.5205 8.75775 95.7799 8.26232 96.107C8.15429 96.1719 8.06555 96.2632 8.00493 96.3718C7.94431 96.4805 7.91393 96.6028 7.91681 96.7265C7.91681 98.5136 7.92321 100.301 7.92869 102.087L7.93875 102.776C7.94972 103.257 8.15904 103.51 8.64806 103.613C8.9625 103.683 9.28059 103.73 9.63707 103.794V103.794Z" fill="#CFEDFF"/>
<path fill-rule="evenodd" clip-rule="evenodd" d="M64.8995 93.8456C65.0411 94.5177 65.0384 95.1221 64.532 95.5802C64.0293 96.0357 63.3931 95.8824 62.7724 95.7808C62.83 96.0999 62.894 96.3708 62.9251 96.6454C63.1509 98.6857 62.2505 100.2 60.31 101.066C59.5769 101.392 58.799 101.513 58.0047 101.575C57.6098 101.606 57.2643 101.9 57.2268 102.216C57.1884 102.537 57.395 102.867 57.8082 102.963C58.2954 103.076 58.8036 103.109 59.3036 103.165C60.3767 103.284 61.4617 103.339 62.522 103.526C64.1253 103.807 65.0201 105.172 64.7377 106.743C64.4863 108.14 63.6563 109.157 62.4991 109.937C60.5494 111.255 58.4105 111.64 56.1327 110.968C54.8301 110.583 53.9115 109.747 53.5943 108.396C53.4353 107.719 53.6044 107.107 54.1263 106.648C54.747 106.104 55.4225 105.619 56.0724 105.106L56.2826 104.9L56.0413 104.735C55.3786 104.429 54.8484 104.009 54.6428 103.28C54.5724 103.033 54.6455 102.871 54.8603 102.744C55.2259 102.529 55.5897 102.311 55.9508 102.089C56.1208 101.985 56.289 101.878 56.4471 101.759C56.6628 101.599 56.6436 101.479 56.3859 101.386C55.7863 101.171 55.2534 100.858 54.8402 100.377C54.1501 99.5735 53.9545 98.617 54.0111 97.6071C54.0998 96.0294 54.9782 94.9901 56.406 94.3216C58.1034 93.5274 59.8063 93.4775 61.5366 94.2013C62.1765 94.4687 62.851 94.5257 63.5375 94.4794C64.0503 94.4437 64.4982 94.2548 64.8995 93.8456V93.8456ZM58.6445 105.149C57.3703 105.138 56.9709 105.291 56.2232 106.034C55.3859 106.866 55.3905 108.021 56.2259 108.857C56.8603 109.491 57.6519 109.787 58.5321 109.877C59.5604 109.98 60.5732 109.938 61.5074 109.436C62.5037 108.899 62.9991 107.9 62.7752 106.895C62.5896 106.065 61.9626 105.685 61.1993 105.467C60.331 105.219 59.4334 105.172 58.6445 105.149V105.149ZM56.1418 97.2087C56.1884 97.5537 56.2076 97.9031 56.2862 98.2409C56.4901 99.1162 56.8804 99.8854 57.7734 100.275C58.8219 100.734 60.161 100.537 60.6198 99.1019C60.9333 98.1469 60.8968 97.1153 60.5165 96.1837C60.3554 95.7578 60.0653 95.3897 59.6847 95.1283C58.7743 94.5088 57.1318 94.4268 56.4627 95.7959C56.2451 96.2407 56.1601 96.714 56.1418 97.2087V97.2087Z" fill="#CFEDFF"/>
<path fill-rule="evenodd" clip-rule="evenodd" d="M43.2808 93.6245C43.3147 93.777 43.3823 93.9499 43.3841 94.1237C43.3869 94.4544 43.3503 94.7851 43.3311 95.1158V95.4028L43.6181 95.1889C44.4042 94.5578 45.2488 94.0203 46.2323 93.7306C48.0074 93.2092 49.7807 94.1567 50.3593 95.9198C50.5787 96.5901 50.6655 97.2791 50.6738 97.9797C50.6921 99.536 50.703 101.092 50.7195 102.649C50.725 103.207 50.7908 103.307 51.3328 103.469C51.6413 103.558 51.9559 103.627 52.2743 103.673C52.4489 103.699 52.5238 103.766 52.5147 103.933L52.5165 104.086C52.5101 104.731 52.4644 104.76 51.8237 104.758C50.2899 104.756 48.757 104.765 47.2232 104.777C46.7662 104.781 46.7652 104.794 46.7195 104.354L46.7104 104.101C46.7387 103.721 46.7479 103.724 47.1309 103.669C47.3886 103.632 47.6446 103.574 47.8959 103.51C48.1546 103.445 48.2789 103.258 48.3137 103.009C48.331 102.882 48.3539 102.756 48.353 102.629C48.331 100.928 48.3594 99.2258 48.2643 97.5278C48.1875 96.1542 47.1126 95.3359 45.6985 95.4295C45.0169 95.4756 44.3617 95.7048 43.8055 96.0918C43.428 96.3494 43.3521 96.7211 43.354 97.1213C43.3613 98.7115 43.3768 100.302 43.3942 101.893C43.3978 102.241 43.4079 102.59 43.4417 102.936C43.4774 103.314 43.6136 103.466 43.9938 103.548C44.3576 103.626 44.7287 103.672 45.1172 103.735L45.1501 104.027C45.1629 104.709 45.0898 104.76 44.4106 104.757C42.8247 104.751 41.2388 104.761 39.6538 104.778C39.4043 104.782 39.2983 104.705 39.3047 104.468L39.301 104.366C39.2599 103.752 39.2782 103.729 39.8741 103.629L40.1557 103.574C40.801 103.432 40.9664 103.264 40.9756 102.625C41.0057 100.601 41.0167 98.5778 41.0377 96.5535C41.0405 96.2629 40.928 96.0374 40.6502 95.9171C40.2602 95.7505 39.868 95.5889 39.4738 95.4322C39.2562 95.3448 39.0076 95.2896 38.9994 94.9963C38.9939 94.7895 39.2206 94.6068 39.5304 94.5453C40.1529 94.4223 40.7809 94.3198 41.396 94.1692C42.0085 94.0203 42.6099 93.8206 43.2808 93.6245Z" fill="#CFEDFF"/>
<path fill-rule="evenodd" clip-rule="evenodd" d="M77.5719 98.9129C77.5427 100.803 77.039 102.332 75.6679 103.479C73.9312 104.935 71.2219 105.43 69.0072 104.341C68.062 103.877 67.3673 103.165 66.9149 102.24C66.2211 100.819 66.0474 99.3238 66.4094 97.7925C66.7677 96.2781 67.7083 95.1808 69.1159 94.4704C70.5638 93.7404 72.0885 93.4552 73.6963 93.8385C75.7301 94.3225 77.1917 95.9394 77.4824 97.9984C77.5345 98.3594 77.5546 98.7249 77.5719 98.9129V98.9129ZM75.2164 99.9371L75.1378 99.9282C75.1378 99.7499 75.1478 99.5716 75.136 99.3934C75.0692 98.2827 74.8133 97.2247 74.1533 96.295C73.5272 95.4144 72.6744 94.8947 71.5647 94.819C70.3225 94.7334 69.2786 95.4108 68.9121 96.648C68.3618 98.5056 68.5483 100.316 69.5154 102.017C69.9368 102.759 70.5611 103.306 71.3974 103.594C73.0364 104.157 74.4897 103.428 74.9166 101.792C75.0738 101.188 75.1195 100.556 75.2164 99.9371Z" fill="#CFEDFF"/>
<path fill-rule="evenodd" clip-rule="evenodd" d="M37.3113 99.0577C37.2775 100.414 36.9493 101.668 36.0901 102.759C35.1696 103.926 33.9046 104.55 32.4658 104.813C30.7648 105.123 29.167 104.842 27.8005 103.728C27.1515 103.199 26.7082 102.521 26.4157 101.749C25.9358 100.483 25.816 99.1861 26.1113 97.8642C26.4266 96.4496 27.2456 95.3684 28.5153 94.6428C29.9832 93.8059 31.5673 93.4324 33.2592 93.8085C35.4347 94.2934 36.6906 95.6759 37.155 97.7688C37.2482 98.1913 37.261 98.6281 37.3113 99.0577V99.0577ZM34.9292 99.9526L34.8662 99.9437V99.6888C34.8305 98.4445 34.581 97.259 33.8196 96.225C33.2556 95.4575 32.5006 94.9762 31.5326 94.8416C29.9549 94.6223 28.9238 95.5351 28.582 96.775C28.1359 98.3945 28.2758 99.9945 28.9659 101.53C29.3964 102.488 30.0765 103.234 31.1212 103.596C32.7501 104.16 34.2254 103.413 34.6376 101.783C34.7894 101.186 34.8351 100.564 34.9292 99.9526V99.9526Z" fill="#CFEDFF"/>
<path fill-rule="evenodd" clip-rule="evenodd" d="M75.2842 29.8994C76.4058 33.061 77.212 36.2886 77.478 39.633C77.8071 43.7831 77.6572 47.9047 76.7595 51.9862L76.6444 52.3124C76.3628 52.3133 76.0758 52.2785 75.8007 52.3204C73.4762 52.677 71.1545 53.046 68.8319 53.4132C66.4306 53.7929 64.0276 54.1575 61.6309 54.5622C60.7817 54.7048 59.7306 54.5345 59.3878 55.679L59.2233 55.7334L59.3393 48.8896L59.2214 32.3765L60.3402 32.1893C62.1693 31.8978 63.9983 31.601 65.8301 31.3167C68.0147 30.9788 70.2012 30.649 72.3876 30.3192C73.3528 30.1748 74.319 30.0402 75.2842 29.8994V29.8994Z" fill="#CFEDFF"/>
<path fill-rule="evenodd" clip-rule="evenodd" d="M56.9141 75.6842C55.734 74.6948 54.5129 73.749 53.3822 72.7079C47.2963 67.1103 42.8439 60.5205 40.6511 52.5759C40.0469 50.3903 39.6447 48.1682 39.5149 45.9095C39.4235 44.3283 39.2928 42.7336 39.408 41.1604C39.7123 36.9773 40.333 32.8343 41.5907 28.8045L41.6602 28.7109C41.7827 28.8696 41.9582 29.0104 42.0204 29.1896C43.2489 32.7158 44.4673 36.2455 45.6803 39.7779C49.491 50.8761 53.2971 61.977 57.1143 73.0734C57.1892 73.29 57.3821 73.4674 57.521 73.6626L56.9141 75.6842V75.6842Z" fill="#CFEDFF"/>
<path fill-rule="evenodd" clip-rule="evenodd" d="M75.2841 29.8997C74.318 30.0396 73.3518 30.1751 72.3875 30.3195C70.201 30.6493 68.0146 30.9791 65.83 31.3169C63.9991 31.6004 62.1701 31.8972 60.3401 32.1895L59.2213 32.3767L59.2122 31.6654C59.1747 31.0807 59.1125 30.496 59.1043 29.9113L58.9791 18.7213C58.9498 16.3868 58.906 14.0524 58.8575 11.7188C58.8328 10.2684 58.7899 8.81839 58.7286 7.36903C58.6921 6.59088 58.5632 5.8163 58.512 5.03815C58.4818 4.59069 58.5221 4.13967 58.5321 3.69043C59.1025 4.76807 59.661 5.85374 60.2469 6.92335C61.1728 8.61424 62.6491 9.86035 63.979 11.2197C69.2312 16.5954 72.9597 22.842 75.2841 29.8997V29.8997Z" fill="#CFEDFF"/>
<path fill-rule="evenodd" clip-rule="evenodd" d="M59.2239 55.7325L59.3885 55.6781C59.7312 54.5337 60.7824 54.7039 61.6316 54.5613C64.0282 54.1566 66.4313 53.7921 68.8326 53.4123C71.1552 53.046 73.4769 52.677 75.8014 52.3195C76.0765 52.2776 76.3635 52.3124 76.645 52.3115C76.2109 53.8232 75.869 55.368 75.3178 56.8378C74.6917 58.5046 73.9349 60.1322 73.1314 61.7277C71.9278 64.1071 70.4387 66.3386 68.6954 68.3754C67.3554 69.946 65.8619 71.3998 64.3655 72.8339C63.5374 73.6264 62.563 74.2726 61.6544 74.9857L61.4186 74.8288L60.5713 74.1228L59.6947 72.2474C59.0957 70.0605 58.7689 67.8112 58.7212 65.5481L58.7376 65.1666L58.8574 63.514C58.8967 62.9498 58.9497 62.3864 58.9744 61.8222C59.0621 59.7935 59.1407 57.763 59.2239 55.7325V55.7325Z" fill="#CFEDFF"/>
<path fill-rule="evenodd" clip-rule="evenodd" d="M59.2241 55.7328C59.1418 57.7633 59.0632 59.7946 58.9746 61.8251C58.9499 62.3903 58.8978 62.9536 58.8576 63.5169L58.3238 63.7139C57.1373 60.3081 55.9499 56.9379 54.7891 53.5597C52.8686 47.97 50.972 42.3723 49.0543 36.7809C47.5057 32.2683 45.9463 27.7593 44.3761 23.2538C44.302 23.0434 44.0918 22.8776 43.9456 22.6913L47.3642 16.5615C47.4821 16.7603 47.6365 16.9466 47.7106 17.1605C49.2919 21.7242 50.8705 26.2888 52.4354 30.8579C54.4719 36.8032 56.4947 42.7512 58.5294 48.6974C58.6108 48.9344 58.7442 49.1537 58.8722 49.4202L59.3402 48.889L59.2241 55.7328Z" fill="#CFEDFF"/>
<path fill-rule="evenodd" clip-rule="evenodd" d="M43.9446 22.6904C44.0917 22.8767 44.302 23.0425 44.3751 23.2529C45.9454 27.7583 47.5048 32.2674 49.0533 36.78C50.971 42.3714 52.8677 47.9691 54.7881 53.5588C55.949 56.937 57.1363 60.3063 58.3228 63.713L58.8566 63.516L58.7369 65.1686L58.6281 65.5492C58.4425 67.3577 58.2862 69.1699 58.0595 70.9748C57.9462 71.8796 57.704 72.7673 57.5202 73.6623C57.3822 73.467 57.1884 73.2897 57.1135 73.0731C53.2954 61.9767 49.4902 50.8758 45.6795 39.7776C44.467 36.2457 43.2471 32.7162 42.0196 29.1893C41.9574 29.0101 41.7819 28.8693 41.6594 28.7106L43.9446 22.6904V22.6904Z" fill="#CFEDFF"/>
<path fill-rule="evenodd" clip-rule="evenodd" d="M59.3393 48.8891L58.8713 49.4203C58.7434 49.1538 58.6099 48.9346 58.5286 48.6975C56.4938 42.7513 54.471 36.8033 52.4345 30.858C50.8678 26.2895 49.2929 21.7237 47.7097 17.1606C47.6357 16.9467 47.4812 16.7604 47.3633 16.5616L51.5908 11.1387C51.7243 11.3116 51.9144 11.4658 51.983 11.661C53.1566 15.0125 54.3193 18.3666 55.4765 21.7234C56.5569 24.8592 57.6209 27.9985 58.7141 31.129C58.7872 31.3384 59.0423 31.4864 59.2123 31.6647L59.2214 32.376L59.3393 48.8891V48.8891Z" fill="#CFEDFF"/>
<path fill-rule="evenodd" clip-rule="evenodd" d="M59.2123 31.6643C59.0413 31.4869 58.7872 31.3389 58.7141 31.1286C57.6218 27.9982 56.5569 24.8588 55.4765 21.7231C54.3202 18.3662 53.1557 15.0121 51.983 11.6606C51.9144 11.4654 51.7243 11.3112 51.5908 11.1383C52.9656 9.82534 54.2974 8.46514 55.7279 7.21279C56.9993 6.10039 58.0212 4.90776 58.0688 3.14913L58.1693 2.79883L58.5313 3.68839C58.5222 4.13763 58.481 4.58866 58.5112 5.03612C58.5633 5.81426 58.6922 6.58885 58.7278 7.36699C58.7945 8.81544 58.8265 10.2666 58.8567 11.7168C58.9051 14.0503 58.949 16.3848 58.9783 18.7192L59.1035 29.9092C59.1126 30.4948 59.1757 31.0796 59.2123 31.6643V31.6643Z" fill="#CFEDFF"/>
<path fill-rule="evenodd" clip-rule="evenodd" d="M57.5212 73.6622C57.7049 72.7673 57.9471 71.8795 58.0605 70.9748C58.2872 69.1707 58.4435 67.3577 58.629 65.5491L58.6756 65.542L58.7213 65.55C58.769 67.8131 59.0959 70.0624 59.6948 72.2494C59.5714 72.4081 59.3987 72.548 59.3329 72.7263C58.8256 74.1221 58.3466 75.5296 57.8365 76.9245C57.7671 77.1153 57.5715 77.2641 57.4353 77.4308L56.9133 75.6838L57.5212 73.6622Z" fill="#CFEDFF"/>
<path fill-rule="evenodd" clip-rule="evenodd" d="M57.4351 77.4314C57.5713 77.2638 57.7669 77.1159 57.8363 76.9251C58.3464 75.5302 58.8254 74.1227 59.3327 72.7269C59.3976 72.5486 59.5712 72.4087 59.6946 72.25L60.5712 74.1254C60.3984 74.3643 60.159 74.5809 60.063 74.8474L58.3848 79.6535C58.3153 79.847 58.0804 79.9825 57.9213 80.1456L57.4351 77.4314V77.4314Z" fill="#CFEDFF"/>
<path fill-rule="evenodd" clip-rule="evenodd" d="M57.9214 80.1452C58.0795 79.9821 58.3153 79.8466 58.3848 79.6531L60.063 74.847C60.1581 74.5805 60.3985 74.3639 60.5713 74.125L61.4195 74.8301C61.01 75.2249 60.7824 75.6813 60.9195 76.258L60.6617 77.0807C60.5447 77.2215 60.3747 77.3446 60.3171 77.5059C59.7312 79.1424 59.1727 80.7878 58.5823 82.4235C58.5073 82.6303 58.2998 82.7934 58.1545 82.977L57.9214 80.1452V80.1452Z" fill="#CFEDFF"/>
<path fill-rule="evenodd" clip-rule="evenodd" d="M58.1536 82.9754C58.2999 82.7918 58.5074 82.6286 58.5814 82.4219C59.1719 80.7862 59.7313 79.1408 60.3163 77.5043C60.3739 77.3429 60.5439 77.2208 60.6609 77.0791L60.3053 80.8549C60.2103 80.9618 60.0732 81.0554 60.0275 81.1793L58.8447 84.4844C58.7615 84.7099 58.6024 84.9114 58.4781 85.1226C58.3675 84.9818 58.1701 84.8454 58.1609 84.6992C58.1262 84.127 58.1509 83.5503 58.1536 82.9754V82.9754Z" fill="#CFEDFF"/>
<path fill-rule="evenodd" clip-rule="evenodd" d="M58.479 85.1233C58.6033 84.912 58.7624 84.7106 58.8455 84.4851L60.0283 81.1799C60.074 81.0551 60.2121 80.9624 60.3062 80.8555L60.3154 83.3334L59.4644 85.4611L58.479 85.1233V85.1233Z" fill="#CFEDFF"/>
<path fill-rule="evenodd" clip-rule="evenodd" d="M59.4644 85.4616L60.3153 83.334L60.4908 85.8512L59.4644 85.4616V85.4616Z" fill="#CFEDFF"/>
<path fill-rule="evenodd" clip-rule="evenodd" d="M60.9188 76.259C60.7826 75.6832 61.0093 75.2268 61.4188 74.8311L61.6546 74.9879L60.9188 76.259V76.259Z" fill="#CFEDFF"/>
<path fill-rule="evenodd" clip-rule="evenodd" d="M58.7214 65.5511L58.6756 65.5431L58.6289 65.5502L58.7379 65.1689L58.7214 65.5511V65.5511Z" fill="#CFEDFF"/>
</svg>
