<svg width="105" height="103" viewBox="0 0 105 103" fill="none" xmlns="http://www.w3.org/2000/svg">
<path d="M1.64145 72.3599H5.01129V59.3827L10.2285 70.6961C10.8437 72.0655 11.6862 72.5495 13.3391 72.5495C14.992 72.5495 15.8025 72.0655 16.4177 70.6961L21.6349 59.3827V72.3599H25.0048V59.4043C25.0048 58.1404 24.4863 57.5284 23.4166 57.2133C20.8564 56.4341 19.1387 57.1085 18.3611 58.7939L13.2415 69.9593L8.28434 58.7931C7.53867 57.1085 5.78895 56.4341 3.22875 57.2125C2.15906 57.5284 1.64062 58.1396 1.64062 59.4035V72.3599H1.64145ZM27.8078 61.7961H31.1768V68.9458C31.1456 69.3338 31.3048 70.2457 33.1505 70.2745C34.0922 70.2889 40.4201 70.2745 40.4791 70.2745V61.7609H43.8564C43.872 61.7609 43.8531 73.371 43.8531 73.419C43.8711 76.2828 40.2101 76.9043 38.5219 76.9523H27.8808V74.7413C27.8988 74.7413 38.5145 74.7437 38.5407 74.7405C40.7105 74.5173 40.4537 73.4662 40.4529 73.1127V72.2503H33.2907C29.9586 72.2207 27.8357 70.8025 27.8086 69.1706C27.807 69.021 27.8816 61.868 27.8078 61.7961V61.7961Z" fill="#CFEDFF"/>
<path d="M46.4543 72.3598H56.1439C57.2784 72.3598 58.3809 72.1287 59.2553 71.7287C60.713 71.0759 61.4259 70.1912 61.4259 69.0313V66.6299C61.4259 65.682 60.6162 64.7965 59.0281 64.2078C58.1856 63.891 57.1479 63.7238 56.1431 63.7238H52.0595C50.6986 63.7238 50.0506 63.3238 49.889 62.4391C49.857 62.3335 49.857 62.2495 49.857 62.1439V60.6481C49.857 60.5641 49.857 60.4793 49.889 60.3745C50.0506 59.7002 50.4074 59.5106 51.6067 59.405L51.9308 59.3842H61.5555V57.194H52.0932C50.7323 57.194 50.0194 57.278 49.3714 57.4676C47.3624 58.0787 46.4863 59.0474 46.4863 60.7329V62.6495C46.4863 64.1246 48.2049 65.3885 51.0883 65.6836C51.4131 65.7036 51.7363 65.726 52.0604 65.726H55.5606C55.6902 65.726 55.8199 65.726 55.9175 65.746C56.9872 65.83 57.44 66.0204 57.7648 66.3988C57.8481 66.4737 57.9141 66.565 57.9586 66.6666C58.0032 66.7682 58.0252 66.8778 58.0232 66.9883V68.9057C58.0232 69.1369 57.8616 69.4321 57.5376 69.6849C57.2464 69.9376 56.7599 70.1064 56.1119 70.1488L55.7551 70.1696H46.4543V72.3598ZM82.4505 68.5474C82.4505 70.8008 84.1682 72.0647 87.6349 72.3182C87.9589 72.339 88.2829 72.3598 88.6069 72.3598H97.3892V70.1696H88.5429C86.566 70.1696 85.8211 69.6849 85.8211 68.5258V57.1924H82.4513V68.5474H82.4505ZM63.5767 68.661V60.8497C63.5767 58.8658 65.0057 57.6619 67.8309 57.282C68.1319 57.2399 68.4356 57.2188 68.7398 57.2188H75.1374C75.4622 57.2188 75.7543 57.2396 76.0783 57.282C78.9034 57.6619 80.3333 58.865 80.3333 60.8497V68.661C80.3333 70.272 79.7262 71.1327 78.3276 71.6943L81.6482 74.6164H77.7345L75.0488 72.2518L72.3451 72.419H68.7398C68.07 72.4148 67.404 72.3226 66.7595 72.1447C64.6161 71.5751 63.5767 70.4768 63.5767 68.661V68.661ZM67.214 68.4714C67.214 68.577 67.246 68.6834 67.2788 68.8097C67.4732 69.7177 68.3509 70.224 69.6815 70.224H72.7429L69.9309 67.7482H73.8446L76.2965 69.908C76.7493 69.6721 77.0463 69.3137 77.1504 68.8521C77.1824 68.7466 77.1824 68.641 77.1824 68.5354V61.0416C77.1824 60.9576 77.1824 60.8513 77.1504 60.7457C76.9552 59.9009 76.0783 59.4162 74.7797 59.4162H69.6807C68.1877 59.4162 67.2132 60.0497 67.2132 61.0416V68.4714H67.214Z" fill="#CFEDFF"/>
<path d="M100.354 53.5563C98.2825 53.5011 96.7002 53.689 95.3466 54.245C94.9619 54.4034 94.3491 54.4074 94.2868 54.8769C94.4976 55.0937 94.5304 55.4161 94.6986 55.6817C95.0218 56.1912 95.5673 56.8744 96.0538 57.2319C96.5845 57.6231 97.1325 58.0423 97.7034 58.3814C98.7165 58.9846 99.8485 59.3285 100.826 59.9317C101.401 60.2884 101.971 60.7364 102.533 61.1388C102.811 61.3364 102.997 61.6459 103.359 61.7699V61.7131C103.169 61.4779 103.12 61.1548 102.946 60.9084L102.18 60.1613C101.431 59.1917 100.481 58.3414 99.4695 57.6343C98.664 57.0703 96.8609 56.308 96.5246 55.3937L96.4655 55.3369C97.0365 55.2737 97.7059 55.0721 98.2325 54.9345C99.1184 54.7026 99.91 54.7625 100.825 54.5322L102.062 54.1866V53.9578C101.6 53.4955 101.269 52.8827 100.766 52.4643C99.4474 51.3692 98.0069 50.2749 96.5246 49.3614C95.7027 48.8559 94.6863 48.5271 93.8143 48.0983C93.5223 47.9535 93.0071 47.8792 92.8127 47.6384C92.3541 47.0696 92.1056 46.3489 91.752 45.6857C90.9969 44.2532 90.2897 42.7971 89.6315 41.3197C89.1853 40.3238 88.8932 39.3415 88.3362 38.448C85.6612 34.1596 82.7819 31.571 78.3219 29.0272C77.3728 28.4857 76.2301 28.2729 75.0234 27.9937L73.0793 27.8785C72.6847 27.7177 72.2729 27.2458 71.9013 27.017C70.4231 26.1067 66.6332 24.1269 65.5389 26.7306C64.8482 28.3737 66.5725 29.9767 67.1886 30.8095C67.6209 31.3934 68.1754 32.0478 68.4847 32.7045C68.6881 33.1365 68.7226 33.5692 68.8973 34.026C69.3247 35.1507 69.6979 36.3754 70.2516 37.4145C70.5314 37.9408 70.8406 38.4952 71.1942 38.9655C71.4107 39.2535 71.7832 39.3815 71.8414 39.8271C71.478 40.323 71.4567 41.0942 71.2524 41.7221C70.332 44.553 70.679 48.0719 72.0186 50.167C72.4296 50.8109 73.3975 52.19 74.7281 51.6604C75.8921 51.1981 75.6329 49.7654 75.9659 48.5007C76.0414 48.2151 75.9946 48.0039 76.1423 47.812V47.8696L77.203 49.9374C77.988 51.1701 79.3801 52.4571 80.5605 53.3267C81.1725 53.777 81.6548 54.557 82.4456 54.8201V54.7617H82.3873C82.2331 54.529 81.9944 54.433 81.7975 54.245C81.3365 53.8042 80.8238 53.2571 80.4432 52.7515C79.3694 51.3308 78.4211 49.775 77.5565 48.1559C77.1439 47.3832 76.7854 46.5305 76.4376 45.7433C76.3031 45.4402 76.3047 44.981 76.0258 44.825C75.6436 45.401 75.0833 45.8673 74.788 46.5481C74.3171 47.636 74.2564 48.9631 74.0817 50.3389L73.9636 50.3957C73.1424 50.2029 72.8545 49.379 72.5493 48.6727C71.7782 46.8864 71.6347 44.0091 72.3139 41.9525C72.4895 41.4197 73.2827 39.7439 72.9611 39.2519C72.8077 38.7616 72.3016 38.4784 72.0194 38.1024C71.6492 37.5993 71.3333 37.0603 71.0769 36.4938C70.4452 35.1011 70.1507 33.5372 69.4871 32.1286C69.1688 31.455 68.6323 30.7743 68.191 30.1759C67.7029 29.512 67.1558 29.024 66.7768 28.2225C66.6423 27.9377 66.4593 27.481 66.6587 27.1882C66.7218 26.9906 66.8129 26.9082 67.013 26.8434C67.3543 26.5866 68.3059 26.929 68.6619 27.073C69.6069 27.4562 70.3952 27.8201 71.1958 28.3369C71.5797 28.5857 71.9677 29.0656 72.4329 29.1984H72.9628C73.7921 29.384 74.7215 29.2552 75.4959 29.4848C76.8658 29.8912 78.093 30.5223 79.207 31.2086C82.6023 33.2996 85.3774 36.2754 87.2772 39.8255C87.5824 40.3974 87.7153 40.9422 87.9835 41.5485C88.5266 42.7708 89.2107 44.0291 89.7505 45.225C90.2894 46.4177 90.8152 47.6216 91.5773 48.6143C91.9776 49.1358 93.5247 49.4158 94.2277 49.7054C94.7207 49.9086 95.5279 50.1206 95.9947 50.3941C96.8864 50.9189 97.751 51.5436 98.5869 52.118C99.0044 52.4076 100.29 53.0371 100.354 53.5563V53.5563ZM74.0226 31.671C73.6655 31.6653 73.3091 31.704 72.962 31.7862V31.843H73.021C73.2269 32.2565 73.5903 32.5221 73.8454 32.8773L74.4352 34.0836L74.4935 34.0268C74.8585 33.7764 75.025 33.3756 75.0234 32.7629C74.8766 32.6125 74.8552 32.4245 74.7289 32.2461C74.5616 32.0062 74.2351 31.8718 74.0226 31.671V31.671Z" fill="#CFEDFF"/>
</svg>
