<svg width="128" height="145" viewBox="0 0 128 145" fill="none" xmlns="http://www.w3.org/2000/svg">
<path d="M122.941 32.0514L70.1895 1.42116C66.8627 -0.47372 62.531 -0.47372 59.1779 1.42116L5.86288 32.0514C2.42961 34.0265 0 37.7385 0 41.7089V102.888C0 106.858 2.49301 110.572 5.92628 112.557L20.0123 120.558C26.7448 123.874 29.1242 123.874 32.1878 123.874C42.1563 123.874 47.8505 117.846 47.8505 107.332V46.9329C47.8505 46.08 47.4067 44.8108 46.5693 44.8108H39.8427C38.991 44.8108 37.0841 46.08 37.0841 46.9317V107.331C37.0841 111.992 32.8685 116.63 24.9899 112.69L10.435 104.301C9.92777 104.026 9.57009 103.472 9.57009 102.888V41.7089C9.57009 41.1323 10.234 40.5533 10.7448 40.2578L63.8875 9.68015C64.384 9.39903 65.1137 9.39903 65.609 9.68015L118.103 40.2506C118.606 40.5533 118.429 41.1143 118.429 41.7089V102.888C118.429 103.472 118.648 104.04 118.151 104.321L65.4128 134.917C64.9606 135.188 64.3995 135.188 63.9043 134.917L50.3782 126.843C49.9702 126.606 49.4858 126.521 49.0946 126.74C45.3311 128.873 44.6373 129.157 41.1071 130.381C40.2387 130.683 38.9575 131.208 41.5976 132.688L59.2999 143.16C60.9899 144.136 62.9072 144.65 64.8589 144.651C66.8232 144.651 68.7468 144.141 70.4419 143.16L122.94 112.557C126.373 110.557 128 106.858 128 102.888V41.7089C128 37.7385 126.373 34.036 122.941 32.0514V32.0514ZM81.2381 93.1936C67.2108 93.1936 64.1208 89.3237 63.0908 82.3483C62.9712 81.597 62.3336 80.6986 61.5692 80.6986H54.7134C53.8653 80.6986 53.1834 81.7274 53.1834 82.572C53.1834 91.5033 58.039 102.325 81.2393 102.325C98.0336 102.325 107.662 95.799 107.662 84.2503C107.662 72.7997 99.9261 69.7947 83.639 67.639C67.1761 65.463 65.5037 64.3637 65.5037 60.5069C65.5037 57.3273 66.9201 53.0865 79.11 53.0865C90.0019 53.0865 94.0166 55.424 95.6686 62.7655C95.8098 63.4557 96.4402 63.951 97.152 63.951H104.035C104.459 63.951 104.863 63.7799 105.16 63.4772C105.447 63.1519 105.599 62.7439 105.561 62.3061C104.495 49.664 96.0957 43.7724 79.1088 43.7724C63.9988 43.7724 54.985 50.1533 54.985 60.8491C54.985 72.4504 63.9533 75.6564 78.458 77.0907C95.8098 78.7918 97.1592 81.3279 97.1592 84.7408C97.1592 90.6683 92.4005 93.1936 81.2381 93.1936Z" fill="#CFEDFF"/>
</svg>
