<svg width="76" height="75" viewBox="0 0 76 75" fill="none" xmlns="http://www.w3.org/2000/svg">
<path d="M51.0554 44.0471C51.4306 41.0004 51.3184 40.5534 53.6453 41.0467L54.2361 41.0977C56.0257 41.177 58.3668 40.8169 59.7413 40.1939C62.7018 38.8547 64.4569 36.6174 61.538 37.2051C54.8791 38.5443 54.4213 36.3465 54.4213 36.3465C61.4531 26.1729 64.3928 13.259 61.8557 10.0977C54.9361 1.47525 42.9578 5.55254 42.7571 5.6585L42.693 5.67066C41.3772 5.40374 39.9053 5.24509 38.2512 5.21904C35.2379 5.17098 32.9513 5.98968 31.217 7.27216C31.217 7.27216 9.84853 -1.31262 10.8425 18.0681C11.0538 22.1912 16.9029 49.2656 23.8788 41.0879C26.4284 38.0979 28.8925 35.5694 28.8925 35.5694C30.1162 36.3621 31.581 36.7662 33.1176 36.6209L33.2363 36.5225C33.1995 36.8936 33.2156 37.2566 33.2844 37.6863C31.4872 39.645 32.0156 39.9889 28.4222 40.7098C24.7873 41.4405 26.923 42.7409 28.3165 43.0808C30.0075 43.4936 33.9174 44.0778 36.5602 40.4701L36.4551 40.8817C37.1604 41.4318 37.1123 44.8345 37.2121 47.2657C37.3118 49.697 37.4793 51.9655 37.9875 53.3041C38.4958 54.6416 39.0955 58.0872 43.8176 57.1006C47.7636 56.2749 50.7805 55.088 51.0554 44.0471Z" fill="#CFEDFF"/>
<path d="M42.2797 59.504C40.1909 59.504 38.8312 58.7166 38.0047 57.9558C36.7579 56.8088 36.2633 55.3306 35.9682 54.4477L35.8405 54.0789C35.2456 52.5127 35.0443 50.2581 34.925 47.355C34.9074 46.9011 34.8925 46.4472 34.8804 45.9932C34.8703 45.6452 34.8579 45.2086 34.84 44.7506C34.0876 45.1006 33.2888 45.3469 32.4668 45.4825C30.9943 45.728 29.4114 45.6481 27.7608 45.2457C26.5964 44.962 25.3864 44.3737 24.697 43.4647C22.6872 45.1814 20.77 44.9481 19.7255 44.6088C17.8831 44.0095 16.2343 42.3264 14.684 39.4615C13.5802 37.4217 12.5121 34.763 11.5092 31.5605C9.76361 25.9831 8.65449 20.1086 8.55592 18.1805C8.24599 12.1433 9.91205 7.82632 13.5078 5.34995C19.1811 1.44231 27.7756 3.73976 30.9088 4.78312C33.0137 3.5458 35.4902 2.94307 38.2891 2.98707C39.7925 3.01081 41.2235 3.13992 42.5529 3.37036C43.9393 2.94538 46.6788 2.33512 49.8144 2.37275C55.5916 2.43992 60.379 4.63547 63.6583 8.72203C65.9983 11.6379 64.8416 17.7602 63.9433 21.1508C62.6804 25.9188 60.4663 30.9914 57.7469 35.4068C58.4855 35.412 59.5549 35.3252 61.0761 35.0195C64.0769 34.415 64.9539 35.9841 65.192 36.6864C66.1461 39.5044 61.9988 41.6333 60.705 42.2187C59.0472 42.9697 56.3451 43.4265 54.1316 43.3275L54.0348 43.3211L53.4535 43.2713L53.3959 43.7438L53.3407 44.2064C53.1923 49.8018 52.3723 53.3453 50.6855 55.6873C48.9179 58.1417 46.4603 58.8301 44.2961 59.2823C43.6339 59.4256 42.958 59.4999 42.2797 59.504ZM37.8848 39.1384C39.2332 40.1905 39.3514 42.1701 39.4565 45.8698C39.4695 46.3313 39.482 46.7684 39.4986 47.1766C39.5497 48.4122 39.669 51.306 40.1333 52.5289C40.1992 52.7014 40.258 52.8774 40.3198 53.0627C40.8375 54.6098 41.0976 55.3851 43.3366 54.9172C45.217 54.5247 46.183 54.1721 46.9395 53.1218C48.0391 51.5944 48.6542 48.524 48.767 43.9927L51.0542 44.0472L48.7825 43.7814L48.849 43.2285C49.0669 41.4058 49.2236 40.088 50.4735 39.2172C51.4757 38.5183 52.6187 38.5861 53.5289 38.7459C52.529 38.01 52.2524 37.145 52.1787 36.7906L51.9881 35.8746L52.5237 35.0988C55.6112 30.6312 58.1578 25.1406 59.5104 20.0345C60.8997 14.7876 60.4758 12.0009 60.0525 11.474C54.4439 4.48493 44.7165 7.37007 43.7012 7.69836L43.529 7.78868L42.668 7.94559L42.2269 7.85643C41.0115 7.61035 39.6613 7.47429 38.2131 7.45113C35.9385 7.41407 34.1038 7.93807 32.5992 9.05148L31.5554 9.82328L30.3436 9.33634C27.756 8.30457 20.1536 6.23003 16.1423 9.00052C13.9157 10.5383 12.9016 13.552 13.1272 17.9576C13.2014 19.412 14.2155 24.9177 15.8864 30.2584C18.1966 37.6383 20.2961 40.0891 21.1725 40.3746C21.3251 40.425 21.7223 40.1239 22.1172 39.6618C24.6857 36.6493 27.1284 34.1382 27.2311 34.0323L28.5558 32.6734L30.1571 33.7109C30.8025 34.1295 31.5145 34.3664 32.246 34.4109L36.0655 31.2346L35.5122 36.7408C35.4997 36.8647 35.4938 37.0326 35.5436 37.3453L35.7099 38.3892L34.9897 39.1755L34.9065 39.2664L37.0049 40.2113L37.8848 39.1384Z" fill="#CFEDFF"/>
<path d="M61.5398 37.2054C54.8803 38.5446 54.4225 36.3462 54.4225 36.3462C61.4537 26.1726 64.3928 13.2581 61.8563 10.0974C54.9361 1.47495 42.9578 5.55282 42.7577 5.65878L42.693 5.66978C41.3773 5.40402 39.9054 5.24537 38.2506 5.21932C35.2373 5.17126 32.9514 5.98938 31.217 7.27186C31.217 7.27186 9.84795 -1.31234 10.8419 18.0684C11.0533 22.1914 16.9023 49.2659 23.8783 41.0881C26.4278 38.0982 28.8913 35.5697 28.8913 35.5697C30.115 36.3624 31.5798 36.7665 33.1158 36.6212L33.2352 36.5228C33.1984 36.8939 33.215 37.2569 33.2827 37.6865C31.486 39.6453 32.0132 39.9892 28.421 40.7101C24.7855 41.4407 26.9212 42.7412 28.316 43.081C30.0064 43.4939 33.9168 44.0781 36.559 40.4703L36.4533 40.882C37.1575 41.4321 37.6521 44.4596 37.569 47.2041C37.4858 49.9485 37.4306 51.8326 37.9858 53.3044C38.5409 54.7756 39.0937 58.0875 43.8164 57.1009C47.7625 56.2758 49.8073 54.1387 50.0923 50.5744C50.2942 48.0401 50.7508 48.4148 50.7799 46.1486L51.1468 45.0757C51.569 41.6399 51.2139 40.5317 53.6453 41.0476L54.2361 41.098C56.0257 41.1779 58.3674 40.8172 59.742 40.1942C62.7024 38.8544 64.4581 36.6177 61.5398 37.2054Z" fill="#CFEDFF"/>
<path d="M42.5184 58.1282C38.5813 58.1287 37.3344 55.0884 36.8238 53.8453C36.0774 52.0238 35.9159 44.9531 36.0822 39.1544C36.0933 38.9609 36.1814 38.7791 36.3277 38.6479C36.4741 38.5166 36.6672 38.4462 36.866 38.4517C37.0647 38.4571 37.2535 38.5379 37.3921 38.6769C37.5307 38.816 37.6082 39.0022 37.6081 39.1961C37.4164 45.8841 37.6889 51.9445 38.2411 53.2924C39.1038 55.3953 40.4118 57.2348 44.1115 56.4624C47.6235 55.7276 48.9387 54.429 49.5241 51.1183C49.9742 48.577 50.8624 41.3483 50.9717 39.9216C50.9867 39.7248 51.0813 39.5419 51.2346 39.4132C51.3879 39.2844 51.5875 39.2203 51.7893 39.2349C51.9911 39.2496 52.1786 39.3418 52.3107 39.4914C52.4427 39.6409 52.5085 39.8354 52.4934 40.0322C52.3794 41.5168 51.4948 48.7322 51.0275 51.3713C50.3358 55.2824 48.548 57.0564 44.4309 57.9174C43.8028 58.0528 43.1617 58.1234 42.5184 58.1282ZM21.1725 43.2798C20.8285 43.2794 20.4868 43.2245 20.1608 43.1171C17.6035 42.2851 15.1679 38.224 12.9212 31.0456C11.2112 25.581 10.1276 19.8779 10.0326 18.0246C9.75057 12.5299 11.2023 8.64193 14.3462 6.46953C20.5663 2.17165 31.0306 6.26457 31.4729 6.44058C31.6585 6.51634 31.806 6.66054 31.8831 6.84179C31.9602 7.02304 31.9608 7.22666 31.8847 7.40832C31.8085 7.58997 31.6619 7.73495 31.4767 7.81168C31.2915 7.88842 31.0827 7.89069 30.8958 7.81802V7.8186C30.7949 7.77807 20.7605 3.85826 15.2255 7.68601C12.537 9.54516 11.3026 12.9983 11.5562 17.951C11.6363 19.512 12.6487 25.0791 14.3806 30.6119C16.3863 37.0197 18.6693 41.064 20.6435 41.7055C20.9529 41.8068 21.8957 42.1131 23.2447 40.5325C25.7812 37.5564 28.1117 35.1814 28.1348 35.1576C28.2768 35.0236 28.4664 34.9483 28.664 34.9478C28.8616 34.9472 29.0517 35.0214 29.1944 35.1547C29.3371 35.288 29.4212 35.47 29.4291 35.6625C29.4371 35.8551 29.3681 36.0431 29.2369 36.1871C29.2137 36.2103 26.9188 38.55 24.418 41.4838C23.2334 42.8722 22.0976 43.2798 21.1725 43.2798ZM54.375 37.0098C54.2365 37.01 54.1005 36.9734 53.9817 36.9039C53.8629 36.8344 53.7657 36.7346 53.7007 36.6153C53.6357 36.496 53.6052 36.3617 53.6126 36.2267C53.62 36.0918 53.665 35.9614 53.7427 35.8495C60.8505 25.5643 63.3454 13.1373 61.2085 10.475C58.5188 7.1238 54.7206 5.37292 49.9201 5.27275C46.3653 5.19748 43.5397 6.08276 43.0784 6.23736L42.9626 6.2831C42.4983 6.42553 42.142 6.17714 42.0078 5.88706C41.9314 5.72086 41.9198 5.53315 41.9754 5.35923C42.0309 5.18531 42.1497 5.03719 42.3094 4.94272L42.5149 4.8605L42.5048 4.8634L42.5155 4.85992C43.2998 4.58027 46.1682 3.74072 49.7218 3.78068C55.0341 3.8351 59.4219 5.83322 62.4109 9.55732C63.8252 11.3198 63.8281 15.3803 62.4198 20.6972C60.9841 26.1178 58.2825 31.9442 55.0086 36.6816C54.9388 36.7828 54.8445 36.8658 54.734 36.923C54.6234 36.9803 54.5002 37.0101 54.375 37.0098ZM54.7378 41.7709C53.5242 41.7709 52.4364 41.6048 51.7851 41.2238C51.1154 40.833 50.9877 40.3009 50.9711 40.0189C50.7882 36.89 52.5588 36.3452 53.4618 36.0968C53.336 35.9115 53.1567 35.6932 52.972 35.468C52.4454 34.8265 51.7245 33.9475 51.1688 32.6332C51.0821 32.4283 50.809 31.9506 50.4931 31.3982C48.7813 28.4054 45.22 22.1771 47.5077 18.9874C48.567 17.5116 50.6748 16.9308 53.7813 17.2551C52.8675 14.5402 48.5153 6.04687 38.19 5.88185C35.0841 5.8309 32.5369 6.76251 30.6233 8.64656C26.3382 12.8669 26.4937 20.5027 26.4955 20.5785C26.4981 20.6762 26.481 20.7734 26.4451 20.8646C26.4091 20.9558 26.3552 21.0392 26.2862 21.1101C26.2172 21.1809 26.1346 21.2379 26.0431 21.2776C25.9515 21.3173 25.8529 21.3391 25.7527 21.3416C25.6526 21.3442 25.5529 21.3275 25.4594 21.2924C25.3658 21.2574 25.2803 21.2048 25.2076 21.1375C25.1349 21.0703 25.0766 20.9897 25.0358 20.9004C24.9951 20.8112 24.9728 20.715 24.9702 20.6173C24.9607 20.2786 24.8004 12.2659 29.5391 7.59916C31.7567 5.41518 34.6756 4.33709 38.2149 4.39325C44.8222 4.49921 49.074 7.77401 51.4781 10.5034C54.0978 13.4771 55.3826 16.7577 55.4883 17.852C55.5673 18.6661 54.9682 18.8294 54.8471 18.8531L54.5722 18.8595C51.5233 18.3835 49.5674 18.7136 48.7588 19.8409C47.0185 22.2657 50.3874 28.157 51.8261 30.6733C52.1936 31.3148 52.4584 31.7786 52.5795 32.0652C53.0522 33.1827 53.6685 33.9336 54.1637 34.537C54.5989 35.0679 54.9765 35.5276 55.1119 36.0684C55.1742 36.1755 56.0637 37.4574 61.3391 36.3955C62.6614 36.1298 63.4541 36.3573 63.6963 37.0718C64.1731 38.4782 61.4983 40.1179 60.0174 40.789C58.6886 41.3905 56.5707 41.7709 54.7378 41.7709ZM52.4928 39.8961C52.6597 40.0612 53.4969 40.3449 55.2312 40.2725C56.7726 40.2076 58.3989 39.8805 59.375 39.4393C60.6231 38.8742 61.4555 38.2425 61.8872 37.8112L61.6473 37.854C58.2742 38.5332 55.8885 38.4429 54.5567 37.5848C54.4671 37.5272 54.3809 37.4648 54.2984 37.3978C54.1542 37.4534 54.0206 37.4898 53.9256 37.5159C53.1697 37.7226 52.3883 37.9362 52.4928 39.8961ZM30.704 44.0528C29.8662 44.0528 28.9845 43.9422 28.0838 43.7216C27.151 43.494 25.5776 42.8091 25.6019 41.6841C25.6286 40.4213 27.5114 40.0426 28.2209 39.9002C30.7812 39.3861 30.948 39.1799 31.7484 38.1893C31.9818 37.9003 32.2721 37.5408 32.6675 37.1094C33.2554 36.4685 33.8978 36.1431 34.577 36.1431C35.0497 36.1431 35.438 36.3 35.6939 36.4031C36.5109 36.7331 37.1925 37.5309 37.4728 38.4863C37.7257 39.3478 37.6052 40.177 37.1331 40.8208C35.5846 42.9359 33.3616 44.0528 30.704 44.0528ZM27.2502 41.7484C27.4805 41.9215 27.9413 42.1531 28.4537 42.2787C29.2339 42.4686 29.9903 42.5653 30.704 42.5653C32.8783 42.5653 34.6234 41.687 35.8916 39.9564C36.1558 39.5951 36.0769 39.1371 36.0062 38.8956C35.8578 38.3908 35.4896 37.9316 35.1102 37.7776C34.9042 37.6942 34.7338 37.6305 34.577 37.6305C34.4927 37.6305 34.2368 37.6305 33.8052 38.1013C33.4406 38.4984 33.1788 38.8227 32.9466 39.1093C31.9503 40.3431 31.4937 40.7617 28.5285 41.3575C27.8053 41.5034 27.4342 41.6505 27.2502 41.7484ZM33.1176 38.3161C32.9355 38.3158 32.7594 38.252 32.6213 38.1363C32.4831 38.0206 32.3919 37.8605 32.3641 37.685C32.3446 37.5614 32.3319 37.437 32.3261 37.3121C30.3822 37.2762 28.5071 36.4633 27.0839 35.0146C25.2843 33.1833 24.4649 30.6461 24.8366 28.0539C25.2403 25.2389 25.0895 22.7538 25.0082 21.4186C24.9878 21.144 24.9753 20.8689 24.9708 20.5936C24.9719 20.3585 24.9767 19.7338 27.1172 18.6759C27.8784 18.2996 29.4049 17.643 31.0721 17.4745C33.8354 17.1966 35.6565 18.3963 36.2015 20.8535C37.6729 27.4888 36.3179 30.4238 35.3287 32.5666C35.1441 32.965 34.9701 33.3425 34.8312 33.7073L34.7083 34.0298C34.1858 35.3962 33.7339 36.5768 33.8729 37.4591C33.9034 37.6542 33.8533 37.8531 33.7337 38.0122C33.614 38.1714 33.4345 38.2777 33.2346 38.308L33.1176 38.3161ZM26.5014 20.7991L26.5317 21.3306C26.616 22.7173 26.7728 25.2985 26.3477 28.2606C26.0413 30.3983 26.711 32.4856 28.1853 33.9858C29.3503 35.1715 30.8845 35.8258 32.4609 35.8258H32.4936C32.6705 35.1003 32.9632 34.3349 33.2785 33.5098L33.4008 33.1896C33.5582 32.7774 33.7422 32.3785 33.937 31.9564C34.8894 29.8928 36.0745 27.3244 34.7094 21.1679C34.4387 19.9491 33.7832 19.2433 32.7055 19.0106C30.492 18.5335 27.1938 20.157 26.5014 20.7991ZM31.1066 20.4836C31.0686 20.7464 31.6012 21.4487 32.2947 21.5425C32.9876 21.6369 33.5807 21.088 33.6181 20.8252C33.6555 20.5617 33.1235 20.2722 32.4294 20.1778C31.7365 20.0835 31.1434 20.2201 31.1066 20.4836ZM32.4544 21.8019L32.2596 21.7886C31.8292 21.7301 31.3939 21.4655 31.0965 21.0805C30.992 20.9456 30.821 20.6827 30.8548 20.4488C30.9035 20.1055 31.3322 19.9005 32.0025 19.9005C32.1528 19.9005 32.3083 19.9115 32.4657 19.9324C32.8314 19.9821 33.1716 20.0852 33.4228 20.2219C33.858 20.4592 33.8901 20.7233 33.8705 20.8605C33.8164 21.2386 33.1978 21.8019 32.4544 21.8019ZM31.3595 20.5276C31.3815 20.6897 31.7929 21.2253 32.3297 21.2976L32.4538 21.3063C32.949 21.3063 33.3195 20.9259 33.3628 20.8014C33.3171 20.7169 32.9988 20.5056 32.3944 20.4245C32.2644 20.4063 32.1333 20.397 32.0019 20.3967C31.6148 20.3961 31.4076 20.4812 31.3595 20.5276ZM52.2126 19.9468C52.25 20.2103 51.7186 20.9126 51.0245 21.0064C50.331 21.1002 49.7379 20.5519 49.6999 20.2884C49.663 20.0256 50.195 19.7355 50.8885 19.6417C51.582 19.5467 52.1746 19.6845 52.2126 19.9468ZM50.8648 21.1407C50.1968 21.1407 49.6215 20.6341 49.574 20.3058C49.5193 19.9115 50.1849 19.6116 50.8713 19.519C51.0221 19.4981 51.1718 19.4877 51.316 19.4877C51.908 19.4877 52.2999 19.6573 52.3391 19.93C52.3646 20.1072 52.2257 20.3799 51.9858 20.6254C51.8279 20.7875 51.4953 21.0683 51.0429 21.1291L50.8648 21.1407ZM51.3154 19.7355C51.183 19.7355 51.0453 19.7453 50.9058 19.7639C50.2158 19.8571 49.8055 20.1275 49.8251 20.2722C49.8483 20.4309 50.2883 20.8929 50.8642 20.8929L51.0061 20.8831C51.3825 20.8315 51.6652 20.5924 51.7999 20.454C52.0113 20.2369 52.0956 20.0331 52.0855 19.963C52.0731 19.8721 51.8189 19.7355 51.3154 19.7355ZM53.2119 35.0517C53.0737 35.0516 52.9381 35.0149 52.8196 34.9456C52.7011 34.8762 52.6042 34.7768 52.5391 34.6579C52.4741 34.539 52.4434 34.4051 52.4503 34.2705C52.4572 34.1359 52.5015 34.0057 52.5784 33.8937C54.2029 31.5273 53.9054 29.1135 53.618 26.7801C53.4951 25.7854 53.3686 24.7577 53.4019 23.7705C53.4351 22.7555 53.5669 21.9183 53.6952 21.1077C53.8466 20.1483 53.9897 19.241 53.9303 18.1653C53.926 17.9719 53.9989 17.7845 54.1337 17.6427C54.2686 17.5009 54.4547 17.4157 54.6527 17.4054C54.8507 17.395 55.0451 17.4601 55.1948 17.5871C55.3444 17.714 55.4376 17.8927 55.4545 18.0854C55.5222 19.3151 55.3601 20.3411 55.2033 21.3341C55.0822 22.1001 54.9569 22.8922 54.9266 23.818C54.8975 24.6917 55.0121 25.6198 55.1333 26.6018C55.4396 29.084 55.7858 31.8973 53.8466 34.7211C53.6994 34.9353 53.4577 35.0517 53.2119 35.0517Z" fill="white"/>
<path d="M1.68329 59.7428C2.53579 59.608 3.39832 59.5425 4.26195 59.5471C5.58898 59.5471 6.56213 59.8482 7.17963 60.3901C7.75082 60.8718 8.09045 61.6095 8.09045 62.5133C8.09045 63.4316 7.81198 64.1542 7.2871 64.6811C6.57698 65.4187 5.41916 65.7951 4.10698 65.7951C3.7056 65.7951 3.3351 65.78 3.02694 65.7047V69.7699H1.68329V59.7428ZM3.02694 64.6353C3.32026 64.7106 3.69076 64.7407 4.13844 64.7407C5.75879 64.7407 6.74738 63.9729 6.74738 62.5729C6.74738 61.2331 5.77482 60.5858 4.29282 60.5858C3.7062 60.5858 3.25851 60.631 3.02694 60.6912V64.6353ZM16.226 66.0654C16.226 68.7601 14.3112 69.9349 12.505 69.9349C10.4827 69.9349 8.92348 68.4897 8.92348 66.1859C8.92348 63.7471 10.5599 62.317 12.6285 62.317C14.7749 62.3164 16.226 63.8375 16.226 66.0654ZM10.298 66.1407C10.298 67.7364 11.2397 68.9407 12.5673 68.9407C13.8641 68.9407 14.836 67.7515 14.836 66.1106C14.836 64.8762 14.2037 63.3106 12.5976 63.3106C10.9915 63.3106 10.298 64.7558 10.298 66.1407ZM17.7537 68.4139C18.1551 68.6698 18.8652 68.9407 19.5445 68.9407C20.5325 68.9407 20.9956 68.459 20.9956 67.8569C20.9956 67.2246 20.6103 66.8784 19.6062 66.5171C18.2632 66.0504 17.6302 65.3278 17.6302 64.4547C17.6302 63.2805 18.6028 62.317 20.2083 62.317C20.9647 62.317 21.6291 62.5278 22.0459 62.7686L21.7063 63.7321C21.2469 63.456 20.7177 63.31 20.178 63.3106C19.3753 63.3106 18.9276 63.7622 18.9276 64.3041C18.9276 64.9063 19.3759 65.1773 20.3484 65.5386C21.6452 66.0203 22.309 66.6525 22.309 67.7364C22.309 69.016 21.2901 69.9192 19.5148 69.9192C18.6966 69.9192 17.9402 69.7235 17.4153 69.4225L17.7537 68.4139ZM25.6892 60.3895V62.482H27.6337V63.4906H25.6892V67.4197C25.6892 68.3229 25.951 68.8348 26.7081 68.8348C26.9734 68.8385 27.2382 68.8081 27.4954 68.7445L27.5571 69.738C27.2953 69.8434 26.8779 69.9187 26.3536 69.9187C25.7207 69.9187 25.2106 69.723 24.8864 69.3617C24.5011 68.9703 24.3616 68.323 24.3616 67.4649V63.4906H23.2038V62.482H24.3616V60.7358L25.6892 60.3895ZM35.5074 62.4826C35.476 63.0095 35.4457 63.5966 35.4457 64.4848V68.7149C35.4457 70.3859 35.1061 71.4096 34.3805 72.0424C33.6549 72.7048 32.6052 72.9155 31.6635 72.9155C30.7681 72.9155 29.7801 72.7048 29.1775 72.3134L29.5171 71.3048C30.0111 71.6059 30.783 71.8768 31.7092 71.8768C33.0986 71.8768 34.1175 71.1693 34.1175 69.3327V68.5198H34.0866C33.6698 69.1972 32.867 69.7392 31.7092 69.7392C29.8567 69.7392 28.5291 68.2037 28.5291 66.1859C28.5291 63.717 30.1809 62.317 31.8945 62.317C33.1918 62.317 33.902 62.9794 34.2261 63.5815H34.257L34.3188 62.4826H35.5074ZM34.1026 65.3579C34.1026 65.1321 34.0872 64.9364 34.0254 64.7558C33.7785 63.988 33.1146 63.3557 32.1266 63.3557C30.8293 63.3557 29.9036 64.4246 29.9036 66.1106C29.9036 67.5407 30.6446 68.73 32.1112 68.73C32.9448 68.73 33.7013 68.2181 33.9946 67.3751C34.0718 67.1493 34.1032 66.8934 34.1032 66.6676V65.3579H34.1026ZM37.6064 64.7558C37.6064 63.8977 37.5909 63.16 37.5446 62.4826H38.7339L38.7796 63.9127H38.8414C39.181 62.9342 39.9992 62.317 40.91 62.317C41.0644 62.317 41.1718 62.3321 41.2953 62.3622V63.6117C41.1434 63.5794 40.9882 63.5643 40.8328 63.5665C39.8757 63.5665 39.1958 64.274 39.0112 65.2676C38.973 65.4713 38.9524 65.6777 38.9494 65.8848V69.7687H37.6064V64.7558ZM43.2571 66.3665C43.2879 68.1579 44.4606 68.8956 45.8191 68.8956C46.7923 68.8956 47.3783 68.73 47.8877 68.5192L48.1193 69.4676C47.6407 69.6784 46.8225 69.9192 45.6339 69.9192C43.3337 69.9192 41.9597 68.444 41.9597 66.2461C41.9597 64.0482 43.2874 62.3164 45.464 62.3164C47.9032 62.3164 48.5515 64.4089 48.5515 65.7487C48.5515 66.0197 48.5207 66.2305 48.5052 66.3659H43.2571V66.3665ZM47.2399 65.4181C47.2548 64.5751 46.8843 63.2654 45.3566 63.2654C43.9826 63.2654 43.3806 64.4998 43.2719 65.4181H47.2399Z" fill="#CFEDFF"/>
<path d="M50.0953 68.1742C50.8231 68.6005 51.6546 68.8292 52.5035 68.8366C53.8775 68.8366 54.6802 68.1291 54.6802 67.1054C54.6802 66.157 54.1245 65.6151 52.7197 65.0882C51.0215 64.5011 49.9718 63.643 49.9718 62.2129C49.9718 60.6322 51.3149 59.458 53.3372 59.458C54.4023 59.458 55.1742 59.6989 55.6374 59.9548L55.2668 61.0236C54.6595 60.7052 53.9804 60.5397 53.2908 60.5419C51.8706 60.5419 51.3303 61.3699 51.3303 62.0623C51.3303 63.0107 51.9626 63.4774 53.3989 64.0193C55.1588 64.6823 56.0542 65.5097 56.0542 67C56.0542 68.5656 54.8655 69.9205 52.4109 69.9205C51.4075 69.9205 50.3114 69.6344 49.7551 69.2732L50.0953 68.1742ZM66.4745 71.2603C65.1325 70.9168 63.8039 70.5252 62.4916 70.0861C62.2755 70.0108 62.0593 69.9355 61.8587 69.9355C59.3887 69.8452 57.2737 68.0688 57.2737 64.8021C57.2737 61.5505 59.3115 59.458 62.1211 59.458C64.9462 59.458 66.7838 61.5957 66.7838 64.5914C66.7838 67.1957 65.5488 68.8667 63.8198 69.4538V69.514C64.8541 69.7699 65.9811 70.0108 66.861 70.1613L66.4745 71.2603ZM65.363 64.6516C65.363 62.6193 64.2829 60.5263 62.0748 60.5263C59.8055 60.5263 58.694 62.5736 58.7094 64.772C58.694 66.9247 59.9135 68.8667 62.013 68.8667C64.1594 68.8667 65.363 66.9699 65.363 64.6516ZM68.5271 59.6236H69.8707V68.671H74.3167V69.7699H68.5271V59.6236Z" fill="#CFEDFF"/>
</svg>
