<svg width="70" height="69" viewBox="0 0 70 69" fill="none" xmlns="http://www.w3.org/2000/svg">
<path d="M35 30.2912C37.8089 30.2912 40.0859 28.0707 40.0859 25.3316C40.0859 22.5925 37.8089 20.3721 35 20.3721C32.1911 20.3721 29.9141 22.5925 29.9141 25.3316C29.9141 28.0707 32.1911 30.2912 35 30.2912Z" fill="#CFEDFF"/>
<path d="M35 43.5697C38.9922 47.356 42.9297 49.5958 46.1016 49.5958C47.1406 49.5958 48.125 49.3825 48.9453 48.9025C51.7891 47.3027 52.8281 43.303 51.8438 37.5969C51.6797 36.5836 51.4609 35.5704 51.1875 34.5038C52.2812 34.1838 53.2656 33.8639 54.25 33.5439C59.7734 31.4641 62.8359 28.5843 62.8359 25.438C62.8359 22.2382 59.7734 19.3585 54.25 17.332C53.2656 16.9587 52.2812 16.6387 51.1875 16.3721C51.4609 15.3055 51.6797 14.2923 51.8438 13.279C52.7734 7.46622 51.7344 3.41325 48.8906 1.81339C48.0703 1.33343 47.0859 1.12012 46.0469 1.12012C42.9297 1.12012 38.9375 3.35992 34.9453 7.14625C31.0078 3.35992 27.0703 1.12012 23.8984 1.12012C22.8594 1.12012 21.875 1.33343 21.0547 1.81339C18.2109 3.41325 17.1719 7.41289 18.1563 13.1191C18.3203 14.1323 18.5391 15.1455 18.8125 16.2121C17.7188 16.5321 16.7344 16.8521 15.75 17.172C10.2266 19.2518 7.16406 22.1316 7.16406 25.278C7.16406 28.4777 10.2266 31.3574 15.75 33.3839C16.7344 33.7572 17.7188 34.0772 18.8125 34.3438C18.5391 35.4104 18.3203 36.4236 18.1563 37.4369C17.2266 43.1431 18.2656 47.196 21.0547 48.7426C21.875 49.2225 22.8594 49.4358 23.8984 49.4358C27.0703 49.5425 31.0078 47.3027 35 43.5697ZM31.9375 36.3703C32.9219 36.4236 33.9609 36.4237 35 36.4237C36.0391 36.4237 37.0781 36.4236 38.0625 36.3703C37.0781 37.6502 36.0391 38.8234 35 39.9433C33.9609 38.8234 32.9219 37.6502 31.9375 36.3703V36.3703ZM25.1563 30.8775C25.7031 31.7841 26.1953 32.6373 26.7969 33.4906C25.1016 33.2773 23.5156 33.0106 21.9844 32.6906C22.4766 31.2508 23.0234 29.7576 23.6797 28.2644C24.1172 29.1176 24.6094 30.0242 25.1563 30.8775V30.8775ZM21.9844 18.0253C23.5156 17.7053 25.1016 17.4387 26.7969 17.2254C26.25 18.0786 25.7031 18.9319 25.1563 19.8385C24.6094 20.745 24.1172 21.5983 23.6797 22.5049C22.9687 20.9584 22.4219 19.4652 21.9844 18.0253V18.0253ZM24.9922 25.3313C25.7031 23.8914 26.4688 22.4516 27.3438 21.0117C28.1641 19.6251 29.0938 18.2386 30.0234 16.8521C31.6641 16.7454 33.3047 16.6921 35 16.6921C36.75 16.6921 38.3906 16.7454 39.9766 16.8521C40.9609 18.2386 41.8359 19.6251 42.6563 21.0117C43.5313 22.4516 44.2969 23.8914 45.0078 25.3313C44.2969 26.7712 43.5313 28.211 42.6563 29.6509C41.8359 31.0375 40.9063 32.424 39.9766 33.8105C38.3359 33.9172 36.6953 33.9705 35 33.9705C33.25 33.9705 31.6094 33.9172 30.0234 33.8105C29.0391 32.424 28.1641 31.0375 27.3438 29.6509C26.4688 28.211 25.7031 26.7712 24.9922 25.3313V25.3313ZM46.375 22.4516L44.8984 19.7851C44.3516 18.8785 43.8594 18.0253 43.2578 17.172C44.9531 17.3853 46.5391 17.652 48.0703 17.972C47.5781 19.4652 47.0313 20.9584 46.375 22.4516ZM46.375 28.211C47.0313 29.7042 47.5781 31.1974 48.0703 32.6373C46.5391 32.9573 44.9531 33.2239 43.2578 33.4372C43.8047 32.584 44.3516 31.7307 44.8984 30.8241C45.3906 30.0242 45.8828 29.1176 46.375 28.211ZM47.6328 46.7161C47.1953 46.9827 46.6484 47.0894 46.0469 47.0894C43.3672 47.0894 40.0312 44.9562 36.75 41.7565C38.3359 40.1033 39.8672 38.2368 41.3984 36.157C43.9687 35.9437 46.4297 35.5704 48.7266 35.0371C49 35.997 49.1641 36.9569 49.3281 37.9168C50.0937 42.4498 49.4922 45.7028 47.6328 46.7161V46.7161ZM50.4766 18.6119C56.6016 20.3184 60.2656 22.9315 60.2656 25.3313C60.2656 27.4111 57.75 29.4909 53.3203 31.1441C52.4453 31.4641 51.4609 31.7841 50.4766 32.0507C49.7656 29.8642 48.8906 27.6244 47.7969 25.3313C48.8906 23.0382 49.8203 20.7984 50.4766 18.6119ZM46.1016 3.57323C46.7031 3.57323 47.1953 3.67989 47.6875 3.94653C49.4922 4.95978 50.1484 8.15949 49.3828 12.7458C49.2188 13.6523 49 14.6123 48.7812 15.6255C46.4844 15.1455 44.0234 14.7722 41.4531 14.5056C39.9766 12.4258 38.3906 10.5593 36.8047 8.90609C40.0859 5.75971 43.4219 3.57323 46.1016 3.57323V3.57323ZM38.0625 14.2923C37.0781 14.239 36.0391 14.239 35 14.239C33.9609 14.239 32.9219 14.239 31.9375 14.2923C32.9219 13.0124 33.9609 11.8392 35 10.7193C36.0391 11.8392 37.0781 13.0657 38.0625 14.2923ZM22.3672 3.94653C22.8047 3.67989 23.3516 3.57323 23.9531 3.57323C26.6328 3.57323 29.9687 5.70638 33.25 8.90609C31.6641 10.5593 30.1328 12.4258 28.6016 14.5056C26.0312 14.7189 23.5703 15.0922 21.2734 15.6255C21 14.6656 20.8359 13.7057 20.6719 12.7458C19.9062 8.21282 20.5078 5.0131 22.3672 3.94653V3.94653ZM19.5234 32.0507C13.3984 30.3442 9.73437 27.7311 9.73437 25.3313C9.73437 23.2515 12.25 21.1717 16.6797 19.5185C17.5547 19.1985 18.5391 18.8785 19.5234 18.6119C20.2344 20.7984 21.1094 23.0382 22.2031 25.3313C21.1094 27.6244 20.1797 29.9176 19.5234 32.0507V32.0507ZM20.6719 37.9168C20.8359 37.0103 21.0547 36.0503 21.2734 35.0371C23.5703 35.5171 26.0312 35.8904 28.6016 36.157C30.0781 38.2368 31.6641 40.1033 33.25 41.7565C29.9687 44.9029 26.6328 47.0894 23.9531 47.0894C23.3516 47.0894 22.8594 46.9827 22.3672 46.7161C20.5078 45.7028 19.9062 42.4498 20.6719 37.9168V37.9168ZM18.375 59.8882C19.5781 58.4484 19.6328 56.8485 18.9766 55.2486C18.3203 53.6488 16.9531 52.9022 15.2578 52.8489C13.2344 52.7955 11.1563 52.8489 9.13281 52.8489H8.75V66.661H10.3906V61.4348H12.9609C13.2891 61.4348 13.5625 61.5414 13.7266 61.8081L17.0078 66.7676C17.0625 66.8743 17.2266 67.0343 17.3359 67.0343H19.4687C18.1562 65.0611 16.8984 63.1946 15.5859 61.2748C16.7344 61.1148 17.7187 60.7415 18.375 59.8882V59.8882ZM10.3906 59.7816V54.502H10.9922C12.25 54.502 13.5625 54.4487 14.8203 54.5554C16.2969 54.6087 17.3359 55.7286 17.3359 57.1685C17.3359 58.6083 16.1328 59.7282 14.6562 59.7816C13.3437 59.8349 12.0312 59.7816 10.3906 59.7816V59.7816ZM31.5547 60.4748C30.6797 56.7418 27.1797 55.7819 24.5 56.9552C22.4219 57.8617 21.4922 59.6216 21.4375 61.8081C21.3828 63.4612 21.875 64.9545 23.1875 66.0744C24.6641 67.3542 26.4687 67.5142 28.3281 67.1943C29.3672 66.9809 30.2969 66.501 31.0078 65.7544C30.7344 65.3811 30.4609 65.0078 30.1875 64.6878C28.6562 65.9677 26.9609 66.3943 25.1016 65.5411C23.8984 64.9545 23.2969 63.5146 23.1875 62.448H31.6641V61.7547C31.7188 61.2748 31.6641 60.8481 31.5547 60.4748V60.4748ZM23.2969 61.3281C23.1328 59.7282 24.7734 58.0217 26.5781 58.0217C28.6562 57.9684 29.9688 59.195 30.0234 61.3281H23.2969ZM40.0859 56.6885C39.2656 56.5285 38.3906 56.4752 37.5703 56.5285C36.2578 56.6352 35.1094 57.2218 34.1797 58.1817C34.4531 58.555 34.6719 58.9283 35 59.3549C35.1094 59.2483 35.2187 59.1416 35.3281 59.0883C36.2031 58.2884 37.2422 57.8617 38.5 57.9684C39.4844 58.0217 40.4141 58.3417 40.6875 59.3016C40.9063 60.0482 40.8516 60.8481 40.9063 61.6481C40.7422 61.6481 40.6875 61.5947 40.6328 61.5414C39.3203 60.4748 37.8438 60.2615 36.2578 60.6348C34.7813 61.0081 33.8516 62.128 33.7422 63.5679C33.6328 65.2211 34.3984 66.4476 35.875 67.0343C36.8047 67.4076 37.8438 67.4076 38.8281 67.1943C39.5938 67.0343 39.9219 66.6076 41.0156 66.021V66.7143H42.5469C42.5469 64.5811 42.6016 61.968 42.5469 59.5149C42.5469 57.9684 41.6172 57.0085 40.0859 56.6885ZM40.8516 63.4079C40.7969 63.5679 40.8516 63.7279 40.8516 63.8879C40.8516 65.0078 40.5781 65.3811 39.4844 65.8077C38.7187 66.0744 37.8984 66.181 37.0781 65.9144C36.1484 65.6477 35.4922 64.8478 35.4922 63.9412C35.4375 63.0346 36.0391 62.128 36.9688 61.8614C38.2266 61.4348 39.375 61.7014 40.4141 62.448C40.7422 62.7146 40.9609 62.9813 40.8516 63.4079V63.4079ZM49.3828 58.1284C50.8047 57.7018 52.1172 57.9684 53.1016 59.1416L53.2656 59.2483C53.6484 58.9283 53.9766 58.6083 54.4141 58.235C54.25 58.0751 54.1953 57.9684 54.0859 57.8084C52.5 56.1552 49.3828 55.9419 47.4688 57.2751C44.7891 59.195 44.8438 62.928 46.1563 64.9011C47.4141 66.7676 49.2188 67.4076 51.3516 67.1409C52.6094 66.9809 53.6484 66.3943 54.4688 65.3811C54.0859 65.0611 53.7031 64.7411 53.3203 64.3678C53.2109 64.4745 53.1563 64.5278 53.1016 64.6345C51.625 66.2343 49.1641 66.0743 47.8516 64.3678C47.0859 63.3546 46.9219 62.1814 47.1406 61.0081C47.25 59.6749 47.9609 58.6083 49.3828 58.1284ZM60.7578 65.3811C60.6484 65.4344 60.5938 65.4877 60.5938 65.4877C60.1563 65.8077 59.7188 65.861 59.2266 65.701C58.7344 65.4877 58.6797 65.0611 58.625 64.6345V58.555C58.625 58.4484 58.625 58.6617 58.6797 58.1284H60.7578V56.5285H58.5703V53.8621H56.9297V56.7418H55.5078C55.3984 56.7418 55.2344 56.8485 55.2344 56.9552C55.1797 57.3285 55.2344 57.5951 55.2344 58.1284H56.9844V64.9545C56.9844 65.8077 57.2031 66.5543 57.9688 66.9809C58.7891 67.4609 60.375 67.3542 61.0859 66.7676C61.1953 66.7143 61.25 66.501 61.25 66.4476C61.0859 66.1277 60.9219 65.7544 60.7578 65.3811V65.3811Z" fill="#CFEDFF"/>
</svg>
