<svg width="1920" height="222" viewBox="0 0 1920 222" fill="none" xmlns="http://www.w3.org/2000/svg">
<path d="M1750.81 357.821C1765.58 337.633 1764 311.504 1753.22 289.675C1742.44 267.846 1723.53 249.481 1704.3 232.035C1678.87 208.969 1651.49 186.284 1617.21 173.103C1569.44 154.732 1513.97 156.917 1461.82 163.248C1369.21 174.491 1279.23 197.528 1191.73 224.928C1097.93 254.299 1002.29 289.402 902.106 284.706C812.203 280.494 750.874 244.279 685.961 197.607C625.419 154.077 575.34 97.9215 500.211 69.4424C401.631 32.0723 280.291 51.292 192.573 103.917C104.856 156.542 47.7497 238.057 15.1014 323.297" stroke="#37B6FF" stroke-opacity="0.3" stroke-width="0.468209" stroke-miterlimit="10"/>
<path d="M1759.34 348.883C1772.75 331.454 1768.83 308.118 1756.3 287.641C1743.8 267.223 1724.19 249.336 1704.04 232.92C1677.52 211.308 1649.36 189.502 1614.18 177.163C1564.18 159.621 1506.26 161.257 1452.12 166.768C1359.87 176.156 1270.43 197.817 1183.65 223.519C1091.34 250.86 997.574 284.643 899.114 279.438C809.299 274.69 746.783 239.679 681.211 195.451C619.862 154.264 568.876 101.876 494.406 75.852C397.021 41.8185 278.225 61.9892 190.8 113.689C103.01 165.501 44.4537 243.384 9.83984 326.436" stroke="#37B6FF" stroke-opacity="0.3" stroke-width="0.468209" stroke-miterlimit="10"/>
<path d="M1767.86 339.947C1779.93 325.275 1773.71 304.792 1759.37 285.611C1745.21 266.655 1724.86 249.196 1703.78 233.813C1676.18 213.662 1647.2 192.744 1611.14 181.227C1558.89 164.535 1498.58 165.624 1442.43 170.29C1350.59 177.92 1261.64 198.108 1175.57 222.112C1084.76 247.435 992.852 279.873 896.121 274.167C806.395 268.873 742.804 234.951 676.457 193.297C614.416 154.344 562.443 105.839 488.601 82.2626C392.45 51.5656 276.16 72.6873 189.026 123.466C101.161 174.465 41.1538 248.712 4.57434 329.579" stroke="#37B6FF" stroke-opacity="0.3" stroke-width="0.468209" stroke-miterlimit="10"/>
<path d="M1776.38 331.009C1787.1 319.094 1778.65 301.52 1762.45 283.577C1746.68 266.118 1725.53 249.056 1703.52 234.7C1674.87 216.01 1645.02 196.001 1608.11 185.287C1553.57 169.456 1490.93 170.009 1432.74 173.806C1341.34 179.769 1252.88 198.396 1167.49 220.699C1078.22 244.015 988.133 275.087 893.133 268.895C803.49 263.051 738.765 230.288 671.711 191.137C608.911 154.471 556.051 109.793 482.8 88.6682C387.92 61.3013 274.098 83.3837 187.256 133.235C99.319 183.418 37.8619 254.032 -0.683228 332.711" stroke="#37B6FF" stroke-opacity="0.3" stroke-width="0.468209" stroke-miterlimit="10"/>
<path d="M1784.9 322.072C1794.27 312.915 1783.68 298.285 1765.52 281.543C1748.24 265.601 1726.23 248.918 1703.26 235.588C1673.58 218.359 1642.82 199.274 1605.07 189.35C1548.22 174.402 1483.29 174.425 1423.05 177.327C1332.13 181.706 1244.13 198.695 1159.41 219.287C1071.69 240.606 983.411 270.286 890.141 263.62C800.578 257.22 734.71 225.618 666.96 188.978C603.394 154.599 549.687 113.751 476.996 95.0712C383.429 71.0276 272.033 94.0742 185.482 143C97.4735 192.377 34.566 259.355 -5.9447 335.849" stroke="#37B6FF" stroke-opacity="0.3" stroke-width="0.468209" stroke-miterlimit="10"/>
<path d="M1793.43 313.135C1801.44 306.738 1788.79 295.07 1768.6 279.513C1749.89 265.091 1726.95 248.78 1703 236.477C1672.31 220.702 1640.61 202.565 1602.04 193.411C1542.85 179.364 1475.68 178.863 1413.36 180.844C1322.94 183.72 1235.42 198.995 1151.32 217.875C1065.18 237.217 978.685 265.472 887.149 258.348C797.661 251.386 730.651 220.955 662.21 186.823C597.868 154.734 543.359 117.706 471.195 101.481C378.983 80.7476 270.099 104.929 183.712 152.776C95.7554 201.492 31.2699 264.679 -11.2064 338.985" stroke="#37B6FF" stroke-opacity="0.3" stroke-width="0.468209" stroke-miterlimit="10"/>
<path d="M1801.95 304.199C1808.61 300.56 1793.99 291.856 1771.68 277.48C1751.62 264.562 1727.68 248.636 1702.74 237.366C1671.06 223.042 1638.39 205.873 1599.01 197.475C1537.46 184.353 1468.09 183.333 1403.66 184.369C1313.77 185.814 1226.72 199.311 1143.24 216.471C1058.7 233.848 973.963 260.653 884.156 253.085C794.745 245.549 726.58 216.3 657.46 184.672C592.335 154.873 537.07 121.659 465.389 107.895C374.576 90.4555 268.054 115.657 181.938 162.553C93.9296 210.479 27.9738 270.004 -16.4681 342.125" stroke="#37B6FF" stroke-opacity="0.3" stroke-width="0.468209" stroke-miterlimit="10"/>
<path d="M1810.47 295.262C1815.79 294.38 1799.27 288.621 1774.75 275.449C1753.44 264.002 1728.42 248.491 1702.48 238.257C1669.83 225.375 1636.16 209.199 1595.97 201.539C1532.07 189.36 1460.51 187.83 1393.97 187.89C1304.61 187.969 1218.05 199.633 1135.15 215.062C1052.23 230.495 969.232 255.815 881.16 247.813C791.824 239.695 722.501 211.64 652.706 182.516C586.794 155.011 530.814 125.597 459.581 114.304C370.213 100.136 266 126.381 180.161 172.329C92.0958 219.468 24.6699 275.334 -21.7377 345.267" stroke="#37B6FF" stroke-opacity="0.3" stroke-width="0.468209" stroke-miterlimit="10"/>
<path d="M1818.99 286.325C1822.96 288.201 1804.63 285.348 1777.83 273.416C1755.32 263.4 1729.18 248.33 1702.22 239.143C1668.62 227.688 1633.92 212.532 1592.94 205.596C1526.66 194.382 1452.94 192.352 1384.28 191.404C1295.48 190.18 1209.4 199.963 1127.08 213.645C1045.8 227.155 964.514 250.955 878.179 242.535C788.916 233.829 718.426 206.978 647.968 180.352C581.257 155.143 524.614 129.51 453.792 120.702C365.911 109.774 263.963 137.088 178.403 182.089C90.2702 228.445 21.382 280.655 -26.9911 348.4" stroke="#37B6FF" stroke-opacity="0.3" stroke-width="0.468209" stroke-miterlimit="10"/>
<path d="M1827.51 277.389C1830.13 282.025 1810.03 282.022 1780.9 271.387C1757.25 262.753 1729.95 248.166 1701.96 240.035C1667.41 229.996 1631.68 215.89 1589.9 209.664C1521.24 199.434 1445.37 196.913 1374.58 194.929C1286.33 192.455 1200.78 200.316 1118.99 212.24C1039.38 223.849 959.78 246.093 875.183 237.268C785.991 227.962 714.331 202.333 643.213 178.2C575.699 155.289 518.433 133.417 447.983 127.116C361.632 119.393 261.905 147.809 176.621 191.869C88.4363 237.426 18.0819 285.98 -32.2528 351.54" stroke="#37B6FF" stroke-opacity="0.3" stroke-width="0.468209" stroke-miterlimit="10"/>
<path d="M1836.04 268.451C1837.31 275.845 1815.47 278.635 1783.98 269.353C1759.22 262.051 1730.73 247.988 1701.71 240.923C1666.23 232.285 1629.44 219.252 1586.87 213.724C1515.82 204.497 1437.81 201.5 1364.89 198.446C1277.21 194.774 1192.18 200.677 1110.92 210.828C1032.98 220.565 955.058 241.213 872.194 231.996C783.071 222.085 710.236 197.686 638.463 176.041C570.138 155.436 512.288 137.289 442.178 133.522C357.397 128.964 259.852 158.523 174.847 201.638C86.5985 246.398 14.7859 291.3 -37.5184 354.672" stroke="#37B6FF" stroke-opacity="0.3" stroke-width="0.468209" stroke-miterlimit="10"/>
<path d="M1844.56 259.514C1844.48 269.665 1820.93 275.19 1787.06 267.322C1761.18 261.311 1731.52 247.8 1701.45 241.811C1665.05 234.562 1627.18 222.628 1583.84 217.788C1510.39 209.584 1430.26 206.123 1355.2 201.97C1268.07 197.146 1183.61 201.065 1102.83 209.423C1026.61 217.31 950.331 236.323 869.202 226.731C780.146 216.201 706.128 193.053 633.713 173.892C564.573 155.597 506.18 141.142 436.377 139.938C353.202 138.503 257.798 169.243 173.077 211.417C84.7645 255.381 11.4937 296.631 -42.7763 357.817" stroke="#37B6FF" stroke-opacity="0.3" stroke-width="0.468209" stroke-miterlimit="10"/>
<path d="M1853.08 250.577C1851.65 263.485 1826.39 271.688 1790.14 265.288C1763.15 260.527 1732.3 247.599 1701.19 242.699C1663.87 236.822 1624.93 226.016 1580.8 221.847C1504.96 214.687 1422.7 210.775 1345.51 205.487C1258.94 199.554 1175.05 201.469 1094.76 208.011C1020.25 214.078 945.609 231.413 866.214 221.456C777.226 210.294 702.022 188.416 628.966 171.73C559.004 155.751 500.099 144.945 430.576 146.337C349.035 147.973 255.741 179.946 171.307 221.183C82.9269 264.351 8.19784 301.951 -48.0377 360.953" stroke="#37B6FF" stroke-opacity="0.3" stroke-width="0.468209" stroke-miterlimit="10"/>
<path d="M1861.6 241.64C1858.82 257.306 1831.85 268.135 1793.21 263.258C1765.12 259.711 1733.09 247.388 1700.93 243.591C1662.7 239.073 1622.69 229.416 1577.77 225.915C1499.53 219.814 1415.14 215.467 1335.82 209.012C1249.81 202.013 1166.52 201.904 1086.67 206.603C1013.91 210.887 940.887 226.494 863.221 216.188C774.301 204.385 697.902 183.793 624.216 169.578C553.426 155.923 494.035 148.72 424.771 152.751C344.888 157.4 253.679 190.657 169.533 230.959C81.0811 273.324 4.90185 307.275 -53.2993 364.089" stroke="#37B6FF" stroke-opacity="0.3" stroke-width="0.468209" stroke-miterlimit="10"/>
<path d="M1870.12 232.702C1866 251.128 1837.28 264.534 1796.29 261.224C1767.06 258.864 1733.88 247.163 1700.67 244.475C1661.53 241.306 1620.43 232.817 1574.74 229.971C1494.1 224.946 1407.57 220.181 1326.13 212.525C1240.67 204.492 1158.01 202.357 1078.6 205.187C1007.59 207.717 936.168 221.554 860.233 210.909C771.385 198.454 693.787 179.169 619.47 167.412C547.849 156.086 487.986 152.434 418.974 159.149C340.761 166.76 251.622 201.353 167.768 240.724C79.2473 282.283 1.6098 312.595 -58.553 367.22" stroke="#37B6FF" stroke-opacity="0.3" stroke-width="0.468209" stroke-miterlimit="10"/>
<path d="M1878.65 223.765C1873.17 244.95 1842.69 260.895 1799.37 259.194C1768.99 258 1734.67 246.934 1700.41 245.367C1660.35 243.535 1618.18 236.236 1571.7 234.035C1488.67 230.106 1400 224.937 1316.43 216.046C1231.53 207.014 1149.5 202.851 1070.51 203.779C1001.28 204.592 931.442 216.609 857.237 205.641C768.457 192.519 689.66 174.559 614.716 165.261C542.264 156.271 481.937 156.116 413.165 165.563C336.626 176.073 249.552 212.061 165.99 250.501C77.3936 291.253 -1.69018 317.923 -63.8226 370.363" stroke="#37B6FF" stroke-opacity="0.3" stroke-width="0.468209" stroke-miterlimit="10"/>
<path d="M1887.17 214.83C1880.34 238.771 1848.09 257.228 1802.44 257.162C1770.9 257.116 1735.46 246.695 1700.16 246.257C1659.17 245.751 1615.93 239.66 1568.67 238.1C1483.24 235.28 1392.43 229.729 1306.74 219.571C1222.37 209.568 1141.01 203.386 1062.43 202.375C994.977 201.507 926.72 211.655 854.244 200.378C765.54 186.574 685.538 169.964 609.966 163.113C536.683 156.467 475.889 159.757 407.36 171.978C332.491 185.334 247.487 222.77 164.216 260.281C75.5482 300.221 -4.98584 323.251 -69.0798 373.504" stroke="#37B6FF" stroke-opacity="0.3" stroke-width="0.468209" stroke-miterlimit="10"/>
<path d="M1895.69 205.892C1887.51 232.591 1853.45 253.532 1805.52 255.131C1772.79 256.223 1736.23 246.444 1699.89 247.145C1657.99 247.954 1613.68 243.088 1565.63 242.16C1477.81 240.462 1384.83 234.549 1297.05 223.088C1213.21 212.141 1132.53 203.951 1054.35 200.96C988.685 198.449 922.01 206.675 851.256 195.099C762.628 180.601 681.419 165.363 605.219 160.947C531.101 156.653 469.832 163.323 401.563 178.377C328.352 194.52 245.425 233.457 162.45 270.044C73.7021 309.177 -8.27816 328.568 -74.3378 376.636" stroke="#37B6FF" stroke-opacity="0.3" stroke-width="0.468209" stroke-miterlimit="10"/>
<path d="M1904.21 196.955C1894.68 226.415 1858.79 249.817 1808.6 253.097C1774.66 255.315 1737.01 246.184 1699.64 248.033C1656.8 250.152 1611.44 246.526 1562.59 246.223C1472.39 245.664 1377.23 239.409 1287.35 226.609C1204.04 214.743 1124.04 204.562 1046.26 199.551C982.388 195.435 917.292 201.687 848.264 189.831C759.711 174.619 677.296 160.776 600.465 158.795C525.516 156.86 463.744 166.857 395.754 184.79C324.173 203.671 243.348 244.157 160.672 279.819C71.8444 318.137 -11.5781 333.898 -79.6073 379.778" stroke="#37B6FF" stroke-opacity="0.3" stroke-width="0.468209" stroke-miterlimit="10"/>
<path d="M1912.74 188.018C1901.86 220.235 1864.12 246.088 1811.68 251.067C1776.51 254.407 1737.79 245.924 1699.38 248.925C1655.6 252.347 1609.2 249.971 1559.57 250.287C1466.98 250.879 1369.63 244.302 1277.67 230.129C1194.87 217.369 1115.57 205.224 1038.19 198.143C976.1 192.463 912.59 196.688 845.279 184.559C756.811 168.62 673.185 156.195 595.723 156.636C519.943 157.067 457.635 170.335 389.957 191.196C319.979 212.769 241.282 254.848 158.907 289.592C69.9987 327.09 -14.87 339.222 -84.8608 382.917" stroke="#37B6FF" stroke-opacity="0.3" stroke-width="0.468209" stroke-miterlimit="10"/>
<path d="M1921.26 179.08C1909.03 214.055 1869.41 242.346 1814.75 249.033C1778.34 253.488 1738.55 245.65 1699.12 249.812C1654.4 254.531 1606.95 253.416 1556.53 254.35C1461.56 256.104 1362 249.227 1267.97 233.65C1185.67 220.014 1107.08 205.931 1030.1 196.734C969.796 189.527 907.875 191.673 842.283 179.291C753.903 162.605 669.062 151.624 590.969 154.484C514.362 157.287 451.479 173.773 384.152 197.606C315.736 221.827 239.209 265.538 157.129 299.364C68.1371 336.043 -18.1699 344.546 -90.1303 386.052" stroke="#37B6FF" stroke-opacity="0.3" stroke-width="0.468209" stroke-miterlimit="10"/>
<path d="M1929.78 170.144C1916.2 207.876 1874.68 238.6 1817.83 247.004C1780.16 252.571 1739.31 245.381 1698.86 250.702C1653.19 256.714 1604.71 256.868 1553.49 258.412C1456.14 261.34 1354.36 254.187 1258.28 237.172C1176.46 222.68 1098.57 206.692 1022.02 195.326C963.487 186.633 903.177 186.649 839.294 174.024C751.01 156.574 664.955 147.058 586.223 152.33C508.793 157.515 445.282 177.17 378.351 204.017C311.453 230.854 237.135 276.226 155.359 309.141C66.2833 344.994 -21.4619 349.874 -95.3879 389.195" stroke="#37B6FF" stroke-opacity="0.3" stroke-width="0.468209" stroke-miterlimit="10"/>
<path d="M1938.3 161.207C1923.38 201.696 1879.94 234.845 1820.9 244.97C1781.96 251.649 1740.06 245.101 1698.6 251.59C1651.97 258.888 1602.48 260.326 1550.46 262.472C1450.74 266.588 1346.7 259.181 1248.59 240.689C1167.25 225.358 1090.05 207.504 1013.94 193.911C957.159 183.77 898.479 181.605 836.302 168.745C748.118 150.51 660.844 142.491 581.472 150.167C503.223 157.735 439.03 180.522 372.551 210.419C307.122 239.843 235.062 286.904 153.589 318.907C64.4255 353.931 -24.758 355.194 -100.646 392.327" stroke="#37B6FF" stroke-opacity="0.3" stroke-width="0.468209" stroke-miterlimit="10"/>
<path d="M1946.82 152.27C1930.55 195.52 1885.18 231.087 1823.98 242.94C1783.75 250.728 1740.81 244.822 1698.34 252.482C1650.74 261.067 1600.24 263.791 1547.42 266.539C1445.33 271.85 1339.02 264.213 1238.89 244.213C1158.01 228.057 1081.49 208.383 1005.86 192.506C950.803 180.95 893.784 176.557 833.306 163.481C745.233 144.436 656.737 137.937 576.718 148.016C497.654 157.976 432.717 183.856 366.742 216.833C302.732 248.826 232.98 297.588 151.811 328.686C62.5598 362.881 -28.0579 360.525 -105.915 395.473" stroke="#37B6FF" stroke-opacity="0.3" stroke-width="0.468209" stroke-miterlimit="10"/>
<path d="M1955.34 143.332C1937.72 189.34 1890.41 227.329 1827.05 240.905C1785.53 249.806 1741.55 244.535 1698.08 253.366C1649.52 263.235 1598.01 267.252 1544.39 270.595C1439.94 277.111 1331.33 269.269 1229.2 247.727C1148.77 230.761 1072.89 209.303 997.778 191.091C944.427 178.156 889.102 171.486 830.317 158.202C742.364 138.324 652.642 133.375 571.972 145.853C492.097 158.205 426.361 187.158 360.941 223.232C298.293 257.779 230.903 308.255 150.041 338.449C60.7018 371.807 -31.3542 365.839 -111.173 398.599" stroke="#37B6FF" stroke-opacity="0.3" stroke-width="0.468209" stroke-miterlimit="10"/>
<path d="M1963.87 134.397C1944.89 183.162 1895.62 223.57 1830.13 238.877C1787.3 248.887 1742.29 244.254 1697.82 254.26C1648.28 265.408 1595.78 270.722 1541.36 274.664C1434.55 282.394 1323.61 274.371 1219.51 251.253C1139.51 233.487 1064.25 210.296 989.699 189.688C938.022 175.4 884.424 166.417 827.329 152.939C739.508 132.206 648.551 128.837 567.226 143.706C486.548 158.458 419.941 190.457 355.144 229.65C293.806 266.747 228.829 318.938 148.275 348.233C58.8442 380.753 -34.642 371.174 -116.43 401.75" stroke="#37B6FF" stroke-opacity="0.3" stroke-width="0.468209" stroke-miterlimit="10"/>
<path d="M1972.39 125.46C1952.06 176.982 1900.82 219.808 1833.21 236.843C1789.06 247.965 1743.02 243.964 1697.56 255.148C1647.04 267.576 1593.56 274.193 1538.32 278.724C1429.16 287.678 1315.88 279.498 1209.82 254.773C1130.24 236.221 1055.54 211.342 981.613 188.279C931.566 172.665 879.749 161.33 824.333 147.671C736.655 126.056 644.46 124.292 562.467 141.55C480.991 158.704 413.457 193.741 349.331 236.06C289.252 275.707 226.74 329.612 146.494 358.005C56.9705 389.683 -37.946 376.501 -121.7 404.888" stroke="#37B6FF" stroke-opacity="0.3" stroke-width="0.468209" stroke-miterlimit="10"/>
<path d="M1980.91 116.521C1959.24 170.801 1906.01 216.049 1836.28 234.811C1790.81 247.049 1743.75 243.673 1697.3 256.035C1645.8 269.743 1591.34 277.667 1535.29 282.783C1423.78 292.967 1308.12 284.652 1200.13 258.289C1120.96 238.961 1046.78 212.433 973.535 186.862C925.078 169.946 875.087 156.225 821.345 142.391C733.831 119.865 640.381 119.736 557.721 139.387C475.454 158.942 406.929 197.01 343.53 242.462C284.658 284.665 224.659 340.271 144.724 367.77C55.1091 398.599 -41.2416 381.817 -126.957 408.016" stroke="#37B6FF" stroke-opacity="0.3" stroke-width="0.468209" stroke-miterlimit="10"/>
<path d="M1989.43 107.586C1966.41 164.627 1911.19 212.289 1839.36 232.779C1792.56 246.129 1744.48 243.384 1697.05 256.925C1644.55 271.913 1589.12 281.143 1532.26 286.848C1418.41 298.27 1300.35 289.849 1190.44 261.811C1111.65 241.716 1037.94 213.582 965.453 185.455C918.542 167.252 870.429 151.116 818.356 137.125C731.018 113.657 636.31 115.2 552.975 137.233C469.92 159.194 400.353 200.292 337.733 248.87C280.023 293.64 222.521 350.812 142.958 377.544C53.1792 407.386 -44.5299 387.142 -132.215 411.156" stroke="#37B6FF" stroke-opacity="0.3" stroke-width="0.468209" stroke-miterlimit="10"/>
<path d="M1997.96 98.6484C1973.59 158.446 1916.37 208.531 1842.44 230.748C1794.3 245.217 1745.2 243.094 1696.79 257.816C1643.29 274.081 1586.9 284.623 1529.22 290.912C1413.04 303.577 1292.54 295.074 1180.74 265.331C1102.33 244.473 1029.02 214.773 957.371 184.046C911.95 164.57 865.782 145.995 815.364 131.853C728.226 107.411 632.29 110.784 548.225 135.077C464.439 159.572 393.721 203.579 331.928 255.279C275.337 302.626 220.455 361.509 141.184 387.316C51.3333 416.345 -47.83 392.466 -137.477 414.295" stroke="#37B6FF" stroke-opacity="0.3" stroke-width="0.468209" stroke-miterlimit="10"/>
<path d="M2006.48 89.7109C1980.76 152.266 1921.53 204.776 1845.51 228.714C1796.03 244.298 1745.88 242.735 1696.53 258.701C1642 276.17 1584.7 288.187 1526.19 294.972C1407.7 309.061 1284.72 300.325 1171.05 268.848C1093.01 247.236 1020.02 215.997 949.293 182.634C905.314 161.888 861.152 140.862 812.375 126.581C725.457 101.132 628.204 106.18 543.479 132.918C458.894 159.759 387.053 206.872 326.127 261.685C270.615 311.628 218.394 372.206 139.41 397.089C49.4878 425.301 -51.1258 397.793 -142.738 417.434" stroke="#37B6FF" stroke-opacity="0.3" stroke-width="0.468209" stroke-miterlimit="10"/>
<path d="M2015 80.7744C1987.93 146.087 1926.69 201.022 1848.59 226.684C1797.76 243.387 1746.63 242.515 1696.27 259.593C1640.77 278.414 1582.47 291.589 1523.15 299.036C1402.31 314.208 1276.87 305.61 1161.36 272.373C1083.66 250.014 1010.93 217.261 941.211 181.226C898.614 159.213 856.53 135.722 809.383 121.313C722.712 94.8182 624.116 101.58 538.728 130.767C453.34 159.953 380.345 210.183 320.326 268.099C265.856 320.654 216.333 382.907 137.64 406.865C47.6419 434.265 -54.4179 403.12 -148 420.573" stroke="#37B6FF" stroke-opacity="0.3" stroke-width="0.468209" stroke-miterlimit="10"/>
<path d="M1654.18 289.023C1644.79 205.948 1598.81 126.006 1526.69 67.4057C1506.18 50.7328 1482.64 35.3235 1454.66 29.6178C1373.83 13.1357 1296.89 70.6501 1234.94 104.848C1160.16 146.124 1086.49 188.976 1007.78 225.125C963.595 245.421 911.031 263.92 863.937 248.698C816.247 233.282 793.415 189.911 769.819 152.458C742.325 108.816 706.812 67.5373 658.623 38.512C610.437 9.48987 548.241 -6.14323 489.876 4.19219C444.172 12.2835 404.46 35.1721 368.683 59.9593C274.678 125.088 198.167 207.251 146.162 298.911" stroke="#37B6FF" stroke-opacity="0.3" stroke-width="0.468209" stroke-miterlimit="10"/>
<path d="M1656.26 285.222C1647.18 204.826 1600.3 129.177 1526.85 70.5901C1506.35 54.2331 1483.07 38.9948 1455.48 33.2036C1375.62 16.3925 1299.7 71.0935 1237.91 104.107C1172.02 139.305 1106.95 176.327 1037.79 209.179C1029.29 213.233 1020.74 217.221 1012.13 221.13C968.278 241.047 916.345 259.27 869.726 244.874C822.491 230.304 799.335 188.699 775.464 152.81C747.578 111.014 711.966 71.4917 664.128 43.7562C616.166 16.0602 554.685 1.2365 496.955 11.3844C457.723 18.2746 422.866 35.8228 391.084 55.8849C386.162 58.9878 381.344 62.1763 376.546 65.3451C281.342 128.216 205.123 204.01 154.796 292.714" stroke="#37B6FF" stroke-opacity="0.3" stroke-width="0.468209" stroke-miterlimit="10"/>
<path d="M1658.34 281.422C1649.56 203.707 1601.81 132.347 1527.02 73.7793C1506.52 57.7316 1483.51 42.6743 1456.31 36.7942C1377.42 19.6541 1302.52 71.545 1240.87 103.374C1175.64 137.055 1111.14 173.119 1041.94 205.428C1033.5 209.4 1025.02 213.309 1016.48 217.146C972.96 236.685 921.655 254.631 875.511 241.061C828.728 227.34 805.248 187.498 781.102 153.175C752.824 113.229 717.116 75.4574 669.621 49.0151C621.883 22.6418 561.121 8.63092 504.023 18.5945C465.142 25.3696 430.512 42.3551 398.883 61.6571C393.981 64.6416 389.199 67.7314 384.396 70.7487C287.942 131.369 212.07 200.789 163.417 286.536" stroke="#37B6FF" stroke-opacity="0.3" stroke-width="0.468209" stroke-miterlimit="10"/>
<path d="M1660.42 277.625C1651.94 202.589 1603.33 135.512 1527.18 76.9676C1506.71 61.2259 1483.95 46.3496 1457.14 40.384C1379.21 22.9148 1305.34 71.999 1243.85 102.637C1179.28 134.805 1115.25 169.763 1046.1 201.677C1037.71 205.55 1029.3 209.397 1020.83 213.158C977.646 232.318 926.972 249.988 881.304 237.247C834.976 224.372 811.253 186.258 786.747 153.541C758.174 115.391 722.357 79.3203 675.127 54.2731C627.692 29.1206 567.566 16.0245 511.106 25.8038C472.577 32.4638 438.179 48.8899 406.693 67.4285C401.807 70.2945 397.065 73.2855 392.263 76.1516C294.51 134.522 219.03 197.564 172.059 280.356" stroke="#37B6FF" stroke-opacity="0.3" stroke-width="0.468209" stroke-miterlimit="10"/>
<path d="M1662.49 273.823C1654.32 201.468 1604.86 138.669 1527.34 80.1514C1506.89 64.7125 1484.39 50.0204 1457.96 43.9692C1381.01 26.1677 1308.18 72.4451 1246.81 101.895C1182.93 132.552 1119.41 166.5 1050.25 197.921C1041.92 201.705 1033.57 205.48 1025.17 209.165C982.325 227.95 932.278 245.34 887.085 233.426C841.208 221.396 817.186 185.032 792.38 153.895C763.443 117.574 727.527 83.2412 680.62 59.5168C633.433 35.6542 574.002 23.4037 518.174 32.9955C479.996 39.5402 445.826 55.407 414.492 73.1822C409.626 75.9297 404.915 78.8188 400.113 81.54C301.01 137.659 225.973 194.328 180.68 274.162" stroke="#37B6FF" stroke-opacity="0.3" stroke-width="0.468209" stroke-miterlimit="10"/>
<path d="M1664.57 270.025C1656.7 200.349 1606.41 141.824 1527.51 83.3389C1507.08 68.2027 1484.83 53.6982 1458.79 47.5582C1382.81 29.4276 1311.03 72.9015 1249.79 101.16C1186.59 130.317 1123.59 163.248 1054.4 194.169C1046.13 197.864 1037.86 201.566 1029.52 205.176C987.011 223.583 937.595 240.697 892.878 229.611C847.453 218.427 823.131 183.814 798.025 154.259C768.725 119.765 732.701 87.1724 686.121 64.774C639.178 42.2013 580.442 30.7964 525.249 40.2039C487.423 46.6303 453.48 61.9376 422.294 78.9527C417.444 81.5818 412.766 84.3722 407.968 86.942C307.462 140.804 232.921 191.102 189.306 267.978" stroke="#37B6FF" stroke-opacity="0.3" stroke-width="0.468209" stroke-miterlimit="10"/>
<path d="M1666.65 266.224C1659.08 199.226 1607.96 144.969 1527.67 86.5271C1507.27 71.687 1485.26 57.3734 1459.61 51.1478C1384.6 32.6882 1313.89 73.3619 1252.76 100.423C1190.26 128.083 1127.76 159.994 1058.55 190.418C1050.34 194.027 1042.14 197.65 1033.87 201.191C991.694 219.219 942.909 236.057 898.663 225.797C853.693 215.462 829.067 182.596 803.662 154.624C773.994 121.956 737.866 91.1075 691.619 70.0319C644.915 48.7491 586.882 38.1866 532.32 47.4131C494.85 53.7243 461.135 68.4722 430.097 84.7239C425.267 87.2346 420.616 89.9196 415.826 92.3447C313.87 143.943 239.876 187.881 197.935 261.798" stroke="#37B6FF" stroke-opacity="0.3" stroke-width="0.468209" stroke-miterlimit="10"/>
<path d="M1668.73 262.424C1661.46 198.108 1609.54 148.106 1527.83 89.7126C1507.48 75.1687 1485.68 61.092 1460.44 54.7347C1386.35 36.0744 1316.77 73.8228 1255.73 99.6828C1193.96 125.855 1131.95 156.74 1062.71 186.663C1054.56 190.184 1046.42 193.735 1038.22 197.2C996.384 214.853 948.226 231.411 904.46 221.977C859.942 212.487 835.012 181.369 809.315 154.979C779.28 124.138 743.044 95.03 697.128 75.2805C650.66 55.2908 593.334 45.5707 539.408 54.6097C502.289 60.8057 468.842 75.0469 437.911 90.4793C433.101 92.8781 428.475 95.4545 423.693 97.7348C320.234 147.056 246.836 184.643 206.573 255.606" stroke="#37B6FF" stroke-opacity="0.3" stroke-width="0.468209" stroke-miterlimit="10"/>
<path d="M1670.8 258.623C1663.84 196.985 1611.12 151.234 1527.99 92.8973C1507.68 78.6429 1486.12 64.7702 1461.26 58.3176C1388.13 39.3413 1319.65 74.2863 1258.7 98.9419C1197.65 123.637 1136.13 153.492 1066.86 182.905C1058.77 186.341 1050.7 189.815 1042.56 193.204C1001.06 210.48 953.536 226.761 910.24 218.156C866.178 209.512 840.937 180.141 814.948 155.338C784.541 126.319 748.202 98.9617 702.621 80.5284C656.389 61.8318 599.766 52.9541 546.475 61.8088C509.708 67.8896 476.492 81.5747 445.71 96.2404C440.92 98.524 436.313 100.992 431.547 103.127C326.531 150.152 253.783 181.411 215.198 249.416" stroke="#37B6FF" stroke-opacity="0.3" stroke-width="0.468209" stroke-miterlimit="10"/>
<path d="M1672.88 254.821C1666.22 195.866 1612.72 154.353 1528.15 96.0815C1507.89 82.1167 1486.56 68.448 1462.08 61.9032C1389.93 42.6111 1322.54 74.7559 1261.67 98.2006C1201.37 121.425 1140.32 150.24 1071.02 179.15C1062.99 182.5 1054.98 185.899 1046.91 189.212C1005.75 206.109 958.849 222.114 916.033 214.335C872.422 206.54 846.874 178.913 820.593 155.695C789.811 128.499 753.363 102.89 708.126 85.779C662.122 68.3789 606.214 60.3403 553.554 69.0074C517.139 74.9698 484.155 88.1054 453.52 102.001C448.746 104.166 444.164 106.526 439.409 108.52C332.791 153.224 260.739 178.176 223.836 243.226" stroke="#37B6FF" stroke-opacity="0.3" stroke-width="0.468209" stroke-miterlimit="10"/>
<path d="M1674.96 251.024C1668.6 194.747 1614.32 157.469 1528.31 99.2736C1508.09 85.5951 1486.99 72.1304 1462.91 65.4968C1391.71 45.8855 1325.45 75.2432 1264.64 97.4672C1205.09 119.234 1144.5 147.002 1075.17 175.399C1067.2 178.663 1059.26 181.987 1051.26 185.228C1010.43 201.749 964.163 217.478 921.818 210.525C878.663 203.575 852.798 177.692 826.231 156.061C795.068 130.688 758.517 106.832 713.62 91.0375C667.843 74.9339 612.646 67.7343 560.622 76.2172C524.558 82.0644 491.806 94.6439 461.315 107.773C456.56 109.82 451.994 112.07 447.256 113.926C338.983 156.288 267.682 174.958 232.453 237.05" stroke="#37B6FF" stroke-opacity="0.3" stroke-width="0.468209" stroke-miterlimit="10"/>
<path d="M1677.04 247.224C1670.98 193.625 1615.95 160.572 1528.48 102.459C1508.31 89.0602 1487.43 75.8094 1463.73 69.0836C1393.51 49.1532 1328.37 75.7304 1267.61 96.727C1208.83 117.042 1148.69 143.761 1079.32 171.645C1071.42 174.823 1063.54 178.071 1055.61 181.237C1015.12 197.38 969.476 212.832 927.611 206.705C884.907 200.601 858.727 176.465 831.876 156.42C800.33 132.866 763.671 110.768 719.125 96.2894C673.572 81.4822 619.095 75.1184 567.705 83.4203C531.993 89.1523 499.472 101.176 469.129 113.538C464.391 115.466 459.845 117.608 455.126 119.323C345.152 159.306 274.646 171.73 241.095 230.864" stroke="#37B6FF" stroke-opacity="0.3" stroke-width="0.468209" stroke-miterlimit="10"/>
<path d="M1679.11 243.424C1673.36 192.507 1617.58 163.662 1528.64 105.644C1508.52 92.5252 1487.86 79.485 1464.56 72.6704C1395.29 52.4174 1331.3 76.2274 1270.58 95.9901C1212.58 114.871 1152.88 140.527 1083.47 167.894C1075.63 170.987 1067.82 174.159 1059.95 177.249C1019.8 193.013 974.798 208.117 933.392 202.891C891.156 197.561 864.64 175.245 837.513 156.785C805.576 135.055 768.817 114.713 724.618 101.544C679.286 88.0403 625.527 82.5089 574.773 90.6233C539.412 96.2401 507.119 107.707 476.924 119.303C472.206 121.116 467.671 123.14 462.973 124.719C351.257 162.287 281.586 168.499 249.712 224.678" stroke="#37B6FF" stroke-opacity="0.3" stroke-width="0.468209" stroke-miterlimit="10"/>
<path d="M1681.19 239.623C1675.74 191.384 1619.23 166.742 1528.8 108.829C1508.75 95.9866 1488.3 83.1603 1465.38 76.2568C1397.09 55.6814 1334.24 76.7339 1273.56 95.2495C1216.35 112.706 1157.08 137.289 1087.63 164.136C1079.85 167.143 1072.11 170.24 1064.31 173.254C1024.49 188.643 980.116 203.464 939.189 199.068C897.404 194.579 870.561 174.014 843.162 157.137C810.834 137.23 773.97 118.645 730.128 106.789C685.011 94.5881 631.979 89.8893 581.856 97.8194C546.847 103.318 514.782 114.232 484.738 125.061C480.036 126.756 475.514 128.664 470.839 130.112C357.337 165.222 288.545 165.268 258.35 218.488" stroke="#37B6FF" stroke-opacity="0.3" stroke-width="0.468209" stroke-miterlimit="10"/>
<path d="M1683.27 235.822C1678.12 190.265 1620.89 169.808 1528.96 112.017C1508.97 99.4509 1488.73 86.8385 1466.21 79.8462C1398.88 58.945 1337.2 77.2533 1276.53 94.5119C1220.12 110.556 1161.27 134.06 1091.78 160.384C1084.06 163.309 1076.39 166.327 1068.66 169.268C1029.17 184.28 985.429 198.82 944.974 195.253C903.641 191.611 876.47 172.793 848.799 157.502C816.071 139.417 779.108 122.596 735.621 112.047C690.716 101.152 638.415 97.2825 588.924 105.028C554.266 110.411 522.428 120.77 492.533 130.832C487.851 132.408 483.34 134.202 478.69 135.515C363.366 168.117 295.493 162.043 266.971 212.308" stroke="#37B6FF" stroke-opacity="0.3" stroke-width="0.468209" stroke-miterlimit="10"/>
<path d="M1685.35 232.021C1680.5 189.143 1622.56 172.865 1529.12 115.202C1509.2 102.906 1489.17 90.5106 1467.03 83.4327C1400.67 62.2058 1340.17 77.7863 1279.5 93.7748C1223.9 108.424 1165.47 130.836 1095.94 156.633C1088.28 159.473 1080.67 162.414 1073.01 165.28C1033.86 179.913 990.743 194.174 950.767 191.44C909.885 188.639 882.382 171.575 854.444 157.867C821.313 141.609 784.254 126.551 741.126 117.305C696.433 107.723 644.859 104.676 596.007 112.234C561.701 117.502 530.091 127.305 500.347 136.597C495.681 138.055 491.178 139.726 486.556 140.911C369.379 170.956 302.452 158.815 275.613 206.122" stroke="#37B6FF" stroke-opacity="0.3" stroke-width="0.468209" stroke-miterlimit="10"/>
<path d="M1687.42 228.221C1682.88 188.024 1624.24 175.905 1529.28 118.388C1509.42 106.358 1489.6 94.1862 1467.86 87.0195C1402.46 65.4669 1343.14 78.336 1282.47 93.0346C1227.69 106.305 1169.67 127.611 1100.09 152.875C1092.49 155.633 1084.94 158.492 1077.35 161.286C1038.54 175.544 996.048 189.525 956.548 187.616C916.117 185.662 888.275 170.351 860.078 158.219C826.538 143.79 789.384 130.497 746.62 122.547C702.134 114.278 651.296 112.05 603.074 119.428C569.124 124.577 537.738 133.823 508.142 142.352C503.492 143.692 499.001 145.241 494.403 146.301C375.343 173.727 309.392 155.577 284.23 199.929" stroke="#37B6FF" stroke-opacity="0.3" stroke-width="0.468209" stroke-miterlimit="10"/>
<path d="M1689.5 224.421C1685.26 186.903 1625.94 178.936 1529.45 121.573C1509.66 109.81 1490.04 97.8587 1468.68 90.6031C1404.26 68.7181 1346.13 78.8956 1285.44 92.2912C1231.5 104.199 1173.88 124.387 1104.24 149.118C1096.71 151.793 1089.23 154.574 1081.7 157.291C1043.22 171.171 1001.36 184.876 962.341 183.796C922.362 182.691 894.18 169.134 865.727 158.578C831.772 145.982 794.525 134.452 752.125 127.799C707.843 120.849 657.74 119.438 610.154 126.631C576.555 131.665 545.397 140.352 515.952 148.118C511.318 149.338 506.836 150.763 502.269 151.698C381.304 176.445 316.355 152.349 292.868 193.743" stroke="#37B6FF" stroke-opacity="0.3" stroke-width="0.468209" stroke-miterlimit="10"/>
<path d="M1691.58 220.624C1687.64 185.785 1627.64 181.951 1529.61 124.766C1509.89 113.266 1490.48 101.538 1469.51 94.1974C1406.05 71.9833 1349.11 79.4856 1288.41 91.5617C1235.31 102.124 1178.08 121.183 1108.4 145.371C1100.92 147.964 1093.51 150.665 1086.05 153.311C1047.91 166.812 1006.67 180.24 968.126 179.987C928.598 179.727 900.069 167.931 871.364 158.948C836.99 148.191 799.659 138.425 757.622 133.061C713.544 127.438 664.18 126.836 617.229 133.841C583.982 138.76 553.047 146.888 523.759 153.89C519.144 154.992 514.666 156.289 510.127 157.102C387.241 179.105 323.307 149.125 301.497 187.565" stroke="#37B6FF" stroke-opacity="0.3" stroke-width="0.468209" stroke-miterlimit="10"/>
<path d="M1693.66 216.824C1690.02 184.666 1629.36 184.952 1529.77 127.951C1510.13 116.707 1490.92 105.21 1470.33 97.7838C1407.84 75.2341 1352.12 80.0875 1291.38 90.8211C1239.12 100.054 1182.29 117.971 1112.55 141.616C1105.14 144.127 1097.79 146.75 1090.4 149.319C1052.59 162.445 1011.98 175.594 973.919 176.166C934.838 176.755 905.966 166.719 877.009 159.303C842.215 150.392 804.793 142.386 763.123 138.309C719.249 134.015 670.62 134.219 624.304 141.041C591.408 145.845 560.702 153.409 531.561 159.651C526.963 160.635 522.496 161.803 517.982 162.498C393.166 181.688 330.254 145.897 310.123 181.379" stroke="#37B6FF" stroke-opacity="0.3" stroke-width="0.468209" stroke-miterlimit="10"/>
<path d="M1695.73 213.024C1692.4 183.544 1631.09 187.934 1529.93 131.137C1510.36 120.15 1491.35 108.883 1471.15 101.371C1409.63 78.4888 1355.11 80.7132 1294.35 90.0812C1242.94 98.0047 1186.5 114.763 1116.7 137.862C1109.36 140.291 1102.06 142.834 1094.74 145.328C1057.27 158.076 1017.29 170.951 979.704 172.35C941.075 173.785 911.854 165.522 882.646 159.665C847.429 152.604 809.922 146.362 768.621 143.561C724.95 140.6 677.06 141.607 631.376 148.244C598.831 152.929 568.348 159.935 539.364 165.417C534.781 166.282 530.323 167.319 525.84 167.895C399.09 184.196 337.206 142.666 318.752 175.193" stroke="#37B6FF" stroke-opacity="0.3" stroke-width="0.468209" stroke-miterlimit="10"/>
<path d="M1697.81 209.222C1694.78 182.424 1632.84 190.9 1530.09 134.32C1510.61 123.59 1491.79 112.554 1471.98 104.956C1411.43 81.735 1358.12 81.3599 1297.32 89.3393C1246.76 95.973 1190.71 111.56 1120.86 134.103C1113.58 136.453 1106.35 138.914 1099.09 141.332C1061.96 153.701 1022.6 166.304 985.493 168.525C947.315 170.812 917.747 164.32 888.287 160.019C852.651 154.817 815.056 150.332 774.122 148.808C730.651 147.189 683.501 148.989 638.451 155.439C606.258 160.009 576.003 166.452 547.166 171.174C542.604 171.921 538.149 172.822 533.695 173.283C405.015 186.623 344.157 139.43 327.382 168.999" stroke="#37B6FF" stroke-opacity="0.3" stroke-width="0.468209" stroke-miterlimit="10"/>
<path d="M1699.89 205.421C1697.16 181.302 1634.59 193.849 1530.25 137.509C1510.85 127.029 1492.23 116.226 1472.8 108.546C1413.22 84.9862 1361.13 82.038 1300.29 88.6058C1250.58 93.9693 1194.92 108.372 1125.01 130.355C1117.79 132.623 1110.62 135.005 1103.44 137.348C1066.64 149.342 1027.91 161.668 991.282 164.715C953.556 167.851 923.64 163.135 893.932 160.384C857.872 157.048 820.194 154.323 779.623 154.067C736.356 153.794 689.945 156.38 645.531 162.648C613.689 167.104 583.658 172.98 554.977 176.945C550.43 177.574 545.984 178.341 541.561 178.689C410.964 188.989 351.117 136.213 336.019 162.823" stroke="#37B6FF" stroke-opacity="0.3" stroke-width="0.468209" stroke-miterlimit="10"/>
<path d="M1701.97 201.621C1699.54 180.184 1636.36 196.777 1530.42 140.694C1511.09 130.464 1492.67 119.895 1473.63 112.133C1415.03 88.2308 1364.14 82.739 1303.26 87.8656C1254.41 91.9787 1199.14 105.18 1129.16 126.601C1122.01 128.789 1114.91 131.089 1107.79 133.36C1071.32 144.975 1033.22 157.032 997.071 160.898C959.796 164.886 929.533 161.951 899.574 160.747C863.094 159.279 825.328 158.312 785.125 159.322C742.065 160.401 696.389 163.771 652.606 169.855C621.116 174.195 591.309 179.506 562.779 182.714C558.249 183.224 553.814 183.852 549.416 184.089C416.921 191.272 358.065 132.985 344.645 156.64" stroke="#37B6FF" stroke-opacity="0.3" stroke-width="0.468209" stroke-miterlimit="10"/>
<path d="M1704.04 197.821C1701.92 179.062 1638.13 199.69 1530.58 143.88C1511.33 133.894 1493.11 123.565 1474.45 115.72C1416.83 91.4759 1367.14 83.4701 1306.23 87.1259C1258.22 90.0083 1203.35 101.992 1133.31 122.844C1126.23 124.953 1119.19 127.171 1112.13 129.366C1076.01 140.603 1038.54 152.386 1002.86 157.075C966.036 161.915 935.434 160.767 905.215 161.103C868.323 161.511 830.465 162.304 790.622 164.567C747.77 167.006 702.825 171.152 659.677 177.048C628.539 181.27 598.959 186.018 570.582 188.466C566.067 188.855 561.641 189.345 557.27 189.473C422.898 193.465 365.012 129.744 353.27 150.441" stroke="#37B6FF" stroke-opacity="0.3" stroke-width="0.468209" stroke-miterlimit="10"/>
<path d="M1706.12 194.025C1704.3 177.944 1639.92 202.587 1530.74 147.07C1511.58 137.326 1493.55 127.238 1475.28 119.308C1418.63 94.7179 1370.14 84.2311 1309.2 86.3897C1262.03 88.0613 1207.57 98.8179 1137.47 119.094C1130.44 121.124 1123.47 123.256 1116.48 125.379C1080.69 136.241 1043.86 147.807 1008.64 153.262C972.289 159.011 941.331 159.596 910.852 161.465C873.549 163.756 835.603 166.302 796.119 169.823C753.479 173.624 709.265 178.543 666.749 184.255C635.962 188.362 606.606 192.541 578.38 194.235C573.886 194.505 569.467 194.854 565.125 194.877C428.91 195.598 371.964 126.52 361.896 144.263" stroke="#37B6FF" stroke-opacity="0.3" stroke-width="0.468209" stroke-miterlimit="10"/>
<path d="M1708.2 190.223C1706.68 176.825 1641.73 205.458 1530.9 150.257C1511.82 140.754 1493.99 130.909 1476.1 122.897C1420.44 97.9615 1373.13 85.0233 1312.17 85.6517C1265.83 86.1289 1211.79 95.6449 1141.62 115.339C1134.66 117.29 1127.74 119.34 1120.83 121.386C1085.38 131.87 1049.17 143.16 1014.43 149.441C978.529 156.039 947.239 158.418 916.493 161.823C878.791 165.999 840.749 170.306 801.621 175.074C759.196 180.243 715.705 185.929 673.828 191.457C643.397 195.449 614.265 199.058 586.191 199.999C581.712 200.151 577.31 200.355 572.987 200.273C434.971 197.647 378.919 123.292 370.529 138.076" stroke="#37B6FF" stroke-opacity="0.3" stroke-width="0.468209" stroke-miterlimit="10"/>
<path d="M1710.27 186.422C1709.06 175.701 1643.54 208.307 1531.06 153.441C1512.08 144.179 1494.43 134.574 1476.93 126.482C1422.24 101.195 1376.1 85.8416 1315.15 84.9104C1269.63 84.2161 1216.02 92.4752 1145.78 111.583C1138.89 113.459 1132.03 115.423 1125.18 117.397C1090.07 127.502 1054.49 138.516 1020.23 145.626C984.778 153.07 953.156 157.248 922.142 162.187C884.04 168.252 845.907 174.316 807.126 180.328C764.925 186.873 722.153 193.315 680.907 198.659C650.828 202.535 621.923 205.576 594.001 205.763C589.539 205.793 585.152 205.856 580.849 205.668C441.075 199.627 385.875 120.059 379.167 131.889" stroke="#37B6FF" stroke-opacity="0.3" stroke-width="0.468209" stroke-miterlimit="10"/>
<path d="M1712.35 182.622C1711.45 174.583 1645.36 211.137 1531.22 156.627C1512.32 147.598 1494.89 138.217 1477.75 130.069C1424.11 104.354 1379.05 86.6942 1318.12 84.1736C1273.4 82.3211 1220.24 89.3167 1149.93 107.832C1143.1 109.629 1136.31 111.511 1129.53 113.41C1094.75 123.14 1059.8 133.873 1026.02 141.81C991.018 150.099 959.073 156.081 927.783 162.546C889.294 170.5 851.064 178.328 812.627 185.58C770.65 193.503 728.593 200.703 687.983 205.862C658.255 209.62 629.578 212.052 601.804 211.529C597.361 211.433 592.987 211.354 588.708 211.068C447.228 201.542 392.826 116.835 387.796 125.706" stroke="#37B6FF" stroke-opacity="0.3" stroke-width="0.468209" stroke-miterlimit="10"/>
<path d="M1714.43 178.821C1713.82 173.461 1647.19 213.944 1531.39 159.812C1512.57 151.016 1495.33 141.889 1478.58 133.656C1425.91 107.608 1381.99 87.579 1321.09 83.433C1277.16 80.442 1224.47 86.1642 1154.08 104.074C1147.32 105.795 1140.59 107.592 1133.88 109.415C1099.43 118.766 1065.11 129.223 1031.8 137.986C997.255 147.12 964.994 154.906 933.42 162.902C894.548 172.747 856.222 182.335 818.121 190.828C776.379 200.133 735.03 208.087 695.05 213.062C665.674 216.704 637.225 218.577 609.602 217.29C605.176 217.076 600.821 216.852 596.558 216.461C453.424 203.384 399.774 113.6 396.418 119.517" stroke="#37B6FF" stroke-opacity="0.3" stroke-width="0.468209" stroke-miterlimit="10"/>
<path d="M1716.51 175.022C1716.21 172.344 1649.04 216.729 1531.56 163.002C1512.83 154.437 1495.77 145.569 1479.41 137.247C1427.71 110.871 1384.91 88.5021 1324.06 82.6976C1280.91 78.5813 1228.72 83.0958 1158.24 100.325C1151.55 101.977 1144.88 103.681 1138.23 105.428C1104.12 114.401 1070.43 124.582 1037.6 134.174C1003.51 144.157 970.947 153.775 939.069 163.268C899.837 175.045 861.42 186.417 823.63 196.088C782.152 206.838 741.482 215.482 702.138 220.27C673.113 223.797 644.895 225.107 617.417 223.06C613.006 222.728 608.671 222.353 604.425 221.862C459.701 205.173 406.733 110.377 405.055 113.332" stroke="#37B6FF" stroke-opacity="0.3" stroke-width="0.468209" stroke-miterlimit="10"/>
<path d="M1718.59 171.22C1718.59 171.22 1650.89 219.485 1531.72 166.186C1412.55 112.886 1365.77 48.4454 1162.39 96.5688C959.021 144.692 781.329 244.878 625.219 228.82C469.109 212.762 413.685 107.144 413.685 107.144" stroke="#37B6FF" stroke-opacity="0.3" stroke-width="0.468209" stroke-miterlimit="10"/>
<path d="M1809.13 137.614C1796.95 110.662 1761.29 94.6535 1726.46 92.5674C1691.63 90.4812 1657.36 99.8031 1624.88 110.362C1557.7 132.195 1493.31 159.855 1424.77 178.6C1356.23 197.346 1281.47 206.856 1211.8 191.2C1168.97 181.575 1129.61 162.809 1086.31 154.751C999.468 138.588 910.712 167.097 822.275 175.527C755.365 181.904 730.235 155.409 692.965 116.269C656.785 78.2735 603.262 51.7587 545.552 43.2397C487.842 34.7206 426.473 44.2795 376.522 69.5636" stroke="#37B6FF" stroke-opacity="0.3" stroke-width="0.468209" stroke-miterlimit="10"/>
<path d="M1810.4 133.82C1796.85 108.546 1760.42 93.5114 1725.03 92.3499C1689.59 91.2179 1654.63 101.08 1621.26 111.853C1553.76 133.698 1488.64 160.693 1419.84 178.077C1351.29 195.54 1277.11 203.322 1207.39 187.665C1164.71 178.077 1125.32 159.93 1082.13 152.22C995.596 136.758 907.248 164.829 819.167 173.187C752.648 179.502 726.516 153.859 688.714 115.64C652.298 78.5923 599.215 52.3079 542.012 44.8583C484.93 37.3362 424.623 47.6321 375.131 72.9064" stroke="#37B6FF" stroke-opacity="0.3" stroke-width="0.468209" stroke-miterlimit="10"/>
<path d="M1811.66 130.023C1796.76 106.43 1759.56 92.3636 1723.61 92.1267C1687.55 91.949 1651.91 102.347 1617.64 113.34C1549.81 135.199 1483.95 161.398 1414.92 177.548C1346.32 193.599 1272.75 199.778 1203 184.122C1160.46 174.573 1121.04 157.038 1077.97 149.681C991.737 134.919 903.796 162.553 816.067 170.842C749.939 177.094 722.668 152.402 684.471 115.002C647.692 78.9911 595.176 52.8482 538.477 46.4646C482.017 39.9396 422.773 50.9726 373.745 76.2369" stroke="#37B6FF" stroke-opacity="0.3" stroke-width="0.468209" stroke-miterlimit="10"/>
<path d="M1812.93 126.225C1796.67 104.311 1758.7 91.2177 1722.19 91.9054C1685.51 92.682 1649.17 103.62 1614.02 114.827C1545.87 136.699 1479.27 162.171 1409.99 177.017C1341.36 191.726 1268.39 196.237 1198.59 180.577C1156.2 171.065 1116.74 154.148 1073.8 147.143C987.866 133.083 900.332 160.275 812.959 168.498C747.223 174.688 718.889 150.897 680.216 114.37C643.141 79.3522 591.104 53.5153 534.929 48.0794C479.081 42.6732 420.912 54.3248 372.347 79.5793" stroke="#37B6FF" stroke-opacity="0.3" stroke-width="0.468209" stroke-miterlimit="10"/>
<path d="M1814.19 122.429C1796.57 102.196 1757.84 90.0704 1720.77 91.686C1683.47 93.4168 1646.44 104.891 1610.4 116.319C1541.92 138.204 1474.6 162.955 1405.07 176.492C1336.42 189.861 1264.04 192.697 1194.19 177.038C1151.94 167.561 1112.46 151.26 1069.64 144.607C984.002 131.248 896.876 158.003 809.858 166.153C744.514 172.28 715.122 149.388 675.973 113.736C638.615 79.7087 587.065 54.0988 531.393 49.6895C476.168 45.3165 419.066 57.669 370.96 82.9136" stroke="#37B6FF" stroke-opacity="0.3" stroke-width="0.468209" stroke-miterlimit="10"/>
<path d="M1815.45 118.635C1796.48 100.08 1756.97 88.929 1719.34 91.4692C1681.43 94.1543 1643.71 106.168 1606.77 117.813C1537.96 139.711 1469.92 163.741 1400.14 175.969C1331.47 188.002 1259.67 189.164 1189.78 173.501C1147.68 164.064 1108.16 148.378 1065.46 142.074C980.131 129.415 893.409 155.729 806.746 163.814C741.793 169.878 711.346 147.888 671.718 113.107C634.076 80.071 583.014 54.6849 527.849 51.3088C473.252 47.969 417.208 61.0223 369.566 86.2604" stroke="#37B6FF" stroke-opacity="0.3" stroke-width="0.468209" stroke-miterlimit="10"/>
<path d="M1816.72 114.838C1796.39 97.9647 1756.1 87.7116 1717.92 91.2489C1679.38 94.819 1640.99 107.441 1603.16 119.3C1534.03 141.212 1465.26 164.525 1395.22 175.443C1326.53 186.146 1255.32 185.623 1185.39 169.964C1143.43 160.563 1103.88 145.493 1061.3 139.54C976.272 127.582 889.957 153.459 803.65 161.471C739.088 167.473 707.595 146.381 667.48 112.476C629.562 80.4297 578.983 55.2641 524.318 52.9246C470.347 50.6147 415.366 64.3755 368.184 89.6003" stroke="#37B6FF" stroke-opacity="0.3" stroke-width="0.468209" stroke-miterlimit="10"/>
<path d="M1817.98 111.04C1796.29 95.8449 1755.24 86.5592 1716.49 91.0276C1677.33 95.5455 1638.25 108.711 1599.53 120.79C1530.07 142.715 1460.6 165.317 1390.29 174.915C1321.6 184.29 1250.95 182.085 1180.99 166.423C1139.17 157.058 1099.59 142.606 1057.13 137.002C972.4 125.746 886.493 151.184 800.542 159.128C736.372 165.067 703.839 144.873 663.225 111.84C625.039 80.7811 574.936 55.8392 520.77 54.5329C467.431 53.2496 413.505 67.7178 366.786 92.9361" stroke="#37B6FF" stroke-opacity="0.3" stroke-width="0.468209" stroke-miterlimit="10"/>
<path d="M1819.25 107.243C1796.2 93.7288 1754.37 85.4072 1715.07 90.8069C1675.29 96.2757 1635.5 109.915 1595.91 122.277C1526.07 144.093 1455.94 166.11 1385.37 174.385C1316.67 182.44 1246.59 178.544 1176.59 162.878C1134.92 153.55 1095.3 139.713 1052.97 134.465C968.537 123.906 883.037 148.907 797.437 156.781C733.659 162.661 700.088 143.363 658.978 111.205C620.529 81.1296 570.901 56.4081 517.234 56.1449C464.527 55.8849 411.659 71.064 365.395 96.2724" stroke="#37B6FF" stroke-opacity="0.3" stroke-width="0.468209" stroke-miterlimit="10"/>
<path d="M1820.52 103.45C1796.1 91.6136 1753.51 84.2594 1713.65 90.5903C1673.25 97.01 1632.77 111.185 1592.29 123.772C1522.13 145.594 1451.29 166.916 1380.44 173.863C1311.74 180.598 1242.23 175.008 1172.19 159.342C1130.66 150.053 1091.01 136.832 1048.8 131.932C964.67 122.074 879.574 146.637 794.329 154.442C730.942 160.26 696.341 141.856 654.727 110.577C616.018 81.4855 566.862 56.9846 513.691 57.7611C461.618 58.5212 409.801 74.4176 364.001 99.6128" stroke="#37B6FF" stroke-opacity="0.3" stroke-width="0.468209" stroke-miterlimit="10"/>
<path d="M1821.78 99.6519C1796.01 89.4975 1752.64 83.1074 1712.23 90.3695C1671.21 97.7402 1630.04 112.452 1588.67 125.262C1518.18 147.091 1446.64 167.722 1375.52 173.336C1306.81 178.762 1237.88 171.47 1167.79 155.804C1126.41 146.551 1086.73 133.945 1044.64 129.398C960.807 120.241 876.118 144.363 791.229 152.102C728.234 157.857 692.609 140.345 650.48 109.948C611.52 81.8339 562.827 57.5567 510.151 59.3797C458.714 61.1565 407.951 77.7702 362.61 102.959" stroke="#37B6FF" stroke-opacity="0.3" stroke-width="0.468209" stroke-miterlimit="10"/>
<path d="M1823.05 95.8539C1795.91 87.3776 1751.78 81.9582 1710.81 90.1482C1669.16 98.4699 1627.3 113.721 1585.05 126.748C1514.23 148.587 1441.99 168.528 1370.59 172.809C1301.89 176.925 1233.52 167.929 1163.38 152.263C1122.15 143.046 1082.43 131.056 1040.47 126.86C956.939 118.404 872.658 142.089 788.125 149.755C725.521 155.448 688.877 138.824 646.233 109.312C607.025 82.1754 558.796 58.1186 506.615 60.9879C455.813 63.7816 406.102 81.1126 361.224 106.291" stroke="#37B6FF" stroke-opacity="0.3" stroke-width="0.468209" stroke-miterlimit="10"/>
<path d="M1824.31 92.057C1795.82 85.2621 1750.91 80.8134 1709.38 89.928C1667.12 99.2039 1624.57 114.992 1581.43 128.239C1510.28 150.088 1437.34 169.344 1365.66 172.282C1296.96 175.099 1229.15 164.392 1158.98 148.722C1117.89 139.545 1078.14 128.17 1036.3 124.327C953.068 116.571 869.194 139.815 785.017 147.416C722.804 153.046 685.15 137.308 641.983 108.681C602.531 82.5178 554.761 58.6815 503.072 62.6038C452.909 66.4076 404.248 84.4658 359.83 109.635" stroke="#37B6FF" stroke-opacity="0.3" stroke-width="0.468209" stroke-miterlimit="10"/>
<path d="M1825.57 88.2634C1795.73 83.15 1750.05 79.6686 1707.96 89.7112C1665.07 99.9413 1621.84 116.265 1577.81 129.73C1506.34 151.592 1432.7 170.167 1360.74 171.756C1292.04 173.273 1224.8 160.852 1154.58 145.182C1113.64 136.041 1073.86 125.281 1032.14 121.79C949.209 114.735 865.738 137.542 781.916 145.07C720.096 150.638 681.431 135.781 637.74 108.046C598.052 82.8538 550.734 59.238 499.536 64.2132C450.012 69.0272 402.398 87.8093 358.444 112.968" stroke="#37B6FF" stroke-opacity="0.3" stroke-width="0.468209" stroke-miterlimit="10"/>
<path d="M1826.84 84.466C1795.63 81.0307 1749.18 78.5234 1706.53 89.4906C1663.03 100.678 1619.11 117.535 1574.19 131.221C1502.39 153.096 1428.05 170.993 1355.81 171.23C1287.12 171.457 1220.43 157.314 1150.18 141.641C1109.39 132.537 1069.57 122.395 1027.97 119.253C945.341 112.899 862.278 135.268 778.812 142.727C717.383 148.232 677.719 134.254 633.489 107.414C593.57 83.1893 546.703 59.7939 495.992 65.8287C447.108 71.6462 400.54 91.1588 357.049 116.308" stroke="#37B6FF" stroke-opacity="0.3" stroke-width="0.468209" stroke-miterlimit="10"/>
<path d="M1828.1 80.6687C1795.54 78.9149 1748.32 77.3782 1705.11 89.2668C1660.99 101.409 1616.38 118.802 1570.57 132.708C1498.45 154.599 1423.41 171.822 1350.89 170.703C1282.2 169.643 1216.08 153.777 1145.78 138.104C1105.13 129.039 1065.28 119.51 1023.81 116.719C941.478 111.066 858.823 132.994 775.712 140.384C714.674 145.827 674.012 132.724 629.246 106.782C589.103 83.5183 542.675 60.3467 492.461 67.4442C444.211 74.2621 398.699 94.5118 355.667 119.651" stroke="#37B6FF" stroke-opacity="0.3" stroke-width="0.468209" stroke-miterlimit="10"/>
<path d="M1829.37 76.8705C1795.44 76.7948 1747.45 76.2321 1703.69 89.0453C1658.95 102.145 1613.65 120.075 1566.95 134.194C1494.5 156.099 1418.76 172.653 1345.96 170.172C1277.27 167.829 1211.72 150.232 1141.37 134.559C1100.87 125.53 1060.99 116.62 1019.64 114.181C937.611 109.226 855.359 130.719 772.604 138.041C711.957 143.421 670.304 131.187 624.995 106.149C584.628 83.8431 538.64 60.8952 488.917 69.0556C441.307 76.8705 396.841 97.8572 354.269 122.987" stroke="#37B6FF" stroke-opacity="0.3" stroke-width="0.468209" stroke-miterlimit="10"/>
<path d="M1830.63 73.078C1795.35 74.6837 1746.59 75.095 1702.26 88.8295C1656.91 102.886 1610.92 121.353 1563.33 135.689C1490.56 157.611 1414.12 173.5 1341.04 169.65C1272.35 166.031 1207.36 146.699 1136.98 131.023C1096.62 122.031 1056.7 113.735 1015.47 111.649C933.744 107.394 851.899 128.447 769.496 135.699C709.245 141.017 666.601 129.645 620.741 105.516C580.158 84.1603 534.601 61.4362 485.369 70.6693C438.398 79.478 394.983 101.205 352.87 126.328" stroke="#37B6FF" stroke-opacity="0.3" stroke-width="0.468209" stroke-miterlimit="10"/>
<path d="M1831.89 69.2812C1795.25 72.5652 1745.72 73.9504 1700.84 88.6096C1654.86 103.624 1608.19 122.627 1559.71 137.18C1486.61 159.121 1409.46 174.35 1336.11 169.124C1267.43 164.232 1203 143.159 1132.57 127.483C1092.36 118.53 1052.41 110.85 1011.3 109.113C929.872 105.559 848.435 126.174 766.387 133.357C706.528 138.612 662.901 128.099 616.49 104.884C575.691 84.4767 530.566 61.9764 481.829 72.2822C435.494 82.0812 393.129 104.555 351.48 129.665" stroke="#37B6FF" stroke-opacity="0.3" stroke-width="0.468209" stroke-miterlimit="10"/>
<path d="M1833.16 65.4844C1795.16 70.4497 1744.86 72.809 1699.42 88.3894C1652.83 104.365 1605.51 123.983 1556.09 138.668C1482.72 160.747 1404.82 175.199 1331.19 168.595C1262.51 162.435 1198.64 139.619 1128.18 123.943C1088.11 115.026 1048.12 107.961 1007.14 106.576C926.013 103.723 844.984 123.9 763.291 131.014C703.823 136.207 659.218 126.546 612.251 104.253C571.245 84.7897 526.543 62.5131 478.298 73.8982C432.597 84.6811 391.288 107.905 350.098 133.005" stroke="#37B6FF" stroke-opacity="0.3" stroke-width="0.468209" stroke-miterlimit="10"/>
<path d="M1834.43 61.6865C1795.07 68.33 1744.04 71.7357 1698 88.1684C1650.83 105.174 1602.78 125.252 1552.47 140.158C1478.78 162.25 1400.17 176.057 1326.27 168.071C1257.58 160.648 1194.28 136.081 1123.77 120.405C1083.85 111.524 1043.83 105.078 1002.97 104.045C922.146 101.893 841.52 121.629 760.183 128.674C701.107 133.804 655.526 124.989 608 103.624C566.786 85.0983 522.504 63.0488 474.754 75.5132C429.689 87.2799 389.43 111.254 348.704 136.348" stroke="#37B6FF" stroke-opacity="0.3" stroke-width="0.468209" stroke-miterlimit="10"/>
<path d="M1835.69 57.8916C1794.97 66.2165 1743.18 70.5929 1696.57 87.9502C1648.78 105.91 1600.04 126.528 1548.85 141.648C1474.83 163.753 1395.52 176.918 1321.34 167.544C1252.65 158.863 1189.92 132.543 1119.37 116.864C1079.6 108.019 1039.55 102.188 998.804 101.507C918.282 100.056 838.064 119.355 757.083 126.33C698.398 131.398 651.847 123.418 603.753 102.991C562.336 85.3935 518.465 63.5776 471.218 77.1278C426.784 89.8719 387.584 114.603 347.317 139.687" stroke="#37B6FF" stroke-opacity="0.3" stroke-width="0.468209" stroke-miterlimit="10"/>
<path d="M1836.96 54.0947C1794.88 64.0978 1742.32 69.4448 1695.15 87.7301C1646.74 106.647 1597.32 127.798 1545.23 143.139C1470.89 165.257 1390.86 177.784 1316.41 167.018C1247.72 157.084 1185.56 129.006 1114.97 113.324C1075.34 104.518 1035.26 99.3027 994.638 98.9704C914.415 98.2202 834.604 117.078 753.978 123.985C695.685 128.99 648.163 121.843 599.506 102.353C557.885 85.6834 514.422 64.0945 467.679 78.7372C423.868 92.4585 385.727 117.95 345.923 143.023" stroke="#37B6FF" stroke-opacity="0.3" stroke-width="0.468209" stroke-miterlimit="10"/>
<path d="M1838.22 50.2969C1794.78 61.9814 1741.45 68.2991 1693.73 87.509C1644.7 107.38 1594.59 129.071 1541.61 144.629C1466.94 166.76 1386.2 178.655 1311.49 166.491C1242.79 155.306 1181.21 125.465 1110.57 109.782C1071.09 101.013 1030.97 96.413 990.475 96.4328C910.552 96.3834 831.148 114.804 750.878 121.641C692.977 126.584 644.488 120.259 595.264 101.721C553.442 85.969 510.383 64.6171 464.143 80.3489C420.964 95.0409 383.881 121.296 344.541 146.359" stroke="#37B6FF" stroke-opacity="0.3" stroke-width="0.468209" stroke-miterlimit="10"/>
<path d="M1839.49 46.5C1794.69 59.8627 1740.59 67.1511 1692.3 87.2889C1642.67 108.114 1591.86 130.342 1537.99 146.116C1463 168.258 1381.55 179.531 1306.57 165.961C1237.85 153.53 1176.84 121.925 1106.17 106.242C1066.83 97.5091 1026.68 93.5244 986.304 93.8962C906.685 94.5444 827.685 112.53 747.77 119.295C690.26 124.175 640.804 118.667 591.009 101.086C548.988 86.2458 506.328 65.1307 460.595 81.9616C418.035 97.621 382.023 124.642 343.138 149.7" stroke="#37B6FF" stroke-opacity="0.3" stroke-width="0.468209" stroke-miterlimit="10"/>
<path d="M1840.75 42.707C1794.59 57.7511 1739.73 66.0102 1690.88 87.0727C1640.62 108.852 1589.13 131.619 1534.36 147.611C1459.04 169.766 1376.88 180.414 1301.64 165.442C1232.92 151.767 1172.48 118.392 1101.77 102.709C1062.58 94.0156 1022.39 90.6461 982.137 91.37C902.817 92.7191 824.225 110.264 744.666 116.963C687.547 121.781 637.129 117.082 586.762 100.465C544.541 86.533 502.277 65.6582 457.06 83.5848C415.119 100.212 380.173 128.003 341.752 153.047" stroke="#37B6FF" stroke-opacity="0.3" stroke-width="0.468209" stroke-miterlimit="10"/>
<path d="M1842.01 38.9092C1794.5 55.6314 1738.87 64.8613 1689.46 86.8516C1638.58 109.586 1586.4 132.889 1530.75 149.098C1455.1 171.266 1372.21 181.295 1296.71 164.912C1227.97 149.996 1168.12 114.85 1097.36 99.1646C1058.32 90.5073 1018.1 87.7532 977.97 88.8292C898.95 90.8791 820.765 107.986 741.558 114.617C684.831 119.371 633.445 115.472 582.511 99.826C540.091 86.7956 498.218 66.1643 453.516 85.1932C412.19 102.784 378.32 131.346 340.358 156.38" stroke="#37B6FF" stroke-opacity="0.3" stroke-width="0.468209" stroke-miterlimit="10"/>
<path d="M1843.28 35.1133C1794.4 53.517 1738 63.7175 1688.03 86.6291C1636.54 110.317 1583.67 134.16 1527.12 150.586C1451.15 172.768 1367.54 182.178 1291.78 164.383C1223.02 148.23 1163.76 111.308 1092.96 95.6221C1054.06 87.001 1013.81 84.8655 973.799 86.2902C895.083 89.0411 817.301 105.707 738.449 112.269C682.114 116.964 629.765 113.855 578.26 99.1889C535.636 87.0536 494.155 66.6691 449.972 86.8003C409.258 105.355 376.462 134.687 338.963 159.714" stroke="#37B6FF" stroke-opacity="0.3" stroke-width="0.468209" stroke-miterlimit="10"/>
<path d="M1844.54 31.3154C1794.31 51.3973 1737.14 62.5685 1686.61 86.4081C1634.5 111.051 1580.94 135.433 1523.5 152.076C1447.21 174.271 1362.87 183.069 1286.86 163.856C1218.08 146.469 1159.4 107.77 1088.56 92.0842C1049.81 83.5026 1009.52 81.9791 969.632 83.7559C891.215 87.2076 813.846 103.436 735.345 109.928C679.401 114.561 626.086 112.238 574.009 98.5598C531.186 87.3129 490.088 67.1784 446.433 88.4185C406.325 107.934 374.612 138.042 337.573 163.057" stroke="#37B6FF" stroke-opacity="0.3" stroke-width="0.468209" stroke-miterlimit="10"/>
<path d="M1845.81 27.5205C1794.22 49.2838 1736.28 61.4257 1685.19 86.1899C1632.47 111.79 1578.21 136.705 1519.88 153.566C1443.26 175.773 1358.14 184.085 1281.94 163.332C1213.08 144.823 1155.04 104.235 1084.16 88.5459C1045.56 80.0005 1005.24 79.0956 965.469 81.2246C887.352 85.3772 810.39 101.168 732.245 107.588C676.693 112.158 622.411 110.609 569.767 97.9303C526.739 87.5653 486.021 67.6875 442.897 90.0365C403.393 110.51 372.762 141.394 336.187 166.402" stroke="#37B6FF" stroke-opacity="0.3" stroke-width="0.468209" stroke-miterlimit="10"/>
<path d="M1847.07 23.7227C1794.12 47.1674 1735.42 60.2767 1683.76 85.9688C1630.42 112.523 1575.48 137.978 1516.26 155.056C1439.31 177.277 1353.47 184.92 1277.01 162.805C1208.14 143.013 1150.68 100.694 1079.76 85.0047C1041.3 76.4955 1000.95 76.2059 961.302 78.6869C883.485 83.5404 806.93 98.8905 729.14 105.244C673.98 109.752 618.727 108.973 565.52 97.2979C522.284 87.8115 481.909 68.1475 439.357 91.6482C400.416 113.04 370.912 144.74 334.796 169.738" stroke="#37B6FF" stroke-opacity="0.3" stroke-width="0.468209" stroke-miterlimit="10"/>
<path d="M1848.34 19.9268C1794.03 45.0496 1734.56 59.1329 1682.34 85.7497C1628.39 113.258 1572.75 139.25 1512.64 156.548C1435.37 178.782 1348.82 185.761 1272.09 162.28C1203.21 141.201 1146.32 97.1578 1075.36 81.4655C1037.05 72.9957 996.659 73.3215 957.139 76.1513C879.625 81.7057 803.474 96.6182 726.04 102.9C671.271 107.345 615.047 107.325 561.273 96.6609C517.83 88.0464 477.866 68.6885 435.817 93.2586C397.504 115.647 369.059 148.088 333.406 173.073" stroke="#37B6FF" stroke-opacity="0.3" stroke-width="0.468209" stroke-miterlimit="10"/>
</svg>
