<svg width="63" height="63" viewBox="0 0 63 63" fill="none" xmlns="http://www.w3.org/2000/svg">
<path fill-rule="evenodd" clip-rule="evenodd" d="M22.8058 8.0024C11.9885 7.84338 3 15.5988 3 24.7454C3 30.0252 5.54519 34.6055 10.472 37.9683C10.472 37.9683 8.66631 43.7822 8.69199 43.8988C8.71767 44.0156 9.11066 44.2447 9.24743 44.1698C9.38419 44.0949 15.7747 40.3767 15.7747 40.3767C20.3546 41.9105 23.1483 41.5331 23.6252 41.4687C23.6582 41.4642 23.6802 41.4613 23.6908 41.4605C23.202 40.0643 22.8817 37.89 23.2464 35.8408C25.1557 25.1161 36.4101 21.78 42.5782 22.35C40.8749 14.6047 33.4765 8.15917 22.8058 8.0024ZM15.2871 16.8051C13.8681 16.8051 12.718 17.9275 12.718 19.3123C12.718 20.697 13.8681 21.8194 15.2871 21.8194C16.7062 21.8194 17.8566 20.697 17.8566 19.3123C17.8566 17.9275 16.7062 16.8051 15.2871 16.8051ZM30.8413 16.8051C29.4226 16.8051 28.2722 17.9275 28.2722 19.3123C28.2722 20.697 29.4226 21.8194 30.8413 21.8194C32.2604 21.8194 33.4108 20.697 33.4108 19.3123C33.4108 17.9275 32.2607 16.8051 30.8413 16.8051Z" fill="#37B6FF"/>
<path fill-rule="evenodd" clip-rule="evenodd" d="M58.4126 37.4727C58.4126 29.6368 50.6457 23.6348 41.6353 23.6348C32.0947 23.6348 24.4854 29.7724 24.4854 37.6077C24.4854 45.4574 31.7231 51.9559 41.6462 52.0091C43.6435 52.02 46.6183 51.5191 48.6242 50.7014C48.6242 50.7014 53.4194 53.5382 53.6881 53.5174C53.9564 53.4963 54.094 53.2888 54.1047 53.111C54.1154 52.9331 52.5769 48.5053 52.5769 48.5053C56.6943 45.3592 58.4126 41.8926 58.4126 37.4727ZM35.3558 30.1363C34.1004 30.1363 33.0827 31.131 33.0827 32.3584C33.0827 33.5852 34.1004 34.5802 35.3558 34.5802C36.6112 34.5802 37.6289 33.5855 37.6289 32.3584C37.6289 31.131 36.6112 30.1363 35.3558 30.1363ZM47.5108 30.1363C46.2553 30.1363 45.2377 31.131 45.2377 32.3584C45.2377 33.5852 46.2553 34.5802 47.5108 34.5802C48.7665 34.5802 49.7841 33.5855 49.7841 32.3584C49.7841 31.131 48.7665 30.1363 47.5108 30.1363Z" fill="#37B6FF"/>
</svg>
