<svg width="63" height="63" viewBox="0 0 63 63" fill="none" xmlns="http://www.w3.org/2000/svg">
<path fill-rule="evenodd" clip-rule="evenodd" d="M22.8058 8.45943C11.9885 8.30041 3 16.0558 3 25.2024C3 30.4822 5.54519 35.0625 10.472 38.4253C10.472 38.4253 8.66631 44.2393 8.69199 44.3558C8.71767 44.4726 9.11066 44.7017 9.24743 44.6268C9.38419 44.552 15.7747 40.8337 15.7747 40.8337C20.3546 42.3676 23.1483 41.9901 23.6252 41.9257C23.6582 41.9212 23.6802 41.9183 23.6908 41.9176C23.202 40.5213 22.8817 38.3471 23.2464 36.2978C25.1557 25.5731 36.4101 22.2371 42.5782 22.807C40.875 15.0617 33.4765 8.6162 22.8058 8.45943ZM15.2871 17.2621C13.8681 17.2621 12.718 18.3846 12.718 19.7693C12.718 21.154 13.8681 22.2765 15.2871 22.2765C16.7062 22.2765 17.8566 21.154 17.8566 19.7693C17.8566 18.3846 16.7062 17.2621 15.2871 17.2621ZM30.8413 17.2621C29.4226 17.2621 28.2722 18.3846 28.2722 19.7693C28.2722 21.154 29.4226 22.2765 30.8413 22.2765C32.2604 22.2765 33.4108 21.154 33.4108 19.7693C33.4108 18.3846 32.2607 17.2621 30.8413 17.2621Z" fill="#31CE6F"/>
<path fill-rule="evenodd" clip-rule="evenodd" d="M58.4126 37.9297C58.4126 30.0938 50.6457 24.0918 41.6353 24.0918C32.0947 24.0918 24.4854 30.2294 24.4854 38.0648C24.4854 45.9145 31.7231 52.4129 41.6462 52.4661C43.6435 52.4771 46.6183 51.9761 48.6242 51.1585C48.6242 51.1585 53.4194 53.9952 53.6881 53.9744C53.9564 53.9533 54.094 53.7459 54.1047 53.568C54.1154 53.3901 52.5769 48.9623 52.5769 48.9623C56.6943 45.8162 58.4126 42.3496 58.4126 37.9297ZM35.3558 30.5934C34.1004 30.5934 33.0827 31.588 33.0827 32.8154C33.0827 34.0423 34.1004 35.0372 35.3558 35.0372C36.6112 35.0372 37.6289 34.0426 37.6289 32.8154C37.6289 31.588 36.6112 30.5934 35.3558 30.5934ZM47.5108 30.5934C46.2553 30.5934 45.2377 31.588 45.2377 32.8154C45.2377 34.0423 46.2553 35.0372 47.5108 35.0372C48.7665 35.0372 49.7841 34.0426 49.7841 32.8154C49.7841 31.588 48.7665 30.5934 47.5108 30.5934Z" fill="#31CE6F"/>
</svg>
